<?xml version="1.0" encoding="utf-8"?>
<!-- Generator: Adobe Illustrator 21.0.0, SVG Export Plug-In . SVG Version: 6.00 Build 0)  -->
<svg version="1.0" id="Capa_1" xmlns="http://www.w3.org/2000/svg" xmlns:xlink="http://www.w3.org/1999/xlink" x="0px" y="0px"
	 viewBox="0 0 719.4 618.1" style="enable-background:new 0 0 719.4 618.1;" xml:space="preserve">
<style type="text/css">
	.st0{opacity:0.53;fill:#7F8080;}
</style>
<path class="st0" d="M507.1,584.7c-21.5,11.7-53.3,23.7-96.3,27.1c-89.2,7-176.5-27.4-238.2-92.1C112.3,456.7,59.7,371.2,23.1,293.8
	C-26.3,189.5,28.7,65.4,139.2,32c100.6-30.5,235.8-48.1,372.6,4.3c0,0,145.7,32.1,197.6,165.7c12.5,32.1,4.3,68.5-20.9,92
	c-16.6,15.5-36.1,27.5-48.5,32.4c-26.2,10.4-90.8,39.9-83.7,109.6c5.3,52.3,12.4,64.4,2.4,90.5C549,551.4,530.6,571.9,507.1,584.7z"
	/>
</svg>
