<?xml version="1.0" encoding="utf-8"?>
<!-- Generator: Adobe Illustrator 21.0.0, SVG Export Plug-In . SVG Version: 6.00 Build 0)  -->
<svg version="1.1" id="Capa_1" xmlns="http://www.w3.org/2000/svg" xmlns:xlink="http://www.w3.org/1999/xlink" x="0px" y="0px"
	 viewBox="0 0 754 631" style="enable-background:new 0 0 754 631;" xml:space="preserve">
<style type="text/css">
	.st0{opacity:0.53;fill:#7F7F7F;}
	
		.st1{opacity:0.47;fill:none;stroke:#F2A338;stroke-width:2;stroke-linecap:round;stroke-linejoin:round;stroke-miterlimit:10;stroke-dasharray:5;}
</style>
<g>
	<path class="st0" d="M537.8,592.1c-21.5,11.7-53.3,23.7-96.3,27.1c-89.2,7-176.5-27.4-238.2-92.1C143,464.1,90.4,378.6,53.8,301.2
		C4.4,196.9,59.4,72.8,169.9,39.4C270.5,8.9,405.6-8.7,542.4,43.6c0,0,145.7,32.1,197.6,165.7c12.5,32.1,4.3,68.5-20.9,92
		c-16.6,15.5-36.1,27.5-48.5,32.4c-26.2,10.4-90.8,39.9-83.7,109.6c5.3,52.3,12.4,64.4,2.4,90.5
		C579.7,558.8,561.3,579.3,537.8,592.1z"/>
</g>
<path class="st1" d="M492.2,614.6c-40.5,9.9-82,11.3-123.4,4.2c-41.3-7.1-80.1-22.1-115.6-44.9c-90.6-58.1-164.8-141.7-201-186.3
	C15.8,342.6,0.8,284.1,11.1,227c10.3-57.1,44.8-106.7,94.7-136.1C164,56.5,224,31.7,284,17.1C347.8,1.5,411.9-2.4,474.4,5.4
	c5.9,0,41.8,0.2,87.1,13.4C625.9,37.7,678.4,74,713.2,123.9c22.2,31.8,22.8,73.2,1.6,105.5c-14.5,22-31.7,38.3-42,45.6
	c-49,34.7-66.4,73.3-51.8,114.8c4.9,13.8,9.2,24.6,12.7,33.4c9.3,23.3,14.4,36.1,11.5,58.6c-3.7,28.6-17.7,55.2-39.5,75
	c-24.5,22.3-55.1,39.5-90.8,51.2C507.6,610.6,499.9,612.8,492.2,614.6z"/>
</svg>
