<?xml version="1.0" encoding="utf-8"?>
<!-- Generator: Adobe Illustrator 21.0.0, SVG Export Plug-In . SVG Version: 6.00 Build 0)  -->
<svg version="1.1" id="Capa_1" xmlns="http://www.w3.org/2000/svg" xmlns:xlink="http://www.w3.org/1999/xlink" x="0px" y="0px"
	 viewBox="0 0 267.4 264" style="enable-background:new 0 0 267.4 264;" xml:space="preserve">
<style type="text/css">
	.st0{fill:#1A191A;}
	.st1{fill:#302E2F;}
	
		.st2{opacity:0.47;fill:none;stroke:#E99828;stroke-width:2;stroke-linecap:round;stroke-linejoin:round;stroke-miterlimit:10;stroke-dasharray:5;}
</style>
<g>
	<path class="st0" d="M20.1,66.1c0,0-34,69.2,35.1,133.3s144.2,45,174.7,15.4s45.9-70.2,23.2-94.5s-69.2-6.9-101.1-21.2
		S75.7,19.9,49.2,33.9C33,42.5,20.1,66.1,20.1,66.1z"/>
	<g>
		<g>
			<path class="st1" d="M60.5,140.5C60.8,140.5,61,140.6,60.5,140.5c0.4,0,0.7,0.1,1,0.1c0.2,0.1,0.5,0.1,0.7,0.2
				c0.1,0,0.9,0.3,0.3,0.1c0.5,0.2,0.9,0.4,1.3,0.6c0.1,0,0.9,0.6,0.5,0.3c-0.4-0.3,0.5,0.4,0.5,0.4c1.2-2.3,2.4-4.7,3.6-7
				c-1.3-0.2-2.7-0.4-4-0.7c-2.1-0.4-4.5,0.9-4.9,3.1c-0.4,2.1,0.9,4.5,3.1,4.9c1.3,0.2,2.7,0.4,4,0.7c1.7,0.3,3.7-0.4,4.5-2.1
				c0.7-1.6,0.5-3.7-0.9-4.9c-2.9-2.4-6.3-3.6-10.1-3.8c-2.1-0.1-4.1,2.2-3.9,4.2C56.4,139,58.2,140.4,60.5,140.5L60.5,140.5z"/>
		</g>
		<g>
			<path class="st1" d="M83.1,131.9c0.4,0,0.8,0,1.2,0c0.1,0,0.6,0,0.6,0c0-0.1-0.9-0.1,0,0c0.4,0,0.8,0.1,1.2,0.2
				c0.2,0,0.4,0.1,0.6,0.1c0.2,0.1,0.2,0-0.1-0.1c-0.8-0.3-1.4-0.9-1.8-1.9c0-0.7-0.1-1.4-0.1-2.1c0,0,0,0.1,0,0.1
				c0.3-0.6,0.6-1.2,1-1.9c1.1-0.4,2.2-0.7,3.3-1.1c0.6,0.3,1.2,0.6,1.9,1c0,0-0.1,0-0.1-0.1c0.4,0.6,0.8,1.2,1.2,1.8
				c0,0,0-0.1,0-0.1c0,0.7,0.1,1.4,0.1,2.1c0,0,0-0.1,0-0.1c0.3-0.9-0.1-2.3-0.5-3.1c-0.5-0.8-1.6-1.6-2.6-1.8
				c-1-0.2-2.2-0.1-3.1,0.5c-0.9,0.7-1.4,1.5-1.8,2.6c-0.5,1.4,0.2,3.2,1.3,4.2c1,0.9,2.4,1.3,3.7,1c3-0.5,4.8-4,3.1-6.7
				c-1.9-2.9-6.3-3-9.3-2.9c-2.1,0-4.1,2.1-3.9,4.2C79.1,130.2,80.8,131.9,83.1,131.9L83.1,131.9z"/>
		</g>
		<g>
			<path class="st1" d="M73,158.6c0.3,0,0.6,0,0.9,0c0.1,0,0.8,0.1,0.4,0c-0.5-0.1,0.4,0.1,0.5,0.1c0.7,0.1-0.2-0.1,0.2,0
				c0.5,0.2,1,0.4,1.4,0.7c-0.3-0.2-0.3-0.2,0,0c0.3,0.2,0.5,0.5,0.7,0.7c-0.4-1.3-0.8-2.6-1.3-3.9c-0.1,0.5,0-0.1,0.1-0.3
				c0.2-0.4,0.5-0.7,0.8-0.9c-0.5,0.3,0.2-0.1,0.3-0.1c-0.7,0.2,0.7-0.1,0.2,0c-0.2,0-0.6,0.2-0.1,0c0.3,0,0.4,0,0.2,0
				c-0.2-0.1-0.2,0,0.1,0.1c0.2,0,0.4,0.1,0.5,0.3c0.3,0.2,0.3,0.2,0.1,0.1c-0.2-0.1-0.1-0.1,0.1,0.2c0.2,0.2,0.4,0.5,0.5,0.8
				c-0.7-2-3-3.5-5.1-2.7c-2,0.7-3.5,3-2.7,5.1c1,2.7,3.3,4.3,6.2,4.4c2.4,0.1,5-1.2,6.1-3.4c3.2-6-5.8-9.8-10.5-9.3
				c-2.1,0.2-4.1,2-3.9,4.2C68.9,156.8,70.7,158.8,73,158.6L73,158.6z"/>
		</g>
		<g>
			<path class="st1" d="M101,145.2c-2.6-1.1-5.2-1.3-7.9-0.7c-2.1,0.4-3.5,3.2-2.7,5.1c0.8,2,2.1,3.8,4.2,4.5c1,0.4,2,0.6,3.1,0.3
				c1-0.3,2-1.1,2.4-2c0.8-1.8,0.4-4.7-1.8-5.5c-0.2-0.1-0.3-0.1-0.5-0.2c-0.7-0.3,0.5,0.4,0.1,0.1c-0.4-0.3,0.4,0.7,0.2,0.3
				c-0.1-0.3-0.3-0.8,0.1,0.2c-0.9,1.7-1.8,3.4-2.7,5.1c0.6-0.1-0.2,0.1-0.3,0c0.1,0,0.3,0,0.5,0c0.2,0,0.3,0,0.5,0
				c0.1,0,0.9,0,0.2,0c-0.6-0.1,0,0,0.1,0c0.2,0,0.3,0.1,0.5,0.1c0.2,0,0.3,0.1,0.5,0.1c0.5,0.1-0.9-0.4-0.2-0.1
				c2,0.8,4.5,0.4,5.5-1.8C103.6,148.8,103.1,146,101,145.2L101,145.2z"/>
		</g>
		<g>
			<path class="st1" d="M97.7,176.9c1.2-0.7,2.3-1.5,3.5-2.2c1.8-1.2,2.5-3.8,1.3-5.7c-1.3-1.8-3.7-2.5-5.7-1.3
				c-1.2,0.7-2.3,1.5-3.5,2.2c-1.8,1.2-2.5,3.8-1.3,5.7C93.3,177.5,95.7,178.1,97.7,176.9L97.7,176.9z"/>
		</g>
		<g>
			<path class="st1" d="M112.4,191c-1.3,0.6-2.9,0.7-4-0.3c0.4,0.4-0.6-0.9-0.4-0.5c0.2,0.3-0.4-1.1-0.3-0.5
				c-0.4-1.5,0.2-2.8,1.4-3.7c-0.9,0.7-1.5,1.4-1.8,2.6c-0.2,1,0,2.2,0.5,3.1c1.2,1.7,3.8,2.7,5.7,1.3c1.2-1,2.1-2.1,2.2-3.6
				c0.1-1.2-0.1-2.4-0.8-3.4c-0.5-0.8-1.4-1.6-2.3-2c-1.6-0.7-3.1-0.5-4.7,0.3c-1.9,1-2.4,4-1.3,5.7
				C108.2,191.7,110.4,192,112.4,191L112.4,191z"/>
		</g>
		<g>
			<path class="st1" d="M133.1,200.3c1.6,1.1,3.2,2.6,4.1,3.9c1.4-2.1,2.9-4.1,4.3-6.2c-1.9-0.4-3.7-0.9-5.6-1.3
				c-2.1-0.5-4.4,1-4.9,3.1c-0.5,2.2,1,4.4,3.1,4.9c1.9,0.4,3.7,0.9,5.6,1.3c3.3,0.8,6.5-3.3,4.3-6.2c-1.6-2.1-3.4-4-5.6-5.6
				c-1.7-1.2-4.3-1.5-5.8,0.3C131.5,196.1,131.2,198.9,133.1,200.3L133.1,200.3z"/>
		</g>
		<g>
			<path class="st1" d="M128.5,176.6c-0.6,0.3-0.7,0.3-0.3,0.1c0.4-0.1,0.3-0.1-0.3,0C128.2,176.7,128.4,176.7,128.5,176.6
				C128.9,176.7,128.9,176.7,128.5,176.6c-0.3,0-0.3,0.1,0,0.1c0.4,0.1,0.4,0.1-0.2-0.1c0.2,0.1,0.3,0.2,0.5,0.2
				c-0.5-0.4-0.6-0.4-0.2-0.1c0.9-2.4,1.7-4.8,2.6-7.1c-0.5,0-0.9,0.1-1.4,0.1c-0.2,0-0.6,0.1-0.8,0c0.1,0,0.3,0,0.4,0
				c-0.2,0-0.3,0-0.5-0.1c-1-0.1-1.9-0.4-2.9-0.7c-2-0.7-4.5,1.1-4.9,3.1c-0.4,2.4,0.9,4.1,3.1,4.9c2.3,0.8,4.8,1.1,7.2,0.9
				c1.7-0.1,3.1-1.1,3.7-2.7c0.5-1.5,0.2-3.4-1.1-4.4c-2.9-2.4-6.7-2.7-10-0.9c-1.9,1-2.5,3.9-1.3,5.7
				C124.2,177.3,126.5,177.7,128.5,176.6L128.5,176.6z"/>
		</g>
		<g>
			<path class="st1" d="M160,197.9c0.4,0.1,0.8,0.1,1.1,0.2c-0.7-0.2,0.5,0.3,0.6,0.4c0.2,0.1,0.2,0.1-0.1-0.1
				c0.2,0.1,0.3,0.2,0.4,0.4c0.1,0.1,0.3,0.3,0.4,0.4c-0.3-0.3-0.3-0.3,0,0.1c1.1-2.1,2.2-4.2,3.3-6.3c-0.3,0-0.5,0-0.8,0
				c0.7,0-0.2,0-0.3-0.1c-0.3,0-0.5-0.1-0.8-0.2c-0.1,0-0.9-0.3-0.3-0.1c-0.5-0.2-0.9-0.4-1.4-0.7c-0.6-0.3,0.1,0.1-0.3-0.2
				c-0.3-0.2-0.5-0.4-0.7-0.6c-1.6-1.4-4.4-1.4-5.8,0.3c-1.4,1.7-1.4,4.2,0.3,5.8c2.8,2.6,6.5,3.9,10.3,3.9c3,0,5.1-3.8,3.3-6.3
				c-1.8-2.6-4.5-4.5-7.7-5c-2.1-0.3-4.5,0.8-4.9,3.1C156.5,195.1,157.7,197.5,160,197.9L160,197.9z"/>
		</g>
		<g>
			<path class="st1" d="M181.1,204.3c4.4-2.8,0-9.7-4.4-6.9C172.3,200.2,176.7,207.1,181.1,204.3L181.1,204.3z"/>
		</g>
		<g>
			<path class="st1" d="M178.9,184.8c2,0.7,4.1,1.3,6.1,2c2,0.7,4.5-1.1,4.9-3.1c0.4-2.4-0.9-4.2-3.1-4.9c-2-0.7-4.1-1.3-6.1-2
				c-2-0.7-4.5,1.1-4.9,3.1C175.4,182.3,176.7,184.1,178.9,184.8L178.9,184.8z"/>
		</g>
		<g>
			<path class="st1" d="M149.5,172.6c0.9,2.7,2.7,4.9,5.3,6.2c1.9,1,4.6,0.2,5.5-1.8c0.9-2.1,0.2-4.4-1.8-5.5
				c-0.2-0.1-0.4-0.2-0.6-0.3c0.1,0.1,0.2,0.2,0.4,0.2c-0.1,0-1-1-0.6-0.5c0.4,0.5-0.2-0.4-0.3-0.5c-0.2-0.3-0.1-0.2,0.1,0.3
				c-0.1-0.2-0.2-0.4-0.2-0.6c-0.7-2-3-3.5-5.1-2.7C150.2,168.2,148.8,170.5,149.5,172.6L149.5,172.6z"/>
		</g>
	</g>
	<path class="st2" d="M123.1,252.6c-25.3-7.2-61.5-25.7-90.2-73C5.7,135,8,96.8,14.7,72.6C22,46.3,36,30.6,36.6,29.9l0.1-0.2
		l0.2-0.2C39,27.4,58.5,8.1,78.7,3.9c4.3-0.9,8.8-0.8,13.2,0.5C110.4,9.6,124.8,33,140,57.7c9.5,15.5,19.3,31.5,28.4,39.1
		c10,8.4,24.8,12.9,39.2,17.2c21.7,6.5,44.1,13.3,54.7,33.9c8.7,16.9,7,36.7-4.8,55.7c-10,16.1-26.9,31.2-47.6,42.3
		C185.9,258.7,153.5,261.3,123.1,252.6C123.1,252.6,123.1,252.6,123.1,252.6z"/>
</g>
</svg>
