<?xml version="1.0" encoding="utf-8"?>
<!-- Generator: Adobe Illustrator 21.0.0, SVG Export Plug-In . SVG Version: 6.00 Build 0)  -->
<svg version="1.0" id="Capa_1" xmlns="http://www.w3.org/2000/svg" xmlns:xlink="http://www.w3.org/1999/xlink" x="0px" y="0px"
	 viewBox="0 0 350 477.8" style="enable-background:new 0 0 350 477.8;" xml:space="preserve">
<style type="text/css">
	.st0{fill:#1B1A1B;}
	.st1{fill:#302F30;}
	
		.st2{opacity:0.47;fill:none;stroke:#E89828;stroke-width:1.9391;stroke-linecap:round;stroke-linejoin:round;stroke-miterlimit:10;stroke-dasharray:4.8478;}
</style>
<g>
	<path class="st0" d="M330.1,110.7c-11.3-44.3-42.8-81.2-85.8-97c-18.9-6.9-40.4-9.9-62-3.3c-64.8,19.8-70.2,57.6-77.4,122.5
		C90.5,183.3,14.8,226.6,4,316.6s79.2,160.3,183.7,144.1s145.9-221.5,147.7-235.9C336.8,213.7,344.6,167.5,330.1,110.7z"/>
	<g>
		<path class="st1" d="M48.3,291.8c-0.1,1.1,0.2,2.3,1.2,3.1c1,0.9,2,1.8,3.1,2.7c1.3,1.2,3.4,1.6,5,0.6c1.5-1,2.4-2.9,1.8-4.6
			c-1.2-3.6-3.4-6.4-6.5-8.5c-1.8-1.2-4.6-0.3-5.6,1.5C46.2,288.5,46.8,290.4,48.3,291.8z"/>
		<path class="st1" d="M72.5,296.8c0.3,0.2,0.7,0.4,1,0.7c0,0,0.2,0.1,0.3,0.2c0,0,0.1,0.1,0.2,0.2c0,0,0,0,0,0
			c0,0.2,0.1,0.3,0.1,0.5c0.4,1.3,1.4,2.3,2.6,2.8c2.9,1.2,6.2-0.8,6.2-4.1c-0.1-3.4-3.7-5.8-6.4-7.4c-1.8-1.1-4.6-0.4-5.6,1.5
			C69.9,293.2,70.6,295.6,72.5,296.8z"/>
		<path class="st1" d="M53.9,306.9c-1.9-1-4.5-0.5-5.6,1.5c-0.6,1.2-0.7,2.6-0.1,3.8c-0.1,0.2-0.2,0.5-0.3,0.8
			c-0.6,2.8,0.5,5.4,2.9,7c2,1.4,4.9,1.6,7,0.3C63.7,317,58.1,309,53.9,306.9z M55.8,315.2c0-0.2,0-0.4,0.1-0.5
			C55.9,314.8,55.8,315,55.8,315.2z"/>
		<path class="st1" d="M79.2,323.1c1.7-1.1,2.7-3.7,1.4-5.6c-1.6-2.3-3.7-3.8-6.4-4.8c-2-0.7-4.6,0.9-5,2.9
			c-0.4,2.1-0.2,4.3,1.1,6.1c0.7,0.9,1.3,1.6,2.5,1.9c0.8,0.2,1.9,0.1,2.7-0.2C76.7,323.8,78.1,323.9,79.2,323.1z M72,320.5
			c0,0-0.1,0-0.1-0.1C71.9,320.5,72,320.5,72,320.5z"/>
		<path class="st1" d="M69.1,338.5c-0.1-2.2-1.8-4.1-4.1-4.1c-1.4,0-2.7,0-4.1,0c-2.1,0-4.2,1.9-4.1,4.1c0.1,2.2,1.8,4.1,4.1,4.1
			c1.4,0,2.7,0,4.1,0C67.2,342.6,69.3,340.7,69.1,338.5z"/>
		<path class="st1" d="M66,354.2c-2.1-0.2-4.2,2.1-4.1,4.1c0,0.4,0.1,0.7,0.2,1.1c-0.1,0.4-0.2,0.8-0.2,1.1c0.1,2,1.8,4.3,4.1,4.1
			c1.5-0.2,2.8-0.7,3.8-1.9c0.7-1,1.1-2.1,1.1-3.3c0-1-0.3-2.1-0.9-2.9C69.1,355,67.8,354.4,66,354.2z M65.5,362.3
			c0.2,0,0.4,0.1,0.6,0.1C65.9,362.4,65.7,362.4,65.5,362.3z"/>
		<path class="st1" d="M86.5,379c-0.8-2-2.8-3.6-5.1-2.8c-1.2,0.4-2.3,1.4-2.8,2.6c-0.5,0.2-1,0.5-1.4,0.9c-1.6,1.6-1.5,4.2,0.1,5.8
			c1.3,1.4,2.7,2.7,4,4.1c2.3,2.4,7.3,0.6,7-3C88,384,87.5,381.5,86.5,379z"/>
		<path class="st1" d="M89.4,351C89.4,351,89.4,351,89.4,351c-1.4-1.7-4.5-1.5-5.8,0c-1.6,1.8-1.4,4,0.1,5.8
			c1.5,1.9,3.5,3.5,5.6,4.6c1.5,0.8,3.2,0.7,4.5-0.4c1.2-1,1.9-2.8,1.4-4.3C94.3,353.8,92.1,351.8,89.4,351z"/>
		<path class="st1" d="M108.5,387.6c-0.7-0.6-1.5-0.9-2.3-1.1c-1-0.9-2.5-1.3-3.8-0.9c-2.1,0.7-3.4,2.8-2.8,5.1
			c1,3.7,3.4,6.8,6.7,8.8c2.6,1.6,6.3-0.5,6.1-3.6C112.2,392.8,110.9,389.8,108.5,387.6z"/>
		<path class="st1" d="M117.2,401.9c-5.3,0-5.2,8.2,0.1,8.2C122.5,410,122.5,401.8,117.2,401.9z"/>
		<path class="st1" d="M135.6,391.4c-1.4-1.6-2.7-3.3-4.1-4.9c-1.4-1.6-4.4-1.5-5.8,0.1c-1.6,1.8-1.4,4,0.1,5.8
			c1.4,1.6,2.7,3.3,4.1,4.9c1.4,1.6,4.4,1.5,5.8-0.1C137.2,395.5,137,393.2,135.6,391.4z"/>
		<path class="st1" d="M114,376c1.9-1.2,2.5-3.6,1.4-5.6c-0.1-0.1-0.1-0.2-0.2-0.4c0-0.1-0.1-0.3-0.1-0.4c0-0.2,0-0.6,0-0.7
			c0,0,0,0,0,0c0-0.1,0-0.2,0.1-0.3c0.5-2.1-0.7-4.5-2.9-5c-2.1-0.5-4.5,0.7-5,2.9c-0.7,2.8-0.3,5.6,1.2,8.1
			C109.5,376.5,112.2,377.2,114,376z M115.3,370.2c0,0,0-0.1-0.1-0.1C115.3,370.2,115.3,370.2,115.3,370.2z"/>
	</g>
	<path class="st2" d="M204,470.4c-49.9,8.2-98.7-3.5-134-32.2c-28.9-23.5-45.7-56.4-47.3-92.8c-2.5-56,22.1-99.1,41.9-133.8
		c12.5-21.9,23.3-40.9,25.6-58.6c-3.2-61.1-5.2-105.3,60.2-137.7c8.1-4,16.9-6.8,26-8.3c12.5-2.1,25.9-1.7,39.9,0.9
		c45.9,8.7,85,40.5,104.4,84.9c22.1,50.3,23.4,94.7,23.8,109.3c0,1,0.1,1.8,0.1,2.5c0.3,7.7-1.3,62.5-15.6,120.5
		c-8.2,33.4-19.2,61.5-32.5,83.5c-17,28.2-38.1,46.5-62.7,54.6C224.1,466.2,214,468.7,204,470.4C204,470.4,204,470.4,204,470.4z"/>
</g>
</svg>
