<?xml version="1.0" encoding="utf-8"?>
<!-- Generator: Adobe Illustrator 21.0.0, SVG Export Plug-In . SVG Version: 6.00 Build 0)  -->
<svg version="1.0" id="Capa_1" xmlns="http://www.w3.org/2000/svg" xmlns:xlink="http://www.w3.org/1999/xlink" x="0px" y="0px"
	 viewBox="0 0 323 295.5" style="enable-background:new 0 0 323 295.5;" xml:space="preserve">
<style type="text/css">
	.st0{fill:#010202;}
	.st1{fill:#EAEAEA;}
</style>
<g id="Capa_1_1_">
</g>
<g id="Capa_2">
</g>
<rect x="-9" y="-7" class="st0" width="337" height="313"/>
<g>
	<g>
		<g>
			<path class="st1" d="M228.7,156.8l-24.4,7.1l1-4.3C214.2,158.7,227.8,156.9,228.7,156.8z"/>
		</g>
		<g>
			<path class="st1" d="M228.6,124l-22.7,23c-0.1-0.1-0.2-0.3-0.2-0.4c-0.9-1.4-2.1-2.5-3.6-3.4C211.6,136.5,228.6,124,228.6,124z"
				/>
		</g>
	</g>
	<g>
		<g>
			<path class="st1" d="M114.9,163.4l-22.4-6.5c0,0,12.4,1.6,21.5,2.6L114.9,163.4z"/>
		</g>
		<g>
			<path class="st1" d="M119.1,143.3c-1.8,0.7-3.3,1.8-4.5,3.1l-22-22.4C92.6,124,109.6,136.6,119.1,143.3z"/>
		</g>
	</g>
	<g>
		<path class="st1" d="M160.9,47.4c-2.6,0-12.7,0.8-15.3,1l33.8-0.2C176.4,47.9,164.1,47.4,160.9,47.4z"/>
	</g>
	<g>
		<path class="st1" d="M141.3,46l26.2-0.2l13.1-0.1h1.6h0.8c0.4,0,0.8,0.2,1,0.5c0.1,0.2,0.2,0.3,0.2,0.5c0,0.1,0,0.2,0,0.3v0.2V48
			v1.6v6.5l0.2,26.2v13.1v6.5v3.3v1.6v0.2c0,0.1,0,0.2-0.1,0.4c-0.1,0.2-0.2,0.5-0.3,0.6c-0.3,0.4-0.8,0.6-1.3,0.6l-26.2-0.1h-13.1
			h-1.6h-0.9c-0.5,0-0.9-0.3-1.2-0.6c-0.1-0.2-0.2-0.4-0.3-0.6c0-0.1,0-0.2,0-0.3v-0.2V106v-1.6v-6.5l0.2-26.2l0.1-13.1v-6.5v-3.3
			v-1.6c0-0.1,0-0.3,0.1-0.5s0.2-0.3,0.3-0.4C140.6,46.1,141,46,141.3,46z M141.3,46.2c-0.3,0-0.5,0.2-0.5,0.4
			c-0.1,0.2-0.1,0.3-0.1,0.6v1.6v3.3v6.5l0.1,13.1l0.2,26.2v6.5v1.6v0.8v0.2c0,0,0,0,0,0.1c0,0,0,0.1,0.1,0.1
			c0.1,0.1,0.1,0.1,0.2,0.1h0.8h1.6h13.1l26.2-0.1c0.1,0,0.1,0,0.2-0.1V107l0,0c0,0,0-0.1,0-0.2v-1.6v-3.3v-6.5V82.3l0.2-26.2v-6.5
			V48v-0.8V47c0-0.1,0-0.1,0-0.1c0-0.1,0-0.1-0.1-0.2c-0.1-0.1-0.2-0.2-0.4-0.2h-0.8h-1.6l-13.1-0.1L141.3,46.2z"/>
	</g>
	<g>
		<g>
			<path class="st1" d="M93,107.9H66.3l-1.1-4.9c3.3-2.6,5.3-4.4,8.1-7.1c2.3-2.1,4.2-4.1,5.8-6.1c1.3-1.5,2-3.3,2.1-5
				c0.2-2.8-2.2-4.9-5.4-4.9c-2.3,0-3.9,0.7-7,3.1l-2.5-7c1.8-1.7,2.8-2.5,4.4-3.3c2.4-1.4,5.4-2.2,7.9-2.2c4.4,0,7.6,1.3,10,4.2
				c1.9,2.1,2.9,4.8,2.9,7.7c0,5.3-3.5,10.4-12,17.6h15L93,107.9z"/>
		</g>
		<g>
			<path class="st1" d="M122.7,76.7c2,2.8,3.3,7.9,3.3,12.5c0,12.4-5.7,19.7-15.5,19.7c-9.1,0-15-7.4-15-18.9
				c0-6.5,1.8-11.6,5.3-15.1c2.8-2.7,6.4-4.2,10-4.2C116,70.5,120,72.6,122.7,76.7z M106.4,82.3c-0.6,1.5-0.9,3.6-0.9,6.9
				c0,6.5,2,10.8,5.3,11.1c2,0.2,3.6-1,4.4-3.6c0.5-1.6,0.7-3.8,0.7-7.4c0-6.1-2.1-10.2-5.3-10.4C108.8,78.9,107.4,80.2,106.4,82.3z
				"/>
		</g>
	</g>
	<g>
		<g>
			<path class="st1" d="M228.5,107.9h-26.7l-1.1-4.9c3.3-2.6,5.3-4.4,8.1-7.1c2.3-2.1,4.2-4.1,5.8-6.1c1.3-1.5,2-3.3,2.1-5
				c0.2-2.8-2.2-4.9-5.4-4.9c-2.3,0-3.9,0.7-7,3.1l-2.5-6.9c1.8-1.7,2.8-2.5,4.4-3.3c2.4-1.4,5.4-2.2,7.9-2.2c4.4,0,7.6,1.3,10,4.2
				c1.9,2.1,2.9,4.8,2.9,7.7c0,5.3-3.5,10.4-12,17.6h15L228.5,107.9z"/>
		</g>
		<g>
			<g>
				<path class="st1" d="M225.8,73.1c0.2,0.3,0.5,0.5,0.7,0.8c-1.7-1.5-3.4-2.9-5.2-4.3C223.1,70.5,224.5,71.6,225.8,73.1z"/>
			</g>
		</g>
		<g>
			<path class="st1" d="M257.9,107.9h-26.7l-1.1-4.9c3.3-2.6,5.3-4.4,8.1-7.1c2.3-2.1,4.2-4.1,5.8-6.1c1.3-1.5,2-3.3,2.1-5
				c0.2-2.8-2.2-4.9-5.4-4.9c-2.3,0-3.9,0.7-7,3.1l-2.5-6.9c1.8-1.7,2.8-2.5,4.4-3.3c2.4-1.4,5.4-2.2,7.9-2.2c4.4,0,7.6,1.3,10,4.2
				c1.9,2.1,2.9,4.8,2.9,7.7c0,5.3-3.5,10.4-12,17.6h15L257.9,107.9z"/>
		</g>
	</g>
	<g>
		<path class="st1" d="M162.1,55.2c-8.6,0-15.6,9.8-15.6,21.9s7,21.9,15.6,21.9s15.6-9.8,15.6-21.9C177.7,65,170.7,55.2,162.1,55.2z
			 M154,92.4c-1.1-1.3-1.9-2.8-2.3-4.4c0.9,1.4,1.8,2.7,2.9,3.9c1.1,1.2,2.2,2.3,3.6,3.2C156.6,94.7,155.2,93.7,154,92.4z
			 M169.3,61.6c-1.1-1.2-2.2-2.3-3.6-3.2c1.6,0.4,3.1,1.4,4.2,2.7c1.1,1.3,1.9,2.8,2.3,4.4C171.2,64.2,170.3,62.8,169.3,61.6z"/>
	</g>
	<g>
		<polygon class="st1" points="134.5,114.7 62.5,114.7 130,119.5 		"/>
	</g>
	<g>
		<polygon class="st1" points="190.7,114.7 262.7,114.7 195.2,119.5 		"/>
	</g>
	<g>
		<path class="st1" d="M180.9,194.9c-0.1-0.2-0.4-0.4-0.6-0.5c-0.3-0.1-0.6-0.2-1.1-0.2c-0.1,0-0.2,0-0.3,0s-0.1,0-0.2,0
			c0,3.3-0.1,6.5-0.1,9.8c0.1,0,0.1,0,0.2,0c0.1,0,0.2,0,0.3,0c0.4,0,0.7,0,1-0.1s0.5-0.3,0.7-0.5c0.1-0.2,0.2-0.5,0.3-1.1
			c0.1-0.5,0.1-1.6,0.1-3.1c0-0.2,0-0.5,0-0.7c0-1.3,0-2.2,0-2.6C181.1,195.3,181.1,195,180.9,194.9z"/>
		<path class="st1" d="M217.2,203.4c0.7,0.1,1.4,0.1,2.1,0.2c-0.3-2.2-0.5-4.5-0.8-6.7C218.1,199,217.6,201.2,217.2,203.4z"/>
		<path class="st1" d="M150.7,197.6c0-1.7-0.1-2.8-0.4-3.2c-0.2-0.4-0.6-0.6-1.2-0.6c-0.6,0-1,0.2-1.2,0.7c-0.2,0.4-0.3,1.5-0.3,3.2
			c0,0.9,0,1.9,0,2.8c0,1.7,0.2,2.7,0.4,3.2c0.2,0.4,0.6,0.6,1.2,0.6c0.6,0,1-0.2,1.2-0.7c0.2-0.4,0.3-1.5,0.3-3.2
			C150.7,199.4,150.7,198.5,150.7,197.6z"/>
		<path class="st1" d="M261.2,176.4c-18.9-4.5-38.1-7.7-57.3-9.6l-6.2,15.1l2.2-15.5c-0.1,0-0.1,0-0.2,0c1.1-4.8,2.2-9.7,3.3-14.5
			c0.6-2.6-1.8-5.4-5.4-6.1c-25-5.1-50.8-4.9-75.6,0.8c-3.6,0.8-6,3.6-5.4,6.1c1.1,4.8,2.2,9.6,3.2,14.4h-0.1l2.1,14.7l-5.9-14.3
			c-18.4,2.1-36.6,5.4-54.7,9.9c-2.4,0.6-4.1,2.8-3.7,4.9c2.6,14.5,5.2,29,7.8,43.6c0.4,2.1,2.5,3.3,4.7,2.8
			c59.8-14.3,122.2-14,181.8,1c2.2,0.6,4.3-0.7,4.7-2.9c2.7-15.1,5.5-30.2,8.2-45.3C265.3,179.3,263.6,177,261.2,176.4z M79.3,213.5
			c-0.4-5.3-0.8-10.6-1.2-15.9c1.2-0.2,2.5-0.4,3.7-0.6c0.3,4.2,0.6,8.5,0.9,12.7c1.5-0.2,3-0.4,4.4-0.7c0.1,1.1,0.1,2.1,0.2,3.2
			C84.7,212.6,82,213,79.3,213.5z M98.1,207c-0.1,0.9-0.3,1.6-0.6,2.2c-0.4,0.7-1,1.3-1.7,1.8c-0.7,0.4-1.6,0.7-2.6,0.9
			c-1,0.1-1.9,0.1-2.7-0.2c-0.8-0.2-1.4-0.7-1.9-1.3c-0.3-0.4-0.6-1.1-0.8-2c-0.2-0.9-0.4-2.2-0.5-4.2c-0.1-1.9-0.2-3.3-0.1-4.2
			s0.3-1.6,0.5-2.2c0.4-0.8,1-1.4,1.7-1.8c0.7-0.4,1.6-0.7,2.6-0.9c1-0.1,1.9-0.1,2.7,0.2c0.8,0.2,1.4,0.7,1.9,1.3
			c0.4,0.5,0.6,1.1,0.8,2c0.2,0.9,0.3,2.2,0.4,4.1C98.2,204.7,98.2,206.1,98.1,207z M117.1,208.7c-0.1-4.1-0.1-8.1-0.2-12.2
			c-0.7,4.1-1.3,8.3-2,12.4c-0.9,0.1-1.9,0.2-2.8,0.3c-1-4-2.1-8-3.1-12c0.3,4.1,0.6,8.1,0.9,12.2c-1.2,0.1-2.3,0.2-3.5,0.4
			c-0.3-5.3-0.5-10.5-0.8-15.8c1.7-0.2,3.5-0.4,5.2-0.5c0.6,2.2,1.2,4.4,1.7,6.6c0,0,0.1,0.5,0.2,1.2c0.1,0.8,0.3,1.6,0.4,2.4
			c0.1-0.6,0.1-1.4,0.2-2.3c0.1-0.9,0.1-1.4,0.2-1.5c0.4-2.3,0.7-4.5,1.1-6.8c1.7-0.2,3.5-0.3,5.2-0.4c0.2,5.3,0.4,10.5,0.6,15.8
			C119.4,208.5,118.2,208.6,117.1,208.7z M157.5,153.8c0.8-0.4,2.3-1.1,4.2-2.1l0.5-0.2l0.5-0.3l0.5-0.2l2,0.7v13.1v13.3H158v-13.3
			V159c-2.2,1.2-3.5,1.8-5.7,2.5l-1.5-5C153.5,155.6,155,155,157.5,153.8z M123.1,208.2c-0.2-5.2-0.4-10.5-0.6-15.7
			c2.9-0.2,5.8-0.4,8.7-0.6c0,1,0.1,2,0.1,3c-1.7,0.1-3.3,0.2-5,0.3c0,1,0.1,1.9,0.1,2.9c1.5-0.1,3.1-0.2,4.6-0.3
			c0,1.1,0.1,2.1,0.1,3.2c-1.5,0.1-3.1,0.2-4.6,0.3c0,1.1,0.1,2.3,0.1,3.4c1.6-0.1,3.3-0.2,4.9-0.3c0,1.1,0.1,2.1,0.1,3.2
			C128.9,207.8,126,208,123.1,208.2z M141.5,204.3c-0.1,0.6-0.2,1-0.4,1.4c-0.3,0.6-0.8,1-1.4,1.4c-0.6,0.3-1.4,0.5-2.3,0.6
			c-1.6,0.1-2.8-0.2-3.5-0.9s-1.1-1.9-1.1-3.7c0-0.2,0-0.4,0-0.5s0-0.2,0-0.3c1.1-0.1,2.3-0.1,3.4-0.2c0,1.3,0.1,2.1,0.2,2.4
			c0.1,0.3,0.4,0.4,0.7,0.4s0.5-0.1,0.6-0.3s0.2-0.6,0.1-1.2c-0.1-3.9-0.2-7.8-0.3-11.8c1.3-0.1,2.5-0.1,3.8-0.2
			c0.1,3.4,0.1,6.9,0.2,10.3C141.6,202.9,141.6,203.8,141.5,204.3z M154.3,203c-0.1,0.9-0.4,1.6-0.7,2.1c-0.4,0.7-1,1.2-1.8,1.6
			c-0.7,0.4-1.6,0.5-2.6,0.6c-1,0-1.9-0.1-2.7-0.4c-0.7-0.3-1.3-0.8-1.8-1.5c-0.3-0.5-0.6-1.1-0.7-2c-0.2-0.9-0.2-2.2-0.3-4.1
			c0-1.9,0-3.3,0.1-4.1s0.3-1.6,0.7-2.1c0.4-0.7,1-1.2,1.8-1.6c0.7-0.4,1.6-0.5,2.7-0.6c1.1,0,1.9,0.1,2.7,0.4
			c0.7,0.3,1.3,0.8,1.8,1.5c0.3,0.5,0.6,1.2,0.7,2c0.1,0.9,0.2,2.2,0.2,4.1C154.5,200.7,154.5,202.1,154.3,203z M163.3,206.6
			c-0.1-0.3-0.2-0.7-0.2-1c0-0.4-0.1-0.7-0.1-1.1c0-0.2,0-0.6,0-0.9c0-0.4,0-0.6,0-0.7c0-0.9-0.1-1.6-0.4-1.9
			c-0.3-0.3-0.7-0.5-1.4-0.5c-0.3,0-0.5,0-0.8,0c0,2.1,0,4.1,0,6.2c-1.2,0-2.4,0-3.7,0c0-5.2-0.1-10.4-0.1-15.6c1.4,0,2.8,0,4.2,0
			s2.4,0.1,3,0.2c0.6,0.1,1.1,0.3,1.5,0.6c0.5,0.4,0.8,0.8,1,1.3s0.3,1.2,0.3,1.9c0,0.9-0.2,1.6-0.5,2.2c-0.3,0.6-0.8,1.1-1.5,1.5
			c1.2,0.5,1.8,1.7,1.8,3.5c0,0,0,0,0,0.1c0,0.2,0,0.5,0,0.8c0,1.7,0.3,2.8,0.9,3.3C166.2,206.6,164.7,206.6,163.3,206.6z
			 M185,199.2c0,2.1-0.1,3.5-0.3,4.2c-0.1,0.7-0.4,1.3-0.7,1.8c-0.4,0.6-1,1-1.7,1.2s-1.8,0.3-3.3,0.3c-1.4,0-2.7-0.1-4.1-0.1
			c0-5.2,0.1-10.3,0.1-15.5c1.4,0,2.8,0.1,4.1,0.1c1.5,0,2.6,0.2,3.4,0.5c0.7,0.3,1.3,0.7,1.7,1.4c0.3,0.5,0.6,1.1,0.7,1.9
			C185,195.8,185.1,197.2,185,199.2z M196.1,195.1c-1.7-0.1-3.3-0.2-5-0.3c0,0.9,0,1.9-0.1,2.8c1.5,0.1,3.1,0.2,4.6,0.3
			c0,1-0.1,2.1-0.1,3.1c-1.5-0.1-3.1-0.2-4.6-0.2c0,1.1,0,2.2-0.1,3.4c1.7,0.1,3.3,0.2,4.9,0.3c0,1-0.1,2.1-0.1,3.1
			c-2.9-0.2-5.7-0.3-8.6-0.4c0.1-5.1,0.2-10.3,0.3-15.4c2.9,0.1,5.8,0.3,8.7,0.5C196.1,193.1,196.1,194.1,196.1,195.1z M228.6,192
			c0.4-0.3,0.8-0.5,1.4-0.4c0.1,0,0.3,0,0.4,0.1c0.1,0,0.2,0.1,0.4,0.1c0.4,0.2,0.9,0.3,1.3,0.5c0.1,0,0.2,0.1,0.3,0.1
			s0.2,0,0.3,0.1c0.2,0,0.4,0,0.6-0.1c0.2-0.1,0.3-0.3,0.4-0.5c0.4,0,0.7,0.1,1.1,0.1c-0.2,0.7-0.5,1.3-0.9,1.6
			c-0.4,0.4-0.9,0.5-1.5,0.4c-0.1,0-0.2,0-0.3-0.1c-0.1,0-0.2-0.1-0.3-0.1c-0.5-0.2-0.9-0.4-1.4-0.5c-0.1,0-0.1-0.1-0.2-0.1
			c-0.1,0-0.1,0-0.2,0c-0.3,0-0.5,0-0.6,0.1c-0.2,0.1-0.3,0.3-0.4,0.5c-0.3,0-0.7-0.1-1-0.1C227.9,192.8,228.2,192.3,228.6,192z
			 M206.2,208.1c-2.7-0.2-5.4-0.4-8.2-0.6c0.1-5.1,0.3-10.2,0.4-15.3c1.2,0.1,2.5,0.2,3.7,0.3c-0.1,4.1-0.3,8.1-0.4,12.2
			c1.5,0.1,3,0.2,4.5,0.3C206.3,206.1,206.2,207.1,206.2,208.1z M219.9,209.3c-0.1-1-0.2-2-0.3-3c-1-0.1-1.9-0.2-2.9-0.3
			c-0.2,1-0.4,1.9-0.6,2.9c-1.2-0.1-2.5-0.2-3.7-0.3c1.4-5,2.7-9.9,4.1-14.9c1.5,0.1,3,0.3,4.4,0.5c0.9,5.2,1.8,10.4,2.7,15.5
			C222.4,209.6,221.1,209.5,219.9,209.3z M234.9,211.1c-1.3-0.2-2.6-0.3-3.8-0.5c-0.8-3.3-1.7-6.7-2.6-10c0.1,1.3,0.1,2.5,0.1,3.7
			s0,2.3-0.1,3.4c0,0.9-0.1,1.7-0.1,2.6c-1.1-0.1-2.2-0.3-3.3-0.4c0.3-5.1,0.5-10.1,0.8-15.2c1.3,0.2,2.6,0.3,3.9,0.5
			c0.9,3.2,1.7,6.5,2.6,9.7c0-1.6,0-2.9,0-4.1c0-1.1,0-2.1,0.1-2.9c0-0.8,0.1-1.6,0.1-2.4c1.1,0.1,2.2,0.3,3.3,0.4
			C235.5,201,235.2,206.1,234.9,211.1z M248.2,205.4c-0.1,1.8-0.3,3.1-0.5,3.9c-0.2,0.8-0.5,1.4-0.8,1.9c-0.5,0.6-1.1,1-1.9,1.2
			c-0.7,0.2-1.6,0.2-2.7,0.1c-1-0.1-1.9-0.4-2.6-0.9c-0.7-0.4-1.3-1-1.7-1.7c-0.3-0.5-0.5-1.2-0.6-2c-0.1-0.9-0.1-2.2,0-4
			s0.3-3.1,0.4-3.9c0.2-0.8,0.5-1.4,0.8-1.9c0.5-0.6,1.1-1,1.9-1.2c0.8-0.2,1.7-0.2,2.7-0.1c1,0.2,1.9,0.5,2.6,0.9
			c0.7,0.4,1.3,1,1.7,1.8c0.3,0.5,0.5,1.2,0.6,2.1C248.3,202.3,248.3,203.6,248.2,205.4z"/>
		<path class="st1" d="M160.9,193.7c0,0-0.1,0-0.2,0c-0.1,0-0.2,0-0.2,0c0,1.3,0,2.5,0,3.8c0.1,0,0.1,0,0.2,0c0.1,0,0.2,0,0.2,0
			c0.8,0,1.3-0.2,1.6-0.5s0.5-0.8,0.5-1.5s-0.2-1.1-0.5-1.4C162.3,193.8,161.7,193.7,160.9,193.7z"/>
		<path class="st1" d="M243.2,199.6c-0.6-0.1-1,0.1-1.2,0.4c-0.2,0.4-0.4,1.4-0.5,3c-0.1,0.9-0.1,1.8-0.2,2.7
			c-0.1,1.6-0.1,2.7,0.1,3.1c0.2,0.4,0.6,0.7,1.2,0.8c0.6,0.1,1-0.1,1.2-0.4c0.2-0.4,0.4-1.4,0.5-3c0.1-0.9,0.1-1.8,0.2-2.7
			c0.1-1.7,0.1-2.7-0.1-3.1C244.2,199.9,243.8,199.7,243.2,199.6z"/>
		<path class="st1" d="M94.2,201.9c-0.1-1.8-0.3-2.8-0.5-3.2c-0.3-0.4-0.7-0.5-1.3-0.5c-0.6,0.1-1,0.3-1.1,0.8
			c-0.2,0.5-0.2,1.6-0.1,3.3c0.1,1,0.1,1.9,0.2,2.9c0.1,1.7,0.3,2.8,0.5,3.2s0.7,0.6,1.2,0.5c0.6-0.1,1-0.3,1.1-0.8
			c0.2-0.5,0.2-1.6,0.1-3.3C94.3,203.8,94.2,202.8,94.2,201.9z"/>
	</g>
	<g>
		<path class="st1" d="M167.6,213.9c-2.2,0-4.5-0.1-6.7-0.1c-5,0-10.1,0-15.1,0.2"/>
	</g>
	<g>
		<path class="st1" d="M191.1,130.6l-6.1-12.4c-0.1-0.3-0.4-0.5-0.7-0.5h-45.2c-0.3,0-0.6,0.2-0.7,0.4l-6.8,12.4
			c-0.3,0.5,0.1,1.2,0.7,1.2h58.1C190.9,131.8,191.3,131.1,191.1,130.6z M132.4,131c-0.4-0.3,1.9-3.4,2-3.6l-1.6,3.3l2.9,0.3
			C135.6,130.9,132.8,131.3,132.4,131z M183.3,119c-1,0-3.7-0.4-3.7-0.4h4.3l1.3,2.2C184.8,120.2,184,119,183.3,119z"/>
	</g>
	<g>
		<path class="st1" d="M137,115.4L137,115.4L137,115.4z"/>
		<path class="st1" d="M203.2,135.1c-0.1-0.2-0.2-0.5-0.4-0.7s-0.3-0.4-0.5-0.6c-0.4-0.4-1-0.6-1.5-0.6l0,0l-1.5-0.1
			c-0.3,0-0.4,0-0.7-0.1c-0.2,0-0.4-0.1-0.6-0.2l0,0h-0.1c-0.3-0.2-0.5-0.4-0.7-0.6c-0.2-0.2-0.4-0.6-0.5-0.9l-1.1-1.9l-2.2-3.9
			l-4.5-7.7l-1.1-1.9c-0.2-0.3-0.4-0.7-0.7-1s-0.7-0.5-1.1-0.6c-0.4-0.1-0.9-0.1-1.2-0.1h-1.1h-2.2h-8.9c-5.9,0-11.9,0.1-17.8,0.2
			c-3,0-5.9,0.1-8.9,0.1h-4.5h-2.2c-0.8,0-1.5,0.4-2,1.1l-7.6,12.5l-1.9,3.1c-0.2,0.3-0.3,0.5-0.5,0.8c-0.1,0.2-0.3,0.4-0.5,0.6
			c-0.4,0.3-0.8,0.6-1.4,0.7l-1.8,0.2c-0.7,0.1-1.3,0.5-1.7,1c-0.2,0.3-0.3,0.6-0.5,0.8l-0.4,0.8l-0.8,1.6v0.1h0.1
			c3.5,0,7,0,10.5,0.1s7,0.1,10.6,0.2c7.1,0.2,14.2,0.4,21.3,0.4s14.2,0,21.2-0.1l10.5-0.1l10.3-0.2
			C204.1,137,203.7,136,203.2,135.1z M200.6,136.9c-0.5,0.1-3.5,0.2-7.7,0.3l-10.4-0.2c-7-0.1-13.9-0.1-20.8-0.1
			c-6.9,0-13.8,0.2-20.7,0.4c-3.5,0.1-6.9,0.2-10.4,0.2c-3.5,0.1-6.9,0.1-10.4,0.1l0.6-1c2,0.1,18-0.2,18-0.2s-16.4,0-17-0.2
			c-0.4-0.1-0.4-0.4-0.4-0.6l0.2-0.3c0.2-0.3,0.3-0.5,0.5-0.7s0.4-0.4,0.7-0.5c0.5,0,1.3-0.1,2.4-0.2h0.1c0,0,0,0,0.1,0
			c1.1,0,2.5-0.1,4.2-0.1c5.1,0,5.6-0.3,5.6-0.3s-5.2-0.1-7.5-0.3c-0.5,0-1.5,0-1-0.3c0.2-0.1,0.5-0.2,0.9-0.2l0,0l0,0h0.1
			c0.4,0,1,0,1.6,0l0,0c1.2,0,2.6,0,2.6-0.1s-3.1-0.3-4-0.3c0.2-0.3,0.3-0.5,0.5-0.8l1.8-3.2l3.5-6.4c1-1.8,2-3.7,3-5.5
			c0.6-0.7,1.6-1.4,3.1-1.6c1.2-0.2,2.6-0.2,3.8-0.3h2.1c3,0,5.9,0,8.9,0h8.9h4.5l4.5,0.1l7,0.1c2.4,0.1,4.5,0.3,5.7,0.5
			c2,0.3,8.3,13.2,9.9,17.1c-0.9,0-2.2,0.1-2.7,0.2l0,0c-0.2,0-0.3,0.1-0.3,0.1c0,0.1,1.7,0.1,3,0.1h0.1l0,0c1,0.1,1.7,0.2,1.7,0.3
			s-0.7,0.1-1.6,0.2H192l0,0h-10h-26.8v0.1c2.2,0.2,4.5,0.2,6.7,0.3l6.7,0.2c4.5,0.1,8.9,0.1,13.4,0.2c0.8,0,1.5,0,2.3,0
			c-0.3,0-0.2,0,0.3,0c7.6-0.1,4.8,2.7,4.4,2.7C190,136.6,202.8,136.3,200.6,136.9z"/>
	</g>
	<g>
		<path class="st1" d="M129.4,132.8c-0.6,0-1.2,0-1.6,0C128.3,132.8,129,132.8,129.4,132.8z"/>
	</g>
	<g>
		<path class="st1" d="M195.3,133.1c-1,0-2.2,0-3.3,0H195.3z"/>
	</g>
	<g>
		<path class="st1" d="M104.5,110.2c-3.5-1.3-6.3-3.7-8.2-7.1l-1.2,7.2H67.3c-0.3,0.7-0.6,1.3-0.8,2h36.6
			C103.5,111.6,104,110.9,104.5,110.2z"/>
		<path class="st1" d="M93.1,89.9c0-1.3,0.1-2.6,0.2-3.9c-0.9,3.6-3.4,7.3-7.7,11.6H94C93.5,95.3,93.1,92.7,93.1,89.9z"/>
		<path class="st1" d="M99,119.7l-34.3-2.4c-3.2,9.8-5,20.3-5,31.2c0,8.4,1,16.6,3,24.5c10.6-2.6,21.4-4.8,32.2-6.6
			c-1.6-5.7-2.4-11.7-2.4-17.9C92.6,138.1,94.9,128.4,99,119.7z"/>
		<polygon class="st1" points="136.7,234.8 138,234.8 137.4,232.6 		"/>
		<path class="st1" d="M216.4,112.3H253c-0.3-0.7-0.5-1.4-0.8-2h-37.1C215.5,110.9,216,111.6,216.4,112.3z"/>
		<path class="st1" d="M151.4,232.2h-0.6v3.2h0.6c0.5,0,0.9-0.1,1.1-0.4c0.2-0.2,0.3-0.7,0.3-1.3s-0.1-1-0.3-1.3
			C152.3,232.3,151.9,232.2,151.4,232.2z"/>
		<path class="st1" d="M221.1,97.6h11.6v0.2c1.3-1.1,2.5-2.3,4-3.6c1.7-1.6,3.1-3,4.2-4.3c-1.4-2-3-4-4.6-5.8
			c-0.3,0.2-0.7,0.5-1.1,0.8l-2.6,2l-4-11c-0.7-0.6-1.4-1.3-2.1-1.9c1.8,2.4,2.8,5.3,2.8,8.5C229.3,87.4,226.9,92,221.1,97.6z"/>
		<path class="st1" d="M93.8,83.5c0.9-4.2,2.7-7.7,5.4-10.4c3.2-3.2,7.5-5,11.7-5c5.9,0,10.7,2.5,13.9,7.2c2.2,3.1,3.7,8.5,3.7,13.6
			c2.9-1.5,5.8-2.8,8.9-3.9l0.2-34.1c-17.4,3.9-33.2,12.4-45.8,24.2c1.3,2.2,2,4.7,2,7.4C93.8,82.8,93.8,83.1,93.8,83.5z"/>
		<path class="st1" d="M108.6,83.3c-0.5,1.2-0.7,3.1-0.7,6c0,5.5,1.6,8.6,3.1,8.7c0.1,0,0.1,0,0.2,0c0.8,0,1.4-1.1,1.7-2
			c0.4-1.3,0.6-3.4,0.6-6.6c0-4.9-1.6-7.9-3.1-8C109.6,81.4,108.9,82.5,108.6,83.3z"/>
		<path class="st1" d="M186.9,86.9c6.1,2.7,11.6,6.2,16.6,10.5c1.2-1,2.3-2.1,3.6-3.3c2.4-2.2,4.2-4.1,5.5-5.8
			c1-1.2,1.5-2.5,1.6-3.7c0-0.5-0.1-1-0.5-1.4c-0.6-0.6-1.5-0.9-2.5-0.9c-1.5,0-2.6,0.4-5.5,2.6l-2.6,2L199,75.4l1.2-1.1
			c1.9-1.8,3-2.7,4.9-3.7c2.6-1.5,6.1-2.5,9-2.5s5.3,0.5,7.4,1.5c-10.2-8-21.9-14-34.6-17.5l0.2,30.4L186.9,86.9z"/>
		<polygon class="st1" points="176.4,232.6 175.8,234.8 177.1,234.8 		"/>
		<path class="st1" d="M98,227.1c17,13.4,38.4,21.3,61.7,21.3c23.2,0,44.5-7.9,61.4-21.1c-20.6-3.4-41.4-5.2-62.3-5.2
			C138.5,222.2,118.1,223.8,98,227.1z M138.6,237.1l-0.2-0.9h-2.1l-0.3,0.9h-2l2.3-6.5h2.1l2.3,6.5H138.6z M147.5,237.1h-2l-1.8-3
			c-0.1-0.1-0.1-0.2-0.2-0.4c-0.1-0.2-0.1-0.3-0.2-0.6c0,0.1,0,0.2,0,0.4c0,0.1,0,0.3,0,0.5v3.1h-2v-6.5h2l1.8,3
			c0.1,0.1,0.1,0.2,0.2,0.4c0.1,0.2,0.1,0.3,0.2,0.6c0-0.1,0-0.2,0-0.4c0-0.1,0-0.3,0-0.5v-3.1h2V237.1z M154.5,235.7
			c-0.3,0.5-0.7,0.9-1.3,1.1c-0.2,0.1-0.5,0.2-0.8,0.2s-0.8,0.1-1.5,0.1h-2.2v-6.5h2.5c0.6,0,1.1,0,1.4,0.1c0.3,0.1,0.6,0.2,0.8,0.3
			c0.5,0.3,0.8,0.6,1,1.1s0.3,1.1,0.3,1.8C154.9,234.5,154.8,235.2,154.5,235.7z M158.1,237.1H156v-6.5h2.1V237.1z M180.4,230.5h5
			v1.6h-2.8v1h2.3v1.6h-2.3v2.3h-2.1L180.4,230.5L180.4,230.5z M175.4,230.5h2.1l2.3,6.5h-2.1l-0.2-0.9h-2.1l-0.3,0.9H173
			L175.4,230.5z M166.8,230.5h3.1c1,0,1.7,0.1,2.1,0.4c0.4,0.3,0.6,0.8,0.6,1.4c0,0.4-0.1,0.7-0.3,1s-0.4,0.5-0.8,0.6
			c0.4,0.1,0.6,0.2,0.8,0.5c0.2,0.2,0.3,0.6,0.3,1v0.9l0,0c0,0.3,0.1,0.4,0.2,0.4v0.2h-2.1c0-0.2-0.1-0.3-0.1-0.4c0-0.1,0-0.2,0-0.3
			v-0.7c0-0.3-0.1-0.6-0.2-0.7c-0.1-0.1-0.4-0.2-0.7-0.2h-0.9v2.3h-2.1L166.8,230.5L166.8,230.5z M160,231.3
			c0.6-0.6,1.4-0.9,2.5-0.9c0.9,0,1.5,0.2,2.1,0.6c0.5,0.4,0.8,1,0.9,1.8h-2c-0.1-0.3-0.2-0.5-0.4-0.6s-0.4-0.2-0.7-0.2
			c-0.4,0-0.7,0.2-0.9,0.5s-0.3,0.8-0.3,1.4c0,0.6,0.1,1,0.3,1.3s0.5,0.4,1,0.4c0.3,0,0.6-0.1,0.8-0.2s0.3-0.3,0.4-0.6h-0.9v-1.4
			h2.9v3.6h-1.4l-0.1-0.6c-0.2,0.3-0.5,0.4-0.9,0.6c-0.3,0.1-0.7,0.2-1.2,0.2c-0.9,0-1.7-0.3-2.2-0.9c-0.5-0.6-0.8-1.5-0.8-2.5
			C159.1,232.7,159.4,231.9,160,231.3z"/>
		<path class="st1" d="M254.9,117.7l-34.2,2.4c4,8.6,6.2,18.2,6.2,28.3c0,5.8-0.7,11.5-2.1,16.9c10.9,1.6,21.7,3.6,32.3,6
			c1.7-7.4,2.6-15,2.6-22.9C259.8,137.7,258.1,127.3,254.9,117.7z"/>
		<path class="st1" d="M170.5,233.2c0.1-0.1,0.2-0.2,0.2-0.5c0-0.2-0.1-0.4-0.2-0.5c-0.1-0.1-0.4-0.1-0.7-0.1h-0.9v1.2h1
			C170.1,233.3,170.4,233.3,170.5,233.2z"/>
	</g>
</g>
</svg>
