<?xml version="1.0" encoding="utf-8"?>
<!-- Generator: Adobe Illustrator 21.0.0, SVG Export Plug-In . SVG Version: 6.00 Build 0)  -->
<svg version="1.1" id="Capa_1" xmlns="http://www.w3.org/2000/svg" xmlns:xlink="http://www.w3.org/1999/xlink" x="0px" y="0px"
	 viewBox="0 0 738 653" style="enable-background:new 0 0 738 653;" xml:space="preserve">
<style type="text/css">
	.st0{fill:#D9840B;}
	.st1{fill:#302E2F;}
	
		.st2{opacity:0.47;fill:none;stroke:#202020;stroke-width:2;stroke-linecap:round;stroke-linejoin:round;stroke-miterlimit:10;stroke-dasharray:5;}
</style>
<g>
	<g>
		<path class="st0" d="M232.6,603.1c21.5,11.7,53.3,23.7,96.3,27.1c89.2,7,176.5-27.4,238.2-92.1c60.2-63.1,112.8-148.6,149.4-225.9
			C765.9,207.9,711,83.8,600.5,50.4C499.8,19.9,364.7,2.3,227.9,54.6c0,0-145.7,32.1-197.6,165.7c-12.5,32.1-4.3,68.5,20.9,92
			c16.6,15.5,36.1,27.5,48.5,32.4c26.2,10.4,90.8,39.9,83.7,109.6c-5.3,52.3-12.4,64.4-2.4,90.5
			C190.6,569.8,209.1,590.3,232.6,603.1z"/>
		<g>
			<g>
				<path class="st1" d="M395.7,65.7C395.5,65.9,395.4,66.1,395.7,65.7c-0.2,0.3-0.5,0.5-0.7,0.7c-0.2,0.2-0.4,0.3-0.6,0.5
					c-0.1,0.1-0.8,0.6-0.2,0.2c-0.4,0.3-0.9,0.5-1.3,0.7c-0.1,0-1,0.4-0.5,0.2c0.5-0.2-0.6,0.2-0.6,0.2c1.2,2.3,2.4,4.7,3.6,7
					c1-1,1.9-1.9,2.9-2.9c1.5-1.5,1.9-4.1,0.3-5.8c-1.5-1.5-4.2-1.9-5.8-0.3c-1,1-1.9,1.9-2.9,2.9c-1.2,1.2-1.8,3.3-0.9,4.9
					c0.9,1.5,2.7,2.6,4.5,2.1c3.6-1,6.6-3,8.9-6c1.3-1.7,0.6-4.6-1.2-5.7C399.3,63.3,397.1,63.9,395.7,65.7L395.7,65.7z"/>
			</g>
			<g>
				<path class="st1" d="M389.6,89.1c-0.2,0.3-0.5,0.7-0.7,1c0,0-0.4,0.5-0.4,0.5c0.1,0,0.6-0.6,0,0c-0.3,0.3-0.5,0.6-0.8,0.9
					c-0.1,0.1-0.3,0.3-0.4,0.4c-0.2,0.2-0.1,0.1,0.1-0.1c0.7-0.5,1.6-0.6,2.6-0.3c0.6,0.4,1.2,0.8,1.8,1.1c0,0-0.1-0.1-0.1-0.1
					c0.3,0.6,0.6,1.2,1,1.9c-0.3,1.1-0.7,2.2-1,3.4c-0.6,0.3-1.2,0.6-1.9,1c0,0,0.1,0,0.1,0c-0.7,0-1.4-0.1-2.2-0.1c0,0,0.1,0,0.1,0
					c-0.6-0.4-1.2-0.8-1.8-1.1c0,0,0,0.1,0.1,0.1c0.6,0.8,1.9,1.3,2.8,1.3c1,0,2.2-0.3,2.9-1.1c0.8-0.7,1.3-1.7,1.3-2.8
					c0-1.2-0.4-2-1.1-2.9c-0.9-1.2-2.8-1.7-4.1-1.4c-1.4,0.3-2.4,1.2-3,2.4c-1.3,2.8,0.5,6.3,3.7,6.4c3.4,0.1,6-3.4,7.8-5.9
					c1.2-1.8,0.7-4.6-1.2-5.7C393.3,86.8,390.9,87.3,389.6,89.1L389.6,89.1z"/>
			</g>
			<g>
				<path class="st1" d="M373.7,65.5c-0.1,0.3-0.3,0.5-0.5,0.7c-0.1,0.1-0.5,0.6-0.2,0.3c0.4-0.4-0.3,0.3-0.4,0.3
					c-0.5,0.5,0.2-0.1-0.1,0.1c-0.5,0.3-0.9,0.5-1.4,0.7c0.4-0.1,0.4-0.1,0,0c-0.3,0.1-0.7,0.1-1,0.2c1.3,0.4,2.6,0.8,3.9,1.2
					c-0.4-0.4,0.1,0.1,0.2,0.3c0.2,0.4,0.3,0.8,0.3,1.2c0-0.6-0.1,0.2-0.1,0.4c0.2-0.7-0.3,0.6-0.1,0.2c0.1-0.2,0.2-0.6,0-0.1
					c-0.2,0.2-0.2,0.3-0.1,0.1c0.2-0.1,0.1-0.1-0.1,0.1c-0.1,0.1-0.3,0.2-0.5,0.3c-0.3,0.1-0.4,0.1-0.2,0.1c0.2,0,0.2,0-0.2,0
					c-0.3,0.1-0.6,0-0.9-0.1c2.1,0.5,4.5-0.4,5.2-2.6c0.6-2-0.4-4.6-2.6-5.2c-2.8-0.7-5.4,0.2-7.2,2.5c-1.5,1.9-1.9,4.8-0.8,7
					c3.1,6.1,11.3,0.9,13.7-3.2c1.1-1.9,0.8-4.5-1.2-5.7C377.6,63.2,374.9,63.5,373.7,65.5L373.7,65.5z"/>
			</g>
			<g>
				<path class="st1" d="M368.5,96.1c2.4-1.5,4.1-3.5,5.2-6.1c0.8-1.9-0.6-4.7-2.6-5.2c-2-0.5-4.3-0.4-6.1,0.8
					c-0.9,0.6-1.6,1.3-2,2.3c-0.3,1-0.3,2.3,0.3,3.2c1,1.7,3.6,3,5.5,1.7c0.1-0.1,0.3-0.2,0.4-0.3c0.6-0.4-0.6,0.1-0.1,0.1
					c0.5-0.1-0.8-0.1-0.3,0c0.3,0.1,0.9,0.2-0.2-0.1c-0.9-1.7-1.7-3.4-2.6-5.2c-0.2,0.5,0-0.2,0.1-0.3c-0.1,0.1-0.2,0.3-0.2,0.4
					c-0.1,0.1-0.2,0.3-0.3,0.4c-0.1,0.1-0.6,0.7-0.1,0.2c0.4-0.5,0,0-0.1,0.1c-0.1,0.1-0.2,0.2-0.4,0.3c-0.1,0.1-0.3,0.2-0.4,0.3
					c-0.4,0.3,0.9-0.6,0.1-0.1c-1.8,1.1-2.9,3.5-1.7,5.5C364,96.1,366.5,97.3,368.5,96.1L368.5,96.1z"/>
			</g>
			<g>
				<path class="st1" d="M344.5,75c-0.1,1.4-0.1,2.7-0.2,4.1c-0.1,2.1,1.7,4.3,3.9,4.3c2.2,0,4.2-1.6,4.3-3.9
					c0.1-1.4,0.1-2.7,0.2-4.1c0.1-2.1-1.7-4.3-3.9-4.3C346.6,71.1,344.6,72.7,344.5,75L344.5,75z"/>
			</g>
			<g>
				<path class="st1" d="M324.5,78.9c0.2-1.4,1.1-2.7,2.5-3c-0.6,0.1,1.1,0,0.6,0c-0.4,0,1.2,0.3,0.6,0.1c1.4,0.5,2.2,1.8,2.2,3.3
					c0-1.1-0.3-2.1-1.1-2.9c-0.7-0.7-1.8-1.3-2.8-1.3c-2.1,0-4.4,1.6-4.3,3.9c0.1,1.6,0.5,2.9,1.7,3.9c0.9,0.8,2,1.3,3.3,1.3
					c1,0,2.1-0.2,2.9-0.7c1.5-0.9,2.3-2.3,2.5-4c0.3-2.1-1.8-4.3-3.9-4.3C326.4,75,324.8,76.6,324.5,78.9L324.5,78.9z"/>
			</g>
			<g>
				<path class="st1" d="M304.9,90.3c-1.9,0.6-4,1.1-5.6,1.1c0.8,2.4,1.7,4.7,2.5,7.1c1.4-1.3,2.9-2.5,4.3-3.8
					c1.7-1.5,1.8-4.2,0.3-5.8c-1.5-1.7-4.1-1.7-5.8-0.3c-1.4,1.3-2.9,2.5-4.3,3.8c-2.5,2.2-1.1,7.2,2.5,7.1c2.7-0.1,5.2-0.5,7.7-1.3
					c2-0.7,3.7-2.6,3.1-4.9C309.3,91.5,307.1,89.6,304.9,90.3L304.9,90.3z"/>
			</g>
			<g>
				<path class="st1" d="M326.9,100.3c0.1-0.6,0.2-0.7,0-0.3c-0.2,0.4-0.1,0.3,0.2-0.2C327,100,326.9,100.1,326.9,100.3
					C326.6,100.6,326.6,100.6,326.9,100.3c0.1-0.3,0.1-0.3-0.1,0c-0.3,0.3-0.3,0.2,0.2-0.1c-0.2,0.1-0.3,0.2-0.5,0.3
					c0.6-0.2,0.7-0.2,0.2-0.1c1.4,2.1,2.9,4.2,4.3,6.2c0.2-0.4,0.5-0.8,0.8-1.2c0.1-0.2,0.3-0.5,0.5-0.6c-0.1,0.1-0.2,0.2-0.3,0.3
					c0.1-0.1,0.2-0.2,0.3-0.3c0.7-0.7,1.4-1.4,2.2-1.9c1.8-1.2,1.7-4.3,0.3-5.8c-1.7-1.7-3.9-1.6-5.8-0.3c-2,1.4-3.7,3.3-4.9,5.4
					c-0.9,1.4-0.9,3.2,0.1,4.6c0.9,1.3,2.6,2.1,4.2,1.7c3.7-1,6.1-3.9,6.5-7.6c0.3-2.1-1.8-4.3-3.9-4.3
					C328.8,96.4,327.2,98,326.9,100.3L326.9,100.3z"/>
			</g>
			<g>
				<path class="st1" d="M291.3,113.7c-0.3,0.3-0.6,0.6-0.9,0.8c0.6-0.4-0.5,0.2-0.7,0.3c-0.3,0.1-0.2,0.1,0.1,0
					c-0.2,0.1-0.4,0.1-0.6,0.1c-0.2,0-0.4,0.1-0.6,0.1c0.4,0,0.4,0-0.1,0c1.1,2.1,2.2,4.2,3.2,6.3c0.1-0.2,0.3-0.4,0.5-0.6
					c-0.4,0.5,0.1-0.1,0.2-0.2c0.2-0.2,0.4-0.4,0.6-0.5c0.1-0.1,0.8-0.6,0.2-0.2c0.4-0.3,0.9-0.5,1.4-0.7c0.6-0.3-0.1,0,0.3-0.1
					c0.3-0.1,0.6-0.2,0.9-0.2c2.1-0.4,3.7-2.8,3.1-4.9c-0.6-2.2-2.6-3.6-4.9-3.1c-3.8,0.8-7,3-9.2,6.2c-1.7,2.5,0.2,6.3,3.2,6.3
					c3.2,0,6.3-1.1,8.6-3.4c1.5-1.5,1.9-4.1,0.3-5.8C295.6,112.5,292.9,112,291.3,113.7L291.3,113.7z"/>
			</g>
			<g>
				<path class="st1" d="M273.9,127.2c-0.3,5.3,7.9,5.7,8.2,0.4C282.3,122.3,274.2,121.9,273.9,127.2L273.9,127.2z"/>
			</g>
			<g>
				<path class="st1" d="M291.1,136.7c-1.7,1.3-3.4,2.6-5.1,3.8c-1.7,1.3-1.7,4.3-0.3,5.8c1.7,1.7,3.9,1.7,5.8,0.3
					c1.7-1.3,3.4-2.6,5.1-3.8c1.7-1.3,1.7-4.3,0.3-5.8C295.2,135.2,292.9,135.3,291.1,136.7L291.1,136.7z"/>
			</g>
			<g>
				<path class="st1" d="M318,119.8c-2.7-0.8-5.6-0.6-8.1,0.7c-1.9,0.9-2.8,3.6-1.7,5.5c1.1,2,3.5,2.8,5.5,1.7
					c0.2-0.1,0.4-0.2,0.6-0.3c-0.1,0.1-0.3,0.1-0.4,0.2c0.1-0.1,1.4-0.2,0.7-0.2c-0.6,0.1,0.5,0.1,0.6,0c0.3,0,0.2,0-0.3-0.1
					c0.2,0,0.4,0.1,0.6,0.2c2,0.6,4.6-0.4,5.2-2.6C321.2,122.8,320.2,120.4,318,119.8L318,119.8z"/>
			</g>
		</g>
		<path class="st2" d="M396.1,641.9c-7.8,1.1-15.7,1.9-23.6,2.4c-37.5,2.3-72.3-2.4-103.3-14c-27.5-10.3-50.4-29.9-64.4-55.1
			c-11-19.8-11-33.7-11-58.7c0-9.4,0-21.1-0.5-35.7c-1.7-44-32.2-73.4-90.6-87.5c-12.3-3-34.3-11.8-55.9-26.9
			c-31.7-22.1-46.4-60.9-37.6-98.6c13.9-59.3,49.2-112.5,102.1-153.8c37.2-29,70.4-42.6,75.9-44.7C242.4,39,303.4,18.9,368.5,9.7
			c61.1-8.6,126-7.7,192.9,2.6c57.2,8.9,107.6,42.2,138.3,91.4c30.7,49.2,38.4,109.2,21.2,164.5c-17.1,54.9-55.1,159.9-117.8,247.4
			c-24.5,34.2-55.1,62.6-90.8,84.4C476.4,622.1,437.3,636.1,396.1,641.9C396.1,641.9,396.1,641.9,396.1,641.9z"/>
	</g>
	<g>
		<g>
			<path class="st1" d="M359.5,457.2C359.8,457.4,360,457.5,359.5,457.2c0.3,0.2,0.6,0.3,0.9,0.5c0.2,0.1,0.4,0.3,0.6,0.4
				c0.1,0.1,0.7,0.7,0.2,0.2c0.3,0.4,0.7,0.7,1,1.1c0.1,0.1,0.6,0.9,0.3,0.5c-0.3-0.4,0.3,0.5,0.3,0.5c2-1.7,4.1-3.3,6.1-5
				c-1.1-0.7-2.3-1.5-3.4-2.2c-1.8-1.2-4.4-1-5.7,0.9c-1.2,1.8-1,4.5,0.9,5.7c1.1,0.7,2.3,1.5,3.4,2.2c1.5,1,3.6,1.1,5-0.1
				c1.3-1.2,2-3.2,1.1-4.9c-1.7-3.4-4.3-5.9-7.7-7.5c-1.9-0.9-4.6,0.3-5.3,2.3C356.5,454.2,357.5,456.2,359.5,457.2L359.5,457.2z"/>
		</g>
		<g>
			<path class="st1" d="M383.7,458.4c0.4,0.2,0.7,0.3,1.1,0.5c0,0,0.5,0.2,0.5,0.3c0-0.1-0.8-0.4,0,0c0.3,0.2,0.7,0.4,1,0.6
				c0.2,0.1,0.3,0.3,0.5,0.3c0.2,0.1,0.2,0.1-0.1-0.1c-0.7-0.6-0.9-1.4-0.8-2.5c0.3-0.6,0.5-1.3,0.8-1.9c0,0-0.1,0.1-0.1,0.1
				c0.5-0.4,1.1-0.9,1.6-1.3c1.2,0.1,2.3,0.2,3.5,0.3c0.4,0.5,0.9,1.1,1.3,1.6c0,0,0-0.1-0.1-0.1c0.1,0.7,0.2,1.4,0.3,2.1
				c0,0,0-0.1,0-0.1c-0.3,0.6-0.5,1.3-0.8,1.9c0,0,0.1-0.1,0.1-0.1c0.7-0.7,0.9-2.1,0.7-3c-0.2-1-0.8-2.1-1.6-2.7
				c-0.9-0.6-2-1-3-0.7c-1.1,0.2-1.9,0.8-2.7,1.6c-1,1.1-1.1,3-0.5,4.3c0.6,1.3,1.7,2.1,3,2.4c3,0.7,6-1.7,5.5-4.9
				c-0.6-3.4-4.6-5.2-7.4-6.4c-2-0.8-4.6,0.3-5.3,2.3C380.7,455.2,381.6,457.5,383.7,458.4L383.7,458.4z"/>
		</g>
		<g>
			<path class="st1" d="M363.8,478.8c0.3,0.1,0.6,0.2,0.8,0.3c0.1,0,0.7,0.4,0.3,0.1c-0.4-0.3,0.3,0.3,0.4,0.3
				c0.6,0.4-0.1-0.2,0.2,0.1c0.3,0.4,0.7,0.8,1,1.2c-0.2-0.3-0.2-0.3,0,0c0.1,0.3,0.3,0.6,0.4,1c0.1-1.4,0.3-2.7,0.4-4.1
				c-0.3,0.5,0.1-0.1,0.2-0.2c0.3-0.3,0.7-0.4,1.1-0.5c-0.5,0.1,0.2,0,0.4,0c-0.7,0,0.7,0.2,0.2,0.1c-0.2-0.1-0.6-0.1-0.1,0
				c0.3,0.2,0.3,0.2,0.1,0.1c-0.2-0.1-0.1-0.1,0.1,0.1c0.2,0.1,0.3,0.3,0.4,0.4c0.2,0.3,0.2,0.3,0.1,0.1c-0.1-0.2-0.1-0.1,0,0.2
				c0.1,0.3,0.2,0.6,0.1,0.9c0.1-2.1-1.3-4.4-3.6-4.5c-2.1-0.1-4.4,1.3-4.5,3.6c-0.2,2.9,1.3,5.3,3.9,6.5c2.2,1.1,5,0.9,7-0.7
				c5.3-4.2-1.4-11.3-5.9-12.7c-2-0.7-4.6,0.2-5.3,2.3C360.8,475.5,361.6,478.1,363.8,478.8L363.8,478.8z"/>
		</g>
		<g>
			<path class="st1" d="M394.8,477.7c-2-2-4.2-3.3-7-3.8c-2.1-0.4-4.4,1.5-4.5,3.6c-0.1,2.1,0.4,4.3,2,5.8c0.8,0.8,1.6,1.3,2.7,1.5
				c1,0.1,2.3-0.2,3.1-0.9c1.5-1.3,2.2-4.2,0.6-5.8c-0.1-0.1-0.2-0.2-0.4-0.4c-0.5-0.5,0.3,0.6,0.1,0.1c-0.2-0.5,0.1,0.8,0.1,0.3
				c0-0.3,0-0.9,0,0.2c-1.5,1.2-3,2.4-4.5,3.6c0.6,0.1-0.2,0-0.3-0.1c0.1,0.1,0.3,0.1,0.5,0.2c0.2,0.1,0.3,0.1,0.5,0.2
				c0.1,0.1,0.8,0.4,0.2,0.1c-0.6-0.3,0,0,0.1,0.1c0.1,0.1,0.3,0.2,0.4,0.3c0.1,0.1,0.3,0.2,0.4,0.3c0.4,0.3-0.7-0.7-0.1-0.1
				c1.5,1.5,4,2.1,5.8,0.6C395.8,482.1,396.4,479.3,394.8,477.7L394.8,477.7z"/>
		</g>
		<g>
			<path class="st1" d="M379.1,505.4c1.3-0.2,2.7-0.4,4-0.6c2.1-0.3,3.8-2.5,3.4-4.7c-0.4-2.2-2.4-3.8-4.7-3.4
				c-1.3,0.2-2.7,0.4-4,0.6c-2.1,0.3-3.8,2.5-3.4,4.7C374.8,504.2,376.8,505.8,379.1,505.4L379.1,505.4z"/>
		</g>
		<g>
			<path class="st1" d="M387,524.3c-1.4,0.1-2.9-0.5-3.5-1.9c0.2,0.5-0.2-1-0.2-0.6c0,0.4,0.1-1.2,0-0.6c0.2-1.5,1.3-2.5,2.8-2.9
				c-1.1,0.3-2,0.7-2.7,1.6c-0.6,0.8-0.9,2-0.7,3c0.4,2,2.5,4,4.7,3.4c1.5-0.4,2.7-1.1,3.5-2.4c0.6-1.1,0.8-2.2,0.6-3.5
				c-0.2-1-0.6-2-1.3-2.7c-1.2-1.3-2.7-1.7-4.4-1.6c-2.1,0.1-3.8,2.6-3.4,4.7C382.8,523.2,384.7,524.4,387,524.3L387,524.3z"/>
		</g>
		<g>
			<path class="st1" d="M402.2,541c1,1.7,1.9,3.7,2.2,5.2c2.2-1.3,4.3-2.6,6.5-3.9c-1.5-1.2-3-2.3-4.6-3.5c-1.8-1.3-4.4-0.9-5.7,0.9
				c-1.3,1.8-0.9,4.4,0.9,5.7c1.5,1.2,3,2.3,4.6,3.5c2.7,2,7.3-0.4,6.5-3.9c-0.6-2.6-1.5-5-2.9-7.3c-1.1-1.8-3.3-3.1-5.4-2
				C402.4,536.5,401,539.1,402.2,541L402.2,541z"/>
		</g>
		<g>
			<path class="st1" d="M407.5,517.5c-0.6,0-0.7,0-0.3,0c0.4,0.1,0.4,0-0.2-0.1C407.1,517.5,407.3,517.6,407.5,517.5
				C407.8,517.8,407.8,517.8,407.5,517.5c-0.3-0.1-0.3-0.1,0,0.1c0.3,0.3,0.3,0.2-0.2-0.2c0.1,0.1,0.2,0.3,0.3,0.4
				c-0.3-0.5-0.4-0.6-0.2-0.2c1.7-1.8,3.5-3.7,5.2-5.5c-0.4-0.2-0.9-0.3-1.3-0.5c-0.2-0.1-0.5-0.2-0.7-0.3c0.1,0.1,0.2,0.1,0.4,0.2
				c-0.1-0.1-0.3-0.2-0.4-0.2c-0.8-0.5-1.6-1.1-2.4-1.8c-1.6-1.5-4.6-0.8-5.7,0.9c-1.3,2-0.8,4.2,0.9,5.7c1.8,1.6,4,2.9,6.2,3.7
				c1.6,0.5,3.3,0.2,4.4-1c1.1-1.1,1.5-3,0.8-4.5c-1.7-3.4-5-5.1-8.8-4.9c-2.1,0.2-3.8,2.6-3.4,4.7
				C403.3,516.4,405.2,517.7,407.5,517.5L407.5,517.5z"/>
		</g>
		<g>
			<path class="st1" d="M427.8,549.6c0.3,0.2,0.7,0.4,1,0.7c-0.5-0.5,0.3,0.4,0.4,0.6c0.2,0.2,0.2,0.2,0-0.1
				c0.1,0.2,0.2,0.3,0.3,0.5c0.1,0.2,0.2,0.4,0.2,0.5c-0.1-0.4-0.1-0.4,0,0.1c1.8-1.5,3.7-3,5.5-4.4c-0.2-0.1-0.5-0.2-0.7-0.3
				c0.6,0.3-0.1-0.1-0.3-0.2c-0.2-0.1-0.4-0.3-0.6-0.5c-0.1-0.1-0.7-0.7-0.3-0.2c-0.4-0.4-0.7-0.8-1-1.2c-0.4-0.6,0,0.1-0.2-0.3
				c-0.1-0.3-0.3-0.6-0.4-0.9c-0.9-2-3.5-3-5.4-2c-2,1-3,3.3-2,5.4c1.6,3.5,4.4,6.2,7.9,7.7c2.8,1.2,6.1-1.4,5.5-4.4
				c-0.6-3.1-2.4-6-5.1-7.7c-1.8-1.2-4.4-1-5.7,0.9C425.7,545.7,425.8,548.4,427.8,549.6L427.8,549.6z"/>
		</g>
		<g>
			<path class="st1" d="M444.6,563.9c5.2-0.8,3.9-8.9-1.3-8.1C438.1,556.6,439.4,564.7,444.6,563.9L444.6,563.9z"/>
		</g>
		<g>
			<path class="st1" d="M450.3,545.2c1.6,1.4,3.2,2.8,4.8,4.2c1.6,1.4,4.6,0.8,5.7-0.9c1.3-2,0.8-4.2-0.9-5.7
				c-1.6-1.4-3.2-2.8-4.8-4.2c-1.6-1.4-4.6-0.8-5.7,0.9C448.1,541.5,448.6,543.7,450.3,545.2L450.3,545.2z"/>
		</g>
		<g>
			<path class="st1" d="M428.3,522.3c-0.2,2.9,0.6,5.6,2.3,7.8c1.3,1.7,4.1,2,5.8,0.6c1.7-1.5,2-4,0.6-5.8c-0.1-0.2-0.3-0.3-0.4-0.5
				c0.1,0.1,0.2,0.2,0.2,0.4c-0.1-0.1-0.5-1.3-0.3-0.7c0.2,0.6,0-0.5-0.1-0.6c0-0.3,0-0.2,0,0.3c0-0.2,0-0.4,0-0.6
				c0.2-2.1-1.4-4.4-3.6-4.5C430.7,518.6,428.5,520,428.3,522.3L428.3,522.3z"/>
		</g>
	</g>
</g>
</svg>
