<?xml version="1.0" encoding="utf-8"?>
<!-- Generator: Adobe Illustrator 21.0.0, SVG Export Plug-In . SVG Version: 6.00 Build 0)  -->
<svg version="1.1" id="Capa_1" xmlns="http://www.w3.org/2000/svg" xmlns:xlink="http://www.w3.org/1999/xlink" x="0px" y="0px"
	 viewBox="0 0 592 618.1" style="enable-background:new 0 0 592 618.1;" xml:space="preserve">
<style type="text/css">
	.st0{fill:#F2A338;}
	.st1{fill:#1A191A;}
	
		.st2{opacity:0.47;fill:none;stroke:#1A191A;stroke-width:2;stroke-linecap:round;stroke-linejoin:round;stroke-miterlimit:10;stroke-dasharray:5;}
</style>
<g>
	<path class="st0" d="M303.4,13.6c0,0-98.2-4.6-151.1,118c-46.4,81.1-83.3,83-102.7,97.2c-19.4,14.1-83.2,106.5-17.2,211.6
		c51.6,78.6,149.4,79,198.8,123.5c41,37,170.2,86.3,245.6,33.2c77.8-54.8,111.9-110.3,37.2-241.4c-17.9-46.3-20.7-78.2-6-107.8
		S542.5,21.4,303.4,13.6z"/>
	<g>
		<path class="st1" d="M402.8,465.6c-0.4-1.5-1.9-2.8-3.6-2.4c-1.9,0.5-3.2,2-3.3,4c0,0.8,0.1,1.6,0.4,2.3c0.5,1,1.3,1.6,2.3,2.1
			c0.6,0.3,1.7,0.1,2.3-0.2c0.7-0.3,1.3-1,1.5-1.8c0.2-0.6,0.2-1.3,0-2C402.8,467.1,402.9,466.3,402.8,465.6z M400.4,469.2
			c0.2-0.1,0.4-0.1,0.5-0.2C400.8,469,400.6,469.1,400.4,469.2z"/>
		<path class="st1" d="M408.4,480.1c-0.6,0-1.2,0.1-1.8,0.3c-0.6,0.3-0.9,0.7-1.4,1.2c-0.5,0.5-0.6,1.6-0.4,2.2
			c0.1,0.4,0.3,0.8,0.5,1.1c0,1,0.5,2,1.4,2.5c1.5,0.9,3.2,0.5,4.2-0.9c1.1-1.5,1.5-3.7,0.1-5.2
			C410.3,480.6,409.4,480.1,408.4,480.1z"/>
		<path class="st1" d="M423.3,460.8c-0.6-1.1-1.7-2-3-2c-1.1-0.1-2.2,0.5-2.8,1.3c-0.2,0.1-0.3,0.2-0.5,0.4c-0.8,0.8-1.2,1.8-1,2.9
			c0.2,1,1,2,2,2.3c1.2,0.3,2.4,0.4,3.6-0.2C423.3,464.6,424.2,462.5,423.3,460.8z"/>
		<path class="st1" d="M429.5,485.1c1.2-0.4,2.2-0.9,2.9-2c0.7-1,0.8-2.2,0.7-3.4c-0.1-1.1-1.1-1.9-2-2.3c-1.5-0.7-3.2-1.1-4.8-1.3
			c-1.6-0.2-3.2,1.3-3.2,2.9c0,1.7,1.2,3,2.9,3.2c0,0,0,0,0,0C425.9,483.8,427.7,485.6,429.5,485.1z"/>
		<path class="st1" d="M431.7,496.5c-0.7-0.4-1.5-0.6-2.3-0.5c-1.7,0.4-2.6,1.9-2.4,3.6c0.2,1.3,1.3,2.4,2.5,2.9
			c1.3,0.4,2.7,0.1,3.7-0.8c1.2-1.1,1.4-3.1,0.2-4.3C433,497,432.4,496.7,431.7,496.5z"/>
		<path class="st1" d="M452.6,486.5c-0.6,0-1.1,0-1.7-0.1c-1.6-0.1-3.2,1.2-3.2,2.9c0,1.6,1.2,3.1,2.9,3.2c0.6,0,1.1,0,1.7,0.1
			c1.6,0.1,3.2-1.2,3.2-2.9C455.5,488.1,454.3,486.6,452.6,486.5z"/>
		<path class="st1" d="M448.4,474.8c1.6-1.5,2.3-4.6,0.4-6.2c-0.2-0.2-0.4-0.3-0.6-0.4c-0.2-0.4-0.5-0.7-0.9-1.1
			c-1.9-1.6-5-1.3-6.8,0.3c-2.4,2.1-0.4,6.2,1.8,7.8C444.2,476.6,446.7,476.4,448.4,474.8z"/>
		<path class="st1" d="M464.7,462.7c-0.8-1.5-2.5-2-4.1-1.4c-0.6,0.3-1.2,0.5-1.8,0.8c-1.5,0.6-2.1,2.7-1.4,4.1
			c0.8,1.5,2.5,2,4.1,1.4c0.6-0.3,1.2-0.5,1.8-0.8C464.8,466.1,465.5,464,464.7,462.7z"/>
		<path class="st1" d="M451.6,507.9c-0.6-0.3-1.1-0.6-1.7-0.9c-1.4-0.8-3.3-0.6-4.2,0.9c-0.8,1.3-0.6,3.4,0.9,4.2
			c0.6,0.3,1.1,0.6,1.7,0.9c1.4,0.8,3.3,0.6,4.2-0.9C453.3,510.7,453.1,508.7,451.6,507.9z"/>
		<path class="st1" d="M443.7,454.1c0.4-0.5,0.5-1.2,0.5-1.8c1-0.9,1.5-2.3,0.8-3.6c-0.7-1.3-2.6-2.2-4.1-1.4c-1.7,1-3.2,2.4-4,4.2
			c-0.4,0.9-0.6,1.7-0.3,2.6c0.3,0.8,1,1.7,1.9,1.9C440.6,456.5,442.4,455.9,443.7,454.1z"/>
	</g>
	<g>
		<path class="st1" d="M91.8,386.6c-0.4-1.5-1.9-2.8-3.6-2.4c-1.9,0.5-3.2,2-3.3,4c0,0.8,0.1,1.6,0.4,2.3c0.5,1,1.3,1.6,2.3,2.1
			c0.6,0.3,1.7,0.1,2.3-0.2c0.7-0.3,1.3-1,1.5-1.8c0.2-0.6,0.2-1.3,0-2C91.8,388.1,91.9,387.3,91.8,386.6z M89.4,390.2
			c0.2-0.1,0.4-0.1,0.5-0.2C89.8,390,89.6,390.1,89.4,390.2z"/>
		<path class="st1" d="M97.4,401.1c-0.6,0-1.2,0.1-1.8,0.3c-0.6,0.3-0.9,0.7-1.4,1.2c-0.5,0.5-0.6,1.6-0.4,2.2
			c0.1,0.4,0.3,0.8,0.5,1.1c0,1,0.5,2,1.4,2.5c1.5,0.9,3.2,0.5,4.2-0.9c1.1-1.5,1.5-3.7,0.1-5.2C99.3,401.6,98.4,401.1,97.4,401.1z"
			/>
		<path class="st1" d="M112.3,381.8c-0.6-1.1-1.7-2-3-2c-1.1-0.1-2.2,0.5-2.8,1.3c-0.2,0.1-0.3,0.2-0.5,0.4c-0.8,0.8-1.2,1.8-1,2.9
			c0.2,1,1,2,2,2.3c1.2,0.3,2.4,0.4,3.6-0.2C112.3,385.6,113.2,383.5,112.3,381.8z"/>
		<path class="st1" d="M118.5,406.1c1.2-0.4,2.2-0.9,2.9-2c0.7-1,0.8-2.2,0.7-3.4c-0.1-1.1-1.1-1.9-2-2.3c-1.5-0.7-3.2-1.1-4.8-1.3
			c-1.6-0.2-3.2,1.3-3.2,2.9c0,1.7,1.2,3,2.9,3.2c0,0,0,0,0,0C114.9,404.8,116.7,406.6,118.5,406.1z"/>
		<path class="st1" d="M120.7,417.5c-0.7-0.4-1.5-0.6-2.3-0.5c-1.7,0.4-2.6,1.9-2.4,3.6c0.2,1.3,1.3,2.4,2.5,2.9
			c1.3,0.4,2.7,0.1,3.7-0.8c1.2-1.1,1.4-3.1,0.2-4.3C122,418,121.4,417.7,120.7,417.5z"/>
		<path class="st1" d="M141.6,407.5c-0.6,0-1.1,0-1.7-0.1c-1.6-0.1-3.2,1.2-3.2,2.9c0,1.6,1.2,3.1,2.9,3.2c0.6,0,1.1,0,1.7,0.1
			c1.6,0.1,3.2-1.2,3.2-2.9C144.5,409.1,143.3,407.6,141.6,407.5z"/>
		<path class="st1" d="M137.4,395.8c1.6-1.5,2.3-4.6,0.4-6.2c-0.2-0.2-0.4-0.3-0.6-0.4c-0.2-0.4-0.5-0.7-0.9-1.1
			c-1.9-1.6-5-1.3-6.8,0.3c-2.4,2.1-0.4,6.2,1.8,7.8C133.2,397.6,135.7,397.4,137.4,395.8z"/>
		<path class="st1" d="M153.7,383.7c-0.8-1.5-2.5-2-4.1-1.4c-0.6,0.3-1.2,0.5-1.8,0.8c-1.5,0.6-2.1,2.7-1.4,4.1
			c0.8,1.5,2.5,2,4.1,1.4c0.6-0.3,1.2-0.5,1.8-0.8C153.8,387.1,154.5,385,153.7,383.7z"/>
		<path class="st1" d="M140.6,428.9c-0.6-0.3-1.1-0.6-1.7-0.9c-1.4-0.8-3.3-0.6-4.2,0.9c-0.8,1.3-0.6,3.4,0.9,4.2
			c0.6,0.3,1.1,0.6,1.7,0.9c1.4,0.8,3.3,0.6,4.2-0.9C142.3,431.7,142.1,429.7,140.6,428.9z"/>
		<path class="st1" d="M132.7,375.1c0.4-0.5,0.5-1.2,0.5-1.8c1-0.9,1.5-2.3,0.8-3.6c-0.7-1.3-2.6-2.2-4.1-1.4c-1.7,1-3.2,2.4-4,4.2
			c-0.4,0.9-0.6,1.7-0.3,2.6c0.3,0.8,1,1.7,1.9,1.9C129.6,377.5,131.4,376.9,132.7,375.1z"/>
	</g>
	<g>
		<path class="st1" d="M362.8,87.6c-0.4-1.5-1.9-2.8-3.6-2.4c-1.9,0.5-3.2,2-3.3,4c0,0.8,0.1,1.6,0.4,2.3c0.5,1,1.3,1.6,2.3,2.1
			c0.6,0.3,1.7,0.1,2.3-0.2c0.7-0.3,1.3-1,1.5-1.8c0.2-0.6,0.2-1.3,0-2C362.8,89.1,362.9,88.3,362.8,87.6z M360.4,91.2
			c0.2-0.1,0.4-0.1,0.5-0.2C360.8,91,360.6,91.1,360.4,91.2z"/>
		<path class="st1" d="M368.4,102.1c-0.6,0-1.2,0.1-1.8,0.3c-0.6,0.3-0.9,0.7-1.4,1.2c-0.5,0.5-0.6,1.6-0.4,2.2
			c0.1,0.4,0.3,0.8,0.5,1.1c0,1,0.5,2,1.4,2.5c1.5,0.9,3.2,0.5,4.2-0.9c1.1-1.5,1.5-3.7,0.1-5.2
			C370.3,102.6,369.4,102.1,368.4,102.1z"/>
		<path class="st1" d="M383.3,82.8c-0.6-1.1-1.7-2-3-2c-1.1-0.1-2.2,0.5-2.8,1.3c-0.2,0.1-0.3,0.2-0.5,0.4c-0.8,0.8-1.2,1.8-1,2.9
			c0.2,1,1,2,2,2.3c1.2,0.3,2.4,0.4,3.6-0.2C383.3,86.6,384.2,84.5,383.3,82.8z"/>
		<path class="st1" d="M389.5,107.1c1.2-0.4,2.2-0.9,2.9-2c0.7-1,0.8-2.2,0.7-3.4c-0.1-1.1-1.1-1.9-2-2.3c-1.5-0.7-3.2-1.1-4.8-1.3
			c-1.6-0.2-3.2,1.3-3.2,2.9c0,1.7,1.2,3,2.9,3.2c0,0,0,0,0,0C385.9,105.8,387.7,107.6,389.5,107.1z"/>
		<path class="st1" d="M391.7,118.5c-0.7-0.4-1.5-0.6-2.3-0.5c-1.7,0.4-2.6,1.9-2.4,3.6c0.2,1.3,1.3,2.4,2.5,2.9
			c1.3,0.4,2.7,0.1,3.7-0.8c1.2-1.1,1.4-3.1,0.2-4.3C393,119,392.4,118.7,391.7,118.5z"/>
		<path class="st1" d="M412.6,108.5c-0.6,0-1.1,0-1.7-0.1c-1.6-0.1-3.2,1.2-3.2,2.9c0,1.6,1.2,3.1,2.9,3.2c0.6,0,1.1,0,1.7,0.1
			c1.6,0.1,3.2-1.2,3.2-2.9C415.5,110.1,414.3,108.6,412.6,108.5z"/>
		<path class="st1" d="M408.4,96.8c1.6-1.5,2.3-4.6,0.4-6.2c-0.2-0.2-0.4-0.3-0.6-0.4c-0.2-0.4-0.5-0.7-0.9-1.1
			c-1.9-1.6-5-1.3-6.8,0.3c-2.4,2.1-0.4,6.2,1.8,7.8C404.2,98.6,406.7,98.4,408.4,96.8z"/>
		<path class="st1" d="M424.7,84.7c-0.8-1.5-2.5-2-4.1-1.4c-0.6,0.3-1.2,0.5-1.8,0.8c-1.5,0.6-2.1,2.7-1.4,4.1
			c0.8,1.5,2.5,2,4.1,1.4c0.6-0.3,1.2-0.5,1.8-0.8C424.8,88.1,425.5,86,424.7,84.7z"/>
		<path class="st1" d="M411.6,129.9c-0.6-0.3-1.1-0.6-1.7-0.9c-1.4-0.8-3.3-0.6-4.2,0.9c-0.8,1.3-0.6,3.4,0.9,4.2
			c0.6,0.3,1.1,0.6,1.7,0.9c1.4,0.8,3.3,0.6,4.2-0.9C413.3,132.7,413.1,130.7,411.6,129.9z"/>
		<path class="st1" d="M403.7,76.1c0.4-0.5,0.5-1.2,0.5-1.8c1-0.9,1.5-2.3,0.8-3.6c-0.7-1.3-2.6-2.2-4.1-1.4c-1.7,1-3.2,2.4-4,4.2
			c-0.4,0.9-0.6,1.7-0.3,2.6c0.3,0.8,1,1.7,1.9,1.9C400.6,78.5,402.4,77.9,403.7,76.1z"/>
	</g>
	<path class="st2" d="M437.8,610.7c-38.8,5.6-76.1,0.4-100.6-5c-30.4-6.7-58-17.3-75.6-29.1c-20.4-13.7-48-20.2-77.3-27.1
		c-46.6-11-99.3-23.5-139.1-68.4l-0.1-0.2c-45.2-53.2-49.7-107-45.6-142.8c4.9-41.7,22.8-72.9,32.9-82.8c4.4-4.3,9.6-7.8,15.1-11.6
		c18.8-12.9,44.5-30.6,70.1-95.3c14.2-52.4,40.1-92.3,77-118.4c28.8-20.4,55-25.5,62.3-26.6c1-0.1,1.6-0.2,1.8-0.2
		c49.9-5.6,93.6-1.8,129.9,11.3c31.3,11.2,57.2,29.3,77.1,53.8c45.1,55.4,46.6,129.1,39.6,150.5c-8.9,27.3-3.1,55.5,20.3,97.2
		c45.7,58.8,65.1,106.1,61.2,148.8c-4.2,45.4-35.1,80.2-64.9,108.3C500.8,593,472.5,605.7,437.8,610.7
		C437.8,610.7,437.8,610.7,437.8,610.7z"/>
</g>
</svg>
