<?xml version="1.0" encoding="utf-8"?>
<!-- Generator: Adobe Illustrator 21.0.0, SVG Export Plug-In . SVG Version: 6.00 Build 0)  -->
<svg version="1.0" id="Capa_1" xmlns="http://www.w3.org/2000/svg" xmlns:xlink="http://www.w3.org/1999/xlink" x="0px" y="0px"
	 viewBox="0 0 719.4 618.1" style="enable-background:new 0 0 719.4 618.1;" xml:space="preserve">
<style type="text/css">
	.st0{opacity:0.53;fill:#7F8080;}
</style>
<path class="st0" d="M215.1,589.1c21.5,11.7,53.3,23.7,96.3,27.1c89.2,7,176.5-27.4,238.2-92.1c60.2-63.1,112.8-148.6,149.4-225.9
	C748.4,193.9,693.5,69.9,583,36.4C482.3,5.9,347.2-11.7,210.4,40.6c0,0-145.7,32.1-197.6,165.7c-12.5,32.1-4.3,68.5,20.9,92
	c16.6,15.5,36.1,27.5,48.5,32.4c26.2,10.4,90.8,39.9,83.7,109.6c-5.3,52.3-12.4,64.4-2.4,90.5C173.1,555.8,191.6,576.3,215.1,589.1z
	"/>
</svg>
