<?xml version="1.0" encoding="utf-8"?>
<!-- Generator: Adobe Illustrator 21.0.0, SVG Export Plug-In . SVG Version: 6.00 Build 0)  -->
<svg version="1.0" id="Layer_1" xmlns="http://www.w3.org/2000/svg" xmlns:xlink="http://www.w3.org/1999/xlink" x="0px" y="0px"
	 viewBox="0 0 416 416" style="enable-background:new 0 0 416 416;" xml:space="preserve">
<style type="text/css">
	.st0{fill:#E30613;}
</style>
<g>
	<g>
		<path class="st0" d="M52,319.1c5.6,0,10-0.1,14.7,2.2c4.6,2.3,6.9,5.5,6.9,10c0,5.8-4.8,8.3-11.1,9.8c9,0.9,15.1,6.5,15.1,13.2
			c0,4.8-2.5,8.8-7.4,12c-5.7,3.6-11.2,3.7-18.6,3.7H20.7v-0.2c5.1-2.4,4.4-6.7,4.4-10.8V330c0-4,0.7-8.4-4.4-10.7v-0.2H52z
			 M43.3,339.2c0.7,0.2,3.2,0.3,3.9,0.3c5,0,7.7-4,7.7-7.3c0-3-2.1-6-6.6-6c-1,0-3.9,0.2-4.9,0.5V339.2z M43.3,361.7
			c1.6,0.8,4.6,0.9,6.5,0.9c6.8,0,9.5-4.2,9.5-8.7c0-5.9-3.7-8.5-11.6-8.5h-4.4V361.7z"/>
		<path class="st0" d="M96.3,354.5l-2.1,5.2c-0.6,1.5-1.6,3.9-1.6,5.6c0,2.2,1.6,3.2,3.2,4.3v0.2H77.4v-0.2c3.4-2.7,4.6-4.9,6.2-8.9
			L96,329.9c0.5-1.5,2-4.6,2-6.2c0-2.1-1.6-3.5-3.4-4.5v-0.2h22l17,39.8c2.2,4.9,2.6,6.7,7.7,10.8v0.2h-27.1v-0.2
			c2.1-1.2,3.7-2.2,3.7-4.7c0-1.3-0.2-1.7-0.7-2.9l-3-7.5H96.3z M104.9,332.1L104.9,332.1l-6,15.2h12.2L104.9,332.1z"/>
		<path class="st0" d="M151.2,370.9L133,326c-1.1-2.7-2.1-4.8-4.4-6.7v-0.2h20.3v0.2l-0.1,0.4c0,2.2,2,6.6,2.8,8.7l11.4,28.4
			l10.6-28c0.5-1.4,1.3-3,1.3-4.5c0-2.5-1.7-3.9-3.9-5.1v-0.2h16.1v0.2l-20.7,51.6H151.2z"/>
		<path class="st0" d="M197.8,354.5l-2.2,5.2c-0.6,1.5-1.6,3.9-1.6,5.6c0,2.2,1.6,3.2,3.2,4.3v0.2h-18.4v-0.2
			c3.4-2.7,4.6-4.9,6.2-8.9l12.4-30.8c0.5-1.5,2-4.6,2-6.2c0-2.1-1.6-3.5-3.4-4.5v-0.2h22l17,39.8c2.1,4.9,2.6,6.7,7.7,10.8v0.2
			h-27.1v-0.2c2.1-1.2,3.7-2.2,3.7-4.7c0-1.3-0.2-1.7-0.7-2.9l-3-7.5H197.8z M206.4,332.1L206.4,332.1l-6,15.2h12.2L206.4,332.1z"/>
		<path class="st0" d="M266.1,358.8c0,4-0.6,8.4,3.8,10.8v0.2h-24.2v-0.2c4.4-2.4,3.8-6.8,3.8-10.8v-28.7c0-4,0.6-8.4-3.8-10.8v-0.2
			h26.6c4.4,0,8-0.1,12,1.8c5.3,2.5,8,6.6,8,11.7c0,5.8-4.8,10-10.7,12.2l10.7,15.4c2.4,3.5,5,6.7,8.6,9.3l-12.4,0.7
			c-6,0.3-8.9-0.4-12-5.2l-10.4-16.8V358.8z M266.1,326.5V344c5.6-0.8,9.7-4.9,9.7-9.8c0-2.5-1.2-5.1-3.6-6.6
			c-1.5-0.9-3.4-1.1-5.2-1.1H266.1z"/>
		<path class="st0" d="M323.8,358.9c0,4-0.6,8.3,3.8,10.7v0.2h-24.1v-0.2c4.4-2.4,3.8-6.7,3.8-10.7v-28.8c0-4,0.6-8.4-3.8-10.8v-0.2
			h24.1v0.2c-4.4,2.4-3.8,6.8-3.8,10.8V358.9z"/>
		<path class="st0" d="M350.4,354.5l-2.2,5.2c-0.6,1.5-1.6,3.9-1.6,5.6c0,2.2,1.6,3.2,3.2,4.3v0.2h-18.4v-0.2
			c3.4-2.7,4.6-4.9,6.2-8.9l12.4-30.8c0.5-1.5,2-4.6,2-6.2c0-2.1-1.6-3.5-3.4-4.5v-0.2h22l16.9,39.8c2.2,4.9,2.6,6.7,7.7,10.8v0.2
			h-27.1v-0.2c2.1-1.2,3.7-2.2,3.7-4.7c0-1.3-0.2-1.7-0.7-2.9l-3-7.5H350.4z M359,332.1L359,332.1l-6,15.2h12.2L359,332.1z"/>
	</g>
	<g>
		<path class="st0" d="M303.6,201.7c3-1.2,38-13,38-30c0-23.4-75.6-45.1-75.6-45.1l-61.7,30.3c-22-14.3-46.8-24.8-73.4-30.3
			L50,167.9c27.6,0,53.2,8.6,74.3,23.3l0,79.9c-22.6,10.3-47.8,16.1-74.3,16.1v2.4c0,0,141.9,0,211.4,0c66.1,0,98-26,98-40.9
			C359.5,233.8,346.2,218.9,303.6,201.7z M204.5,167.5c0,0,50.2,4.3,50.2,26.9c0,16.9-50.2,23.6-50.2,23.6V167.5z M204.5,276.3
			v-50.5c0,0,70.4,11.3,70.4,39.9C274.9,294.3,204.5,276.3,204.5,276.3z"/>
		<path class="st0" d="M233,107.9l-6-55l0.8,0c3.2,0,5.8-2.6,5.8-5.8V45l-52.1,0c-3.7,0-6.8,2.9-7.1,6.5h-8.6c-3.8,0-6.9,3.1-6.9,7
			l-0.2,19.2c0-3.6,2.9-6.6,6.5-6.6h13l3.8,3.7h-16.8l0,2.8c0,3.6,2.9,6.5,6.5,6.5h9.8l-2.7,22.9c-1.1,8.7-8.6,15.5-17.6,15.5
			c-3.3,0-6.4-0.9-9-2.5l0,0c8.6,6.9,19.5,11,31.4,11c7.4,0,16.2-2.3,20.7-4.4c4.3,2.2,13.3,4.4,20.7,4.4c11.9,0,22.8-4.1,31.4-11
			c-2.2,1.1-4.7,1.8-7.4,1.8C240.9,121.8,234.1,115.7,233,107.9z M191.3,63.9c-3.3,0-5.9-2.6-6-5.9h11.9
			C197.2,61.3,194.6,63.9,191.3,63.9z M256.4,120C256.4,120,256.4,120,256.4,120L256.4,120C256.5,120,256.4,120,256.4,120z"/>
	</g>
</g>
</svg>
