<?xml version="1.0" encoding="utf-8"?>
<!-- Generator: Adobe Illustrator 21.0.0, SVG Export Plug-In . SVG Version: 6.00 Build 0)  -->
<svg version="1.0" id="Capa_1" xmlns="http://www.w3.org/2000/svg" xmlns:xlink="http://www.w3.org/1999/xlink" x="0px" y="0px"
	 viewBox="0 0 256.5 256.5" style="enable-background:new 0 0 256.5 256.5;" xml:space="preserve">
<style type="text/css">
	.st0{fill:#F4A538;}
</style>
<g>
	<g>
		<path class="st0" d="M25.3,186.7c1.6-0.2,2.9-0.3,3.7-0.3c3.3-0.3,6.7-0.5,9.8-0.6h5c5.1,0,11.3,1,16.1,2.6
			c11.7,3.8,18.6,14,18.6,27.1c0,9.3-5,18.4-12.6,23.1c-5,3.1-12.9,4.7-22.9,4.7c-5.7,0-10.9-0.3-17.7-1V186.7z M40.5,231.3
			c0.5,0,0.9,0.1,1.2,0.1c0.9,0.2,1.8,0.2,2.8,0.2H46c10.1,0,16.4-6.2,16.4-16.2c0-6-3.3-11.9-8.2-14.8c-3.4-2-6.7-2.7-12.5-2.7
			h-1.1V231.3z"/>
		<path class="st0" d="M82.5,186.9c8.8-1,12.9-1.3,18.7-1.3c15.2,0,23.5,5.4,23.5,15.3c0,5.4-2.3,8.8-8,11.8c7,2,10.9,7,10.9,14.1
			c0,7.2-4.4,12.6-12.2,14.9c-3.3,1-8.7,1.6-14.1,1.6c-6.5,0-10.7-0.3-18.8-1.4V186.9z M97.1,209.4h7.3c2.5,0,5.5-3.5,5.5-6.4
			c0-4.5-3.2-7.1-8.7-7.1c-0.8,0-2.6,0.1-4.1,0.3V209.4z M97.1,232.9c0.7,0.1,1.3,0.1,1.6,0.2c0.9,0.1,2,0.1,3,0.1h1.5
			c5.6,0,8.9-2.7,8.9-6.9c0-4.9-3.7-7.6-10.4-7.6h-4.6V232.9z"/>
		<path class="st0" d="M146.8,186.4v32.9c0,5.1,0.9,7.8,3.1,9.8c1.9,1.6,4.5,2.5,8,2.5c3.8,0,6.9-1.5,8.5-4.2
			c0.9-1.6,1.5-4.3,1.5-8.1v-32.9h15.3v33.7c0,9-2,14.4-6.7,18.3c-4.1,3.5-11.7,5.7-19.4,5.7c-10.7,0-18.5-3.3-22.3-9.2
			c-2.1-3.5-3.2-8.4-3.2-15.7v-32.9H146.8z"/>
		<path class="st0" d="M230.6,203.5c-3.9-3.5-7.7-5.1-12.3-5.1c-8.7,0-14.7,6.6-14.7,16.4c0,9,6.6,16,15.3,16.5
			c2.6,0.1,4.3-0.3,6.7-1.3v-8.2h-9.3l1.1-10.7h23.1v26.3c-6.9,4.7-14.1,6.9-23.6,6.9c-8.7,0-17.5-3.7-22.7-9.7
			c-4.7-5.3-6.9-11.8-6.9-20.1c0-16.6,13.4-29.5,30.6-29.5c9.2,0,15.9,2.4,21.9,7.9L230.6,203.5z"/>
	</g>
	<path class="st0" d="M67.4,7.5"/>
	<path class="st0" d="M200.2,85.6c-0.3,0.9-0.7,1.8-1.3,2.7l-0.2,0.2c-0.9,1.5-2.2,2.7-3.6,3.7c-2.1,1.5-4.8,2.2-7.7,2.1
		c-6.3-0.3-12.6-4.7-16.4-11.4c-3.1-4.1-5.4-9.6-7.4-15.8c-10-3-20.6-4.5-31.6-4.5c-16.9,0-33,3.7-47.3,10.4
		c3.7,4.8,6.9,11.5,3.2,18.4l-0.1,0.3c-0.9,1.5-2.1,2.8-3.5,3.8c-2,1.5-4.7,2.4-7.6,2.4c-5.9,0-12.1-3.7-16.2-9.6
		c-22.8,18.8-38,46.5-40.4,77.7c-0.4,4.7,3.4,8.8,8.1,8.8h207.8c4.8,0,8.5-4.1,8.1-8.8C241.5,133.3,224.9,104.5,200.2,85.6z
		 M70.8,142.6c-15.3-0.6-23.9,5.1-22.6-2.4c0.7-7.1,9.3-23.7,22.9-23.6c13.8-0.4,22.2,16.4,22.2,24.1C94,148.7,86.1,143,70.8,142.6z
		 M169.4,144.1c-21.9-0.9-34.1,7.3-32.2-3.4c1.1-10.2,13.2-33.8,32.7-33.7c19.6-0.6,31.6,23.4,31.7,34.3
		C202.5,152.8,191.1,144.6,169.4,144.1z"/>
	<path class="st0" d="M79.1,88.4c-3,2.3-9-0.7-12.2-6.3C58.5,72.8,54,44.4,44.6,37.3c-5.4-3.7-13.5-1.8-22.9,3
		c-4.7,2.3-10.1,0.3-12.2-4.2c-2-4.6-0.1-9.8,4.7-12.2C29,16.1,48,8.3,56.8,15.7c9.4,16.3,6,60.1,16.5,57.9c4.2,4,9.1,9.5,6.8,13.6
		C79.8,87.7,79.5,88.1,79.1,88.4z"/>
	<path class="st0" d="M190.3,84.8c-3.1,2.1-9-1.2-11.9-6.8c-7.9-9.7-11.1-38.3-20.1-45.8c-5.2-3.9-13.4-2.4-23,1.9
		c-4.8,2.1-10.1-0.1-11.9-4.8c-1.8-4.7,0.4-9.8,5.3-11.9c15.1-7.1,34.5-14,42.9-6.2c8.6,16.7,3.1,60.3,13.7,58.7
		c4,4.1,8.6,9.9,6.2,14C191.1,84.2,190.8,84.6,190.3,84.8z"/>
</g>
</svg>
