<?xml version="1.0" encoding="utf-8"?>
<!-- Generator: Adobe Illustrator 21.0.0, SVG Export Plug-In . SVG Version: 6.00 Build 0)  -->
<svg version="1.1" xmlns="http://www.w3.org/2000/svg" xmlns:xlink="http://www.w3.org/1999/xlink" x="0px" y="0px"
	 viewBox="0 0 745.9 633.6" style="enable-background:new 0 0 745.9 633.6;" xml:space="preserve">
<style type="text/css">
	.st0{fill:#1A191A;}
	.st1{fill:#302E2F;}
	
		.st2{opacity:0.47;fill:none;stroke:#E99828;stroke-width:1.6961;stroke-linecap:round;stroke-linejoin:round;stroke-miterlimit:10;stroke-dasharray:4.2402;}
	.st3{fill:#CE9C76;}
	.st4{fill:#D9840B;}
	.st5{opacity:0.2;fill:#1A191A;}
	.st6{opacity:0.1;fill:#1A191A;}
	.st7{fill:#C42124;}
	.st8{fill:#EB6948;}
	.st9{fill:#A85746;}
	.st10{opacity:0.2;fill:#302E2F;}
	.st11{fill:#EF8763;}
	.st12{fill:#F5DDD2;}
	.st13{fill:#FFFFFF;}
</style>
<g id="Fondo">
	<g>
		<path class="st0" d="M684.8,420.8c-20,19.6-41.8,39.5-64.8,58.7c-29.3,24.4-60.6,47.8-92.7,68.5c-1.2,0.8-2.4,1.5-3.6,2.3
			c-20.8,13.2-41.9,25.2-62.9,35.6c-67.2,33.1-143.7,40.7-214.9,21.6c0,0,0,0-0.1,0c-1.5-0.4-3-0.8-4.4-1.2v0
			c-14.6-4.1-28.9-9.4-42.9-15.8c-40.3-18.5-66.7-41.4-83.3-60.2c-18.1-20.6-28.6-47-29.1-74.5c-0.5-28.7,10.7-37.9,34.3-86.5
			c31.5-64.7-20.4-116-42-135.3c-10.2-9.1-24.7-27.6-35.3-48.4c-16-31.5-11-69.6,12.4-96.1C152.8-21.1,304.7-0.5,304.7-0.5
			c150.5-2,274.6,62.7,360.9,127.7C760.2,198.6,769.3,337.6,684.8,420.8z"/>
		<g>
			<path class="st1" d="M137.6,430.5c1.1-1,1.7-2.7,1-4.1c-1.5-2.9-3.7-5-6.5-6.4c-1.6-0.8-3.9,0.3-4.5,2c-0.6,1.7,0.1,3.3,1.6,4.3
				c0.1,1,0.5,1.9,1.4,2.5c1,0.6,1.9,1.3,2.9,1.9C134.6,431.4,136.4,431.5,137.6,430.5z"/>
			<path class="st1" d="M150,427.4c0.3,0.1,0.6,0.3,0.9,0.4c0,0,0.2,0.1,0.3,0.1c0,0,0.1,0.1,0.2,0.1c0,0,0,0,0,0
				c0,0.1,0.1,0.3,0.2,0.4c0.5,1.1,1.4,1.8,2.5,2.1c2.5,0.6,5.1-1.5,4.7-4.2c-0.5-2.9-3.9-4.4-6.3-5.4c-1.7-0.7-3.9,0.2-4.5,2
				C147.4,424.8,148.3,426.7,150,427.4z"/>
			<path class="st1" d="M135.7,438.3c-1.7-0.6-3.9,0.1-4.5,2c-0.4,1-0.2,2.3,0.4,3.2c-0.1,0.2-0.1,0.5-0.1,0.7
				c-0.1,2.5,1.1,4.5,3.3,5.5c1.9,0.9,4.3,0.7,5.9-0.6C145.2,445.5,139.4,439.5,135.7,438.3z M138.3,444.9c0-0.2,0-0.3,0-0.5
				C138.3,444.6,138.3,444.8,138.3,444.9z"/>
			<path class="st1" d="M153.5,440.6c-1.7-0.4-3.8,1.3-3.8,3.1c-0.1,1.8,0.4,3.7,1.7,5c0.7,0.7,1.3,1.1,2.3,1.3
				c0.7,0.1,1.6-0.1,2.2-0.5c1,0.3,2.2,0.2,3.1-0.6c1.3-1.2,1.8-3.5,0.5-4.9C157.8,442.1,155.9,441,153.5,440.6z M152.6,447.4
				C152.5,447.4,152.5,447.4,152.6,447.4C152.5,447.4,152.5,447.4,152.6,447.4z"/>
			<path class="st1" d="M152.4,462.8c-0.4-1.8-2-3.2-4-2.9c-1.1,0.2-2.3,0.4-3.4,0.5c-1.8,0.3-3.3,2.1-2.9,4c0.4,1.8,2,3.2,4,2.9
				c1.1-0.2,2.3-0.4,3.4-0.5C151.3,466.5,152.8,464.7,152.4,462.8z"/>
			<path class="st1" d="M155.5,477.8c-1-1.1-2.3-1.5-3.8-1.4c-1.8,0.1-3.2,2.2-2.9,4c0.1,0.3,0.2,0.6,0.3,0.9c0,0.3-0.1,0.7,0,1
				c0.3,1.7,2.1,3.4,4,2.9c1.3-0.3,2.3-0.9,2.9-2.1c0.5-0.9,0.7-1.9,0.5-2.9C156.4,479.3,156,478.4,155.5,477.8z M152.3,483.3
				c0.2,0,0.3,0,0.5,0C152.6,483.3,152.5,483.3,152.3,483.3z"/>
			<path class="st1" d="M172,494.7c-0.9-1.6-2.8-2.6-4.6-1.7c-0.9,0.5-1.7,1.5-2,2.5c-0.4,0.2-0.8,0.5-1.1,0.9
				c-1.1,1.5-0.7,3.7,0.8,4.8c1.3,1,2.6,2,3.9,2.9c2.3,1.7,6.2-0.4,5.5-3.3C173.9,498.7,173.1,496.6,172,494.7z"/>
			<path class="st1" d="M170.9,470.8C170.9,470.8,170.9,470.8,170.9,470.8c-1.4-1.3-3.9-0.7-4.9,0.7c-1.1,1.7-0.7,3.5,0.8,4.8
				c1.5,1.4,3.4,2.5,5.3,3.1c1.3,0.5,2.8,0.2,3.8-0.9c0.9-1,1.3-2.5,0.7-3.8C175.4,472.6,173.3,471.2,170.9,470.8z"/>
			<path class="st1" d="M191.5,499.2c-0.6-0.4-1.4-0.6-2.1-0.6c-1-0.6-2.2-0.8-3.3-0.3c-1.7,0.9-2.5,2.8-1.7,4.6
				c1.3,3,3.7,5.3,6.7,6.6c2.4,1,5.2-1.2,4.7-3.8C195.2,503.1,193.8,500.7,191.5,499.2z"/>
			<path class="st1" d="M200.6,510.1c-4.4,0.7-3.3,7.6,1.1,6.9C206,516.2,205,509.4,200.6,510.1z"/>
			<path class="st1" d="M214.7,499c-1.4-1.2-2.7-2.4-4.1-3.6c-1.4-1.2-3.9-0.7-4.8,0.8c-1.1,1.7-0.7,3.6,0.8,4.8
				c1.4,1.2,2.7,2.4,4.1,3.6c1.4,1.2,3.9,0.7,4.8-0.8C216.6,502.2,216.1,500.3,214.7,499z"/>
			<path class="st1" d="M195,483.6c0-0.1-0.1-0.2-0.1-0.3c0-0.1-0.1-0.5-0.1-0.6c0,0,0,0,0,0c0-0.1,0-0.2,0-0.3
				c0.2-1.8-1.1-3.7-3.1-3.8c-1.8-0.1-3.7,1.1-3.8,3.1c-0.2,2.4,0.5,4.7,2,6.6c1.1,1.4,3.5,1.7,4.9,0.5c1.4-1.3,1.7-3.4,0.5-4.9
				C195.1,483.8,195,483.7,195,483.6z M195,483.7C195,483.7,195,483.7,195,483.7C195,483.8,195,483.7,195,483.7z"/>
		</g>
		<g>
			<path class="st1" d="M212.9,63.7c-1.8,0.1-3.1,1.3-3.4,3c-0.9,0.4-1.6,1.2-1.8,2.2c-0.2,1.1-0.5,2.3-0.7,3.4
				c-0.3,1.5,0.3,3.2,1.7,3.9c1.3,0.7,3.1,0.6,4.2-0.6c2.1-2.4,3.2-5.3,3.5-8.4C216.5,65.3,214.7,63.6,212.9,63.7z"/>
			<path class="st1" d="M219.6,83.1c-1.9,0.1-3.4,1.6-3.4,3.5c0,0.3,0,0.7,0,1c0,0,0,0.2,0,0.3c0,0,0,0.1,0,0.2c0,0,0,0,0,0
				c-0.1,0.1-0.2,0.2-0.3,0.3c-0.8,0.9-1.1,2-1,3.1c0.4,2.6,3.3,4.2,5.6,2.8c2.5-1.5,2.7-5.2,2.7-7.8
				C223.2,84.7,221.5,83,219.6,83.1z"/>
			<path class="st1" d="M200.8,77.3c-0.1-1.8-1.6-3.5-3.5-3.4c-1.1,0.1-2.2,0.6-2.8,1.5c-0.2,0-0.5,0.1-0.7,0.1
				c-2.3,0.8-3.7,2.7-3.9,5.1c-0.1,2.1,0.9,4.2,2.7,5.3C197.6,88.8,201,81.2,200.8,77.3z M196,82c-0.1,0.1-0.3,0.1-0.4,0.2
				C195.7,82.1,195.9,82.1,196,82z"/>
			<path class="st1" d="M201,92.3c-1.7,0.6-3.3,1.7-4,3.4c-0.4,0.9-0.6,1.7-0.3,2.6c0.2,0.7,0.7,1.4,1.3,1.9
				c0.1,1.1,0.6,2.1,1.7,2.6c1.6,0.8,3.9,0.4,4.7-1.4c1-2.2,1.2-4.3,0.8-6.7C205,92.9,202.7,91.7,201,92.3z M198.6,96.3
				c0,0,0,0.1,0,0.1C198.5,96.3,198.5,96.3,198.6,96.3z"/>
			<path class="st1" d="M183.6,94.2c-0.9-1.6-3.2-2.2-4.8-1.2c-1.6,1-2.2,3.1-1.2,4.8c0.6,1,1.2,2,1.8,3c0.9,1.6,3.2,2.2,4.8,1.2
				c1.6-1,2.2-3.1,1.2-4.8C184.8,96.2,184.2,95.2,183.6,94.2z"/>
			<path class="st1" d="M169.7,112.2c0.7-0.4,1.4-1.1,1.8-1.9c0.6-1.4,0.5-2.6-0.1-4c-0.8-1.6-3.3-2.2-4.8-1.2
				c-0.3,0.2-0.5,0.4-0.7,0.6c-0.3,0.1-0.6,0.2-0.9,0.4c-1.5,1-2.4,3.2-1.2,4.8c0.8,1.1,1.7,1.8,3,2
				C167.8,112.9,168.8,112.7,169.7,112.2z M165.2,109.4c0.1,0.2,0.1,0.3,0.2,0.5C165.3,109.7,165.2,109.6,165.2,109.4z"/>
			<path class="st1" d="M157,136.5c1.8-1.3,3.5-2.8,4.9-4.6c1.1-1.4,1.4-3.6-0.1-4.9c-0.8-0.7-2-1.1-3.1-0.9
				c-0.4-0.3-0.8-0.5-1.3-0.7c-1.9-0.5-3.7,0.7-4.2,2.5c-0.4,1.6-0.9,3.1-1.3,4.7C151.1,135.4,154.5,138.3,157,136.5z"/>
			<path class="st1" d="M178.2,129.6c1.2,0.5,2.8,0.2,3.8-0.8c1.7-1.9,2.2-4.3,1.7-6.7c0,0,0,0,0,0c0.7-1.7-0.8-3.9-2.5-4.2
				c-2-0.4-3.5,0.7-4.2,2.5c-0.7,1.9-1,4-0.9,6.1C176.1,127.8,176.9,129.1,178.2,129.6z"/>
			<path class="st1" d="M163.7,146.4c-1.4-1.3-3.5-1.3-4.9,0.1c-2.3,2.3-3.5,5.4-3.6,8.7c-0.1,2.6,3.1,4.4,5.2,3
				c2.3-1.5,3.9-3.7,4.5-6.4c0.1-0.7,0.1-1.5-0.2-2.2C164.9,148.4,164.6,147.2,163.7,146.4z"/>
			<path class="st1" d="M152.2,167.7c2.3,3.8,8.3,0.3,6-3.5C155.9,160.3,149.9,163.9,152.2,167.7z"/>
			<path class="st1" d="M173,163.9c-2-0.4-3.6,0.7-4.2,2.5c-0.6,1.7-1.2,3.4-1.8,5.1c-0.6,1.7,0.8,3.9,2.5,4.2
				c2,0.4,3.6-0.7,4.2-2.5c0.6-1.7,1.2-3.4,1.8-5.1C176.1,166.4,174.7,164.2,173,163.9z"/>
			<path class="st1" d="M179.9,141.8c-2.3,0.7-4.2,2.2-5.4,4.3c-0.9,1.6-0.3,3.9,1.4,4.7c1.7,0.9,3.7,0.3,4.7-1.4
				c0.1-0.1,0.1-0.2,0.2-0.3c0.1-0.1,0.2-0.2,0.3-0.2c0.1-0.1,0.4-0.3,0.5-0.3c0,0,0,0,0,0c0.1,0,0.2-0.1,0.2-0.1
				c1.7-0.5,3-2.4,2.4-4.3C183.6,142.5,181.7,141.3,179.9,141.8z M180.6,149.3C180.6,149.3,180.6,149.3,180.6,149.3
				C180.6,149.3,180.6,149.3,180.6,149.3z"/>
		</g>
		<g>
			<path class="st1" d="M647.9,323c1.6-0.8,2.3-2.5,1.9-4.1c0.6-0.7,1-1.7,0.8-2.7c-0.2-1.1-0.5-2.3-0.7-3.4
				c-0.3-1.5-1.5-2.8-3.1-2.9c-1.5-0.1-3.1,0.8-3.6,2.3c-1,3.1-0.9,6.1,0.2,9.1C643.9,323,646.3,323.8,647.9,323z"/>
			<path class="st1" d="M633.9,307.9c1.7-0.9,2.5-2.8,1.8-4.6c-0.1-0.3-0.3-0.6-0.4-1c0,0-0.1-0.2-0.1-0.3c0,0,0-0.1,0-0.2
				c0,0,0,0,0,0c0.1-0.1,0.1-0.3,0.2-0.4c0.4-1.1,0.2-2.3-0.4-3.3c-1.4-2.2-4.7-2.5-6.3-0.3c-1.7,2.4-0.3,5.9,0.6,8.3
				C630,307.9,632.3,308.8,633.9,307.9z"/>
			<path class="st1" d="M653.5,305.7c0.8,1.6,2.8,2.6,4.6,1.8c1-0.5,1.8-1.5,2-2.5c0.2-0.1,0.4-0.2,0.6-0.4c1.8-1.7,2.3-4,1.5-6.3
				c-0.7-1.9-2.5-3.5-4.6-3.7C651.8,293.9,651.7,302.2,653.5,305.7z M656,299.5c0.1-0.1,0.2-0.2,0.3-0.3
				C656.2,299.2,656.1,299.3,656,299.5z"/>
			<path class="st1" d="M647.3,292.1c1.3-1.2,2.3-2.9,2.3-4.7c0-0.9-0.1-1.7-0.8-2.5c-0.5-0.6-1.2-1-1.9-1.2
				c-0.5-0.9-1.4-1.6-2.6-1.7c-1.8-0.1-3.8,1.2-3.8,3.1c0,2.4,0.6,4.5,1.9,6.5C643.4,293.1,646,293.3,647.3,292.1z M647.9,287.4
				C647.9,287.4,647.9,287.4,647.9,287.4C647.9,287.4,647.9,287.4,647.9,287.4z"/>
			<path class="st1" d="M662.5,283.3c1.5,1.1,3.8,0.8,4.8-0.8c1-1.6,0.8-3.7-0.8-4.8c-0.9-0.7-1.9-1.3-2.8-2
				c-1.5-1.1-3.8-0.8-4.8,0.8c-1,1.6-0.8,3.7,0.8,4.8C660.6,282,661.5,282.7,662.5,283.3z"/>
			<path class="st1" d="M668,261.2c-0.5,0.7-0.8,1.6-0.9,2.4c0,1.5,0.6,2.6,1.7,3.6c1.4,1.2,3.9,0.7,4.8-0.8
				c0.2-0.3,0.3-0.5,0.4-0.8c0.3-0.2,0.5-0.4,0.7-0.7c0.9-1.5,0.9-3.9-0.8-4.8c-1.1-0.7-2.3-1-3.5-0.6
				C669.5,259.8,668.6,260.4,668,261.2z M673.2,262c-0.1-0.1-0.2-0.2-0.3-0.3C673,261.7,673.1,261.8,673.2,262z"/>
			<path class="st1" d="M669.8,233.9c-1.2,1.9-2.1,3.9-2.6,6.1c-0.4,1.8,0.1,3.8,2.1,4.5c1,0.3,2.3,0.2,3.2-0.4
				c0.5,0.1,0.9,0.2,1.4,0.1c1.9-0.3,3.1-2.1,2.9-4c-0.2-1.6-0.5-3.2-0.7-4.8C675.7,232.6,671.4,231.3,669.8,233.9z"/>
			<path class="st1" d="M653.2,248.7c-1.3,0-2.7,0.9-3.1,2.2c-0.8,2.4-0.3,4.9,1.2,6.8c0,0,0,0,0,0c0.1,1.8,2.3,3.2,4,2.9
				c2-0.4,2.9-2,2.9-4c-0.1-2-0.7-4.1-1.6-5.9C655.9,249.5,654.6,248.7,653.2,248.7z"/>
			<path class="st1" d="M659.7,227.5c1.8,0.6,3.8-0.2,4.5-2.1c1.2-3.1,1.1-6.4-0.2-9.4c-1-2.4-4.6-2.8-6-0.6c-1.5,2.3-2.1,5-1.5,7.7
				c0.2,0.7,0.5,1.4,1.1,1.9C657.8,226.1,658.6,227.2,659.7,227.5z"/>
			<path class="st1" d="M661.7,203.4c-3.6-2.6-7.7,3-4,5.6C661.3,211.6,665.3,206,661.7,203.4z"/>
			<path class="st1" d="M644.2,215.2c2-0.4,3-2.1,2.9-4c-0.1-1.8-0.3-3.6-0.4-5.4c-0.1-1.8-2.3-3.2-4-2.9c-2,0.4-3,2.1-2.9,4
				c0.1,1.8,0.3,3.6,0.4,5.4C640.4,214.2,642.5,215.6,644.2,215.2z"/>
			<path class="st1" d="M646.8,238.2c1.8-1.6,3-3.7,3.3-6.1c0.2-1.8-1.3-3.7-3.1-3.8c-1.9-0.1-3.6,1.2-3.8,3.1c0,0.1,0,0.2,0,0.3
				c0,0.1-0.1,0.2-0.1,0.3c-0.1,0.1-0.3,0.4-0.3,0.5c0,0,0,0,0,0c-0.1,0.1-0.1,0.1-0.2,0.2c-1.4,1.2-1.8,3.5-0.5,4.9
				C643.1,239.1,645.3,239.5,646.8,238.2z M643.1,231.6C643.1,231.6,643.1,231.7,643.1,231.6C643.1,231.7,643.1,231.7,643.1,231.6z"
				/>
		</g>
		<path class="st2" d="M364.4,631.8c-44.8,5.6-89.1,1.6-131.8-11.8c-36.6-11.5-68-28.7-93.3-51.1c-22.3-19.7-36.8-46.5-40.9-75.4
			c-3.2-22.6,1.8-35.7,11-59.5c3.5-9,7.8-20.3,12.7-34.5c14.8-43.6-3.8-83.8-55.3-119.3c-10.6-7.3-28.2-23.7-43.2-45.9
			C12.9,218.4,7.3,200,7.4,181c0.1-19,5.8-37.4,16.5-53.2C51.1,87.7,88.5,56.5,135,34.9c39.1-18.2,76.8-25.7,101.4-28.8
			c16.2-2,27.2-2.2,29.9-2.2c2.1-0.3,4.3-0.6,6.4-0.8c67.8-8.5,137.4-3.5,207,14.8c55.6,14.7,111.2,37.8,165.3,68.9
			c51.2,29.3,86.9,79.4,98.1,137.4c11.2,58-3.4,117.8-40,164.1c-36.5,46.2-111.5,132.8-203.7,193.5
			C459,608.5,412.2,625.8,364.4,631.8C364.4,631.8,364.4,631.8,364.4,631.8z"/>
	</g>
</g>
<g id="Capa_1">
	<g>
		<g>
			<g>
				<g>
					<g>
						<g>
							<path class="st3" d="M167.9,232.5l-11.5,15.6c0,0,1.6,21.7-9.7,41.1c0,0-4.5,1.6-10.9,3.4c-3.1,0.9-6.6,1.8-10.2,2.7
								c-2.6,0.6-5.3,1.2-8,1.7c-10.4,1.9-20.6,2.4-24.9-1.3C79.2,284,71.5,268,71.5,268l-28.8-34.4c-0.5-0.5-0.9-1-1.3-1.5
								c-1.6-2.5-1.5-5.8,0.3-8.3c1.4-2,3.7-3,6-3c1.5,0,3,0.5,4.4,1.4L71,239.6l2.6-2.3L51,202.8c-2.9-4.1-1.7-9.8,2.7-12.2
								c1.3-0.7,2.8-1.1,4.2-1.1c2.1,0,4.2,0.8,5.8,2.4c0.3,0.3,0.5,0.5,0.8,0.9L84.2,220l6.3,8.8l3.2-1.8L75,185
								c-2.3-4.8,0-10.5,4.9-12.6c1.2-0.5,2.4-0.7,3.6-0.7c0.8,0,1.5,0.1,2.2,0.3c2.6,0.6,4.8,2.3,6.1,4.9l5.3,11.1l17.2,36.2l4.3-2
								l-9.7-38.3c-1.1-4.4,1.8-8.8,6.4-9.5c0.4-0.1,0.8-0.1,1.2-0.1c3.2,0,6.1,2,7.2,5l0.5,1.4l16.1,44.7l0,0.1l0.5,1.3
								c0.4-0.4,0.7-0.6,0.9-0.8l0.1-0.1l9.8-8.6c2.4-2,5.4-2.8,8.3-2.5c1.7,0.2,3.4,0.7,4.9,1.6c1.3,0.8,2.5,1.9,3.5,3.3
								c1.3,1.9,2,4.1,2,6.4C170,228.3,169.3,230.6,167.9,232.5z"/>
						</g>
						<g>
							<path class="st0" d="M140.2,225.4l0.5,1.3c-4.2,3.7-21.2,19.8-23.4,38.6l-2.4-0.3C117.3,244.2,136.7,228.1,140.2,225.4z"/>
						</g>
					</g>
					<g>
						<g>
							<polygon class="st3" points="114.3,371.6 92.6,295.7 142.3,280.5 164.6,356.4 							"/>
						</g>
					</g>
				</g>
			</g>
			<path class="st4" d="M368.9,383.6l-92.4,82.9c-0.3,0.3-21.3,13.1-21.7,13.3c-1,0.6-2.3,1.2-3.8,1.8c-3.7,1.5-8.8,3-14.9,4.3
				c-10.3,2.1-23.4,3.4-37,2.4c-18.2-1.2-37.3-6.4-52-18.9C120.9,447,105,401.8,86.6,360c-3.9-8.8-7.9-17.5-12.1-25.8
				c-0.5-1-1-2-1.4-3c-19.7-44.3,53-38.5,83.4-51.9c31.1-13.7,25.6,69.4,38.9,83.9c8.2,8.9,40.1-11,69.1-26.3
				c18.1-9.6,35.2-17.4,44.6-15.3C357.3,332.5,368.9,383.6,368.9,383.6z"/>
		</g>
		<path class="st5" d="M264.7,337.3c0,0-15.7,12-55.7,36s-44.3-63.3-59.7-77c-2.6-2.3-7-3.6-12.5-4c-0.4,0-0.7-0.1-1.1-0.1
			c-22.3-1-60,13.1-62.7,39c-16.8-37.8,33.6-39.1,67.7-47c3.4-0.8,6.7-1.6,9.7-2.6c2.2-0.7,4.2-1.4,6.1-2.3
			c31.1-13.7,25.6,69.4,38.9,83.9c8.2,8.9,40.1-11,69.1-26.3C264.6,337.2,264.7,337.3,264.7,337.3z"/>
		<path class="st5" d="M252.8,467.5l-1.8,14.1c-3.7,1.5-8.8,3-14.9,4.3c-10.3,2.1-23.4,3.4-37,2.4c-19.5-2.3-39.2-8-52-18.9
			C120.9,447,105,401.8,86.6,360c-0.1-1.3-0.1-2-0.1-2s48.6,111.8,89.5,119C224.5,485.5,252.8,467.5,252.8,467.5z"/>
		<path class="st5" d="M77.3,238l-5.3,6c0,0-17-15.8-22.5-20.5c-5-4.4-8.1,6.1-8,8.5c-1.6-2.5-1.5-5.8,0.3-8.3c1.4-2,3.7-3,6-3
			c1.4,0,2.9,0.4,4.2,1.3c0.1,0.1,0.2,0.2,0.4,0.3L71,239.6l2.6-2.3L51,202.8c-2.9-4.1-1.7-9.8,2.7-12.2c1.3-0.7,2.8-1.1,4.2-1.1
			c2.1,0,4.2,0.8,5.8,2.4c-0.1,0.3-0.2,0.5-0.2,0.5c-4.3-2.5-11,2.3-10.8,6.3S77.3,238,77.3,238z"/>
		<path class="st5" d="M96.8,228.3c0,0-1.8,2-4.3,3.5c-1.7,1-5.6-6.5-8.3-11.8l6.3,8.8l3.2-1.8L75,185c-2.3-4.8,0-10.5,4.9-12.6
			c1.2-0.5,2.4-0.7,3.6-0.7c0.8,0,1.5,0.1,2.2,0.3c-2.4,0.3-5.1,1.9-7.9,4.3C72.3,181,96.8,228.3,96.8,228.3z"/>
		<path class="st5" d="M124.1,180.6c-0.6-0.2-1.2-0.7-1.6-1.4c-1.5-2.8-6-3.8-10.3-0.8s8.8,45.8,8.8,45.8s-3.8,2.3-6.5,3
			s-17.3-38-17.8-38.8c0,0,0.1-0.2,0.3-0.6l17.2,36.2l4.3-2l-9.7-38.3c-1.1-4.4,1.8-8.8,6.4-9.5c0.4-0.1,0.8-0.1,1.2-0.1
			c3.2,0,6.1,2,7.2,5L124.1,180.6z"/>
		<path class="st6" d="M139.3,225.1c-7.4,2.8-27.4,15.9-32.6,23.9c-6.8,10.5,4.3,34.3,4.3,34.3c8-40.8,21.6-50.8,28.9-56.5
			L139.3,225.1z"/>
		<path class="st5" d="M167.9,232.5l-11.5,15.6c0,0,1.2,16.5-6,33.5c-3,1-6.2,1.8-9.7,2.6c3.6-6.7,10.8-21.8,10.3-34.3
			c0,0,18.5-19,17.5-26.3s-8.8-8.8-8.8-8.8s0-0.1,0-0.3c1.7,0.2,3.4,0.7,4.9,1.6c1.3,0.8,2.5,1.9,3.5,3.3c1.3,1.9,2,4.1,2,6.4
			C170,228.3,169.3,230.6,167.9,232.5z"/>
	</g>
	<path class="st4" d="M495.6,345.1c0,43.5-48.6,78.8-108.6,78.8s-108.6-35.3-108.6-78.8c0-43.5,48.6-72.1,108.6-72.1
		S495.6,301.6,495.6,345.1z"/>
	<path class="st5" d="M325.7,310.2c0,0,21.7-20.8,63.3-16.3s60,17,60,17l5.5-2.7c0,0-22.8-19.2-35.5-18.2s-43.5-8.5-52-3.8
		c-8.5,4.7-29.5,4.2-45.7,21.8L325.7,310.2z"/>
	<g>
		<path class="st1" d="M375.5,294.3l-1.6,5.6c-29.6-2.1-39.1-22.9-42.2-35.4C343.3,278.3,360.2,290,375.5,294.3z"/>
		<path class="st1" d="M324.1,253.6c-23-7.9-19-49.3-19-49.3l4.3-1.2c2.3,16,6.1,32.7,12.2,45.8
			C322.4,250.5,323.2,252.1,324.1,253.6z"/>
		<path class="st1" d="M455.5,240.3c-0.2,10.3-3.8,37.6-36.1,47.4c13.2-7.3,23.8-19.3,31.5-35.7
			C452.6,248.4,454.1,244.5,455.5,240.3z"/>
		<path class="st1" d="M456.8,236c5-17.2,7.7-37.4,9-55.3l9.8,0.8C475.6,181.5,486.3,227.6,456.8,236z"/>
	</g>
	<path class="st7" d="M468.1,346c0,32.5-36.3,58.9-81.1,58.9s-81.1-26.4-81.1-58.9c0-32.5,36.3-53.9,81.1-53.9
		S468.1,313.4,468.1,346z"/>
	<path class="st4" d="M620,479.6c-1.3,1.1-2.7,2.2-4,3.3c-19.6,16.2-40,31.8-61,46.5c-9.1,6.4-18.4,12.6-27.7,18.6
		c-0.7,0.5-1.4,0.9-2.1,1.4c-0.2,0.1-0.4,0.3-0.7,0.4c-0.3,0.2-0.5,0.3-0.8,0.5c-20.8,13.2-41.9,25.2-62.9,35.6
		c-67.2,33.1-143.7,40.7-214.9,21.6c0,0,0,0-0.1,0c-0.4-31-1.1-84.9,7.6-139.9c8.7-54.9,26.8-111,64.2-146.7l19.9,25.8H441
		l22.5-22.7c11.3,3.7,21.9,8.2,31.8,13.2C563.1,371.4,600.4,432.8,620,479.6z"/>
	<path class="st4" d="M386.3,375.8c-0.9-0.4-1.9-0.7-2.9-1.1c-0.5-0.2-1.1-0.4-1.6-0.5c-0.7-0.2-1.3-0.4-2-0.6
		c-28.3-8.4-70.6-7.3-90.1-22.7c0,0,0,0,0,0c0,0,0,0-0.1,0c-4.5-3.6-7.8-8-9.3-13.7c0,0,0-0.6,0.1-1.8c0.4-3.9,2-13.5,8.6-22.4
		c0.1-0.1,0.2-0.3,0.3-0.4l0.4-0.1l27.6-5.1C364.1,321.6,386.3,375.8,386.3,375.8z"/>
	<ellipse class="st8" cx="361.4" cy="360.1" rx="3.8" ry="3.8"/>
	<path class="st4" d="M456.7,307.3c-46.8,14.3-69,68.4-69,68.4c33.9-13.2,97.1-6.5,106-38.7c0,0-0.3-13-9-24.5L456.7,307.3z"/>
	<ellipse class="st8" cx="412.6" cy="360.1" rx="3.8" ry="3.8"/>
	<path class="st7" d="M245.8,607.5c-1.5-0.4-3-0.8-4.4-1.2v0c1.1-47.6,4.6-95,10.7-141.9c0.5,1.1,0.9,2.2,1.4,3.3
		c0,0.1,0.1,0.2,0.1,0.2C248.6,514.1,246,560.7,245.8,607.5C245.9,607.5,245.8,607.5,245.8,607.5z"/>
	<path class="st7" d="M527.3,465.2V548c-1.2,0.8-2.4,1.5-3.6,2.3v-85.1H527.3z"/>
	<path class="st3" d="M427.1,324.6C427.1,324.6,427.1,324.6,427.1,324.6c-1.1,0.7-2,1.3-3,1.9c-2.1,1.5-4.2,3-6.1,4.7
		c-0.2,0.1-0.2,0.2-0.4,0.4h0c-0.5,0.4-1.1,0.9-1.6,1.4c-0.7,0.6-1.4,1.2-2.1,1.9c-0.5,0.5-1,1-1.6,1.5c-0.6,0.5-1.1,1-1.6,1.6
		c-3.6,3.7-6.8,7.5-9.5,11.1c-0.3,0.4-0.5,0.7-0.8,1.1c-0.1,0.1-0.1,0.2-0.2,0.3c-0.4,0.6-0.8,1.1-1.2,1.7c-1.5,2.1-2.8,4.1-4,6.1
		c-0.3,0.5-0.6,0.9-0.8,1.4c-0.2,0.2-0.3,0.4-0.4,0.6c-0.2,0.4-0.4,0.7-0.6,1c-1.4,2.3-2.5,4.5-3.4,6.2c-0.1,0.3-0.3,0.6-0.4,0.9
		c-0.4,0.8-0.7,1.4-1,2c-0.6,1.3-1,2.1-1,2.3h-1.2c-0.1-0.2-0.4-1-1-2.3c-1-2-2.5-5.2-4.8-9.1c-0.2-0.3-0.4-0.7-0.6-1
		c-0.1-0.2-0.3-0.4-0.4-0.6c-0.3-0.5-0.6-0.9-0.8-1.4c-0.4-0.7-0.9-1.5-1.4-2.3c-0.4-0.6-0.8-1.3-1.3-1.9c-0.4-0.6-0.9-1.3-1.3-1.9
		c-0.4-0.6-0.8-1.1-1.2-1.7c-0.1-0.1-0.2-0.2-0.2-0.3c-0.3-0.4-0.5-0.7-0.8-1.1c-0.2-0.3-0.4-0.6-0.7-0.9c-2.6-3.4-5.5-6.8-8.8-10.2
		c-0.5-0.5-1-1.1-1.6-1.6c-1.3-1.3-2.6-2.5-3.9-3.6c-0.5-0.5-1-0.9-1.6-1.4c-0.8-0.7-1.7-1.4-2.5-2h0c-1.2-1-2.5-1.9-3.7-2.8
		c-0.9-0.6-1.9-1.3-2.9-1.9c-0.8-0.5-1.5-0.9-2.3-1.4v0l0.1-9l0.3-18.6l0.6-34.9l0.6-6.1h80.5l0.7,40.3l0.2,18.1l0,3.7L427.1,324.6z
		"/>
	<path class="st0" d="M337.1,264.4c-4.3-9.9,29,55,63,51.4c29.2-3.1,30.4-56,30.4-56s-10.4,16.7-41.2,16.7
		C355,276.6,337.1,264.4,337.1,264.4z"/>
	<path class="st9" d="M380,278.6l-4.5,15.7c-15.3-4.2-32.2-16-43.8-29.9c-1.4-5.6-1.5-9.6-1.5-9.6c-2.2-0.2-4.3-0.6-6.2-1.2
		c-0.9-1.5-1.7-3.1-2.5-4.7c-6.1-13.1-9.9-29.8-12.2-45.8l32.3-8.6L380,278.6z"/>
	<path class="st9" d="M456.8,236c-0.5,0.2-0.9,0.3-1.4,0.4c0,0,0.2,1.5,0.1,3.9v0.1c-1.4,4.2-2.9,8.1-4.6,11.7
		c-7.7,16.4-18.3,28.5-31.5,35.7c-1.4,0.5-2.9,0.8-4.5,1.2l-9.2-20.1l29.9-90.6l30.1,2.5C464.5,198.6,461.8,218.8,456.8,236z"/>
	<g>
		<path class="st1" d="M284.7,189c-3.6-3.8-14.7-17.3-5.4-32.5c-1.5-1.8-10.7-13.2-5.3-27.3c5.2-13.6,15.5-21.3,17.6-22.7
			c-1.2-1.7-5.9-9-3.2-16.2c2.3-6.2,9.5-10.6,21.4-12.9l9.7-0.7l0.1,0.8l-9.6,0.7c-11.5,2.2-18.5,6.4-20.7,12.3
			c-2.9,7.6,3.2,15.7,3.3,15.7l0.3,0.4l-0.4,0.2c-0.1,0.1-11.9,7.7-17.6,22.6c-5.7,14.8,5.2,26.6,5.3,26.7l0.2,0.2l-0.2,0.3
			c-9.3,14.8,1.5,28.1,5.1,31.7L284.7,189z"/>
	</g>
	<path class="st1" d="M486.3,154.5c0,9.5-0.3,25.2-2.2,42.6l-94.9,76.4l-100.1-71.9c-3.1-23.5-3-43.6-2.9-47.2
		c0-34.7,20.7-100.7,99.2-100.7c29.9,0,54.1,9,72,26.6C486.2,108.8,486.5,148.5,486.3,154.5z"/>
	<path class="st3" d="M467,147.8c0,8.4-0.2,20.1-1.2,32.9c-1.3,17.9-4,38.1-9,55.3c-0.4,1.5-0.8,2.9-1.3,4.2v0.1
		c-0.9,2.6-1.8,5.2-2.8,7.6v0c-0.2,0.5-0.5,1.1-0.7,1.6c-0.4,0.9-0.7,1.7-1.1,2.5c-1.1,2.4-2.3,4.7-3.5,6.9
		c-7.3,12.9-16.7,22.6-27.9,28.8c-9.3,5.1-19.8,7.9-31.5,8.3c-3.9,0.1-8.1-0.5-12.4-1.7c-8.7-2.4-18-7.3-26.4-13.6
		c-1.2-0.9-2.3-1.8-3.4-2.7c-0.3-0.2-0.6-0.5-0.8-0.7c-0.9-0.7-1.8-1.5-2.7-2.3c-3.2-2.8-6.1-5.8-8.9-8.9c-0.5-0.6-1-1.2-1.5-1.8
		c-2.9-3.5-5.5-7.1-7.6-10.8c-0.9-1.5-1.7-3.1-2.5-4.7c-6.1-13.1-9.9-29.8-12.2-45.8c-4.2-28.5-3.9-54.9-3.9-54.9s0-85.9,79.8-85.9
		C469.5,62.4,467,147.8,467,147.8z"/>
	<g>
		<g>
			<g>
				<g>
					<path class="st3" d="M309.5,188c0,0-6.7-10.6-20.5-5.4c-13.8,5.2-7.5,38.7,13.1,43c0,0,7.4,1.6,13.2-3.5
						C315.4,222.1,310.3,197.4,309.5,188z"/>
				</g>
				<g>
					<path class="st0" d="M307,214.8c0,0.1,0,0.1,0,0.1c-0.1,0.2-0.3,0.3-0.4,0.3c-0.1,0-0.1,0-0.2,0c-0.3-0.1-0.4-0.4-0.2-0.6
						c0,0,0.2-0.4,0.4-1c0,0,0,0,0,0c1-3,3.4-11.7-3.3-16.1c-2.8-1.9-5.7-2.6-8.4-2c-3.7,0.8-6.2,3.7-7.1,5
						c-0.2,0.3-0.4,0.5-0.4,0.5c-0.1,0.2-0.4,0.3-0.7,0.2c-0.2-0.1-0.3-0.4-0.2-0.7c0-0.1,0.4-0.6,1-1.3c0,0,0,0,0,0
						c1.3-1.5,3.7-3.8,7.1-4.6c3-0.6,6,0.1,9.1,2.1C312,202.2,307.5,213.6,307,214.8z"/>
				</g>
			</g>
			<g>
				<path class="st0" d="M294.6,205.7c-0.1,0-0.3-0.1-0.4-0.2c-0.2-0.2-0.1-0.5,0.1-0.7c0.1-0.1,8.2-6,14.2,0c0.2,0.2,0.2,0.5,0,0.7
					c-0.2,0.2-0.5,0.2-0.7,0c-5.4-5.4-12.9,0-13,0C294.8,205.7,294.7,205.7,294.6,205.7z"/>
			</g>
			<path class="st10" d="M307,214.8c-0.4-0.1-0.6-0.3-0.6-0.3c0-0.4,0-0.7,0-1.1c0,0,0,0,0,0c0.6-23.4-18.7-13-18.7-13s0-0.1,0-0.2
				c0-0.2-0.1-0.7-0.2-1.3c0,0,0,0,0,0c1.3-1.5,3.7-3.8,7.1-4.6c3-0.6,6,0.1,9.1,2.1C312,202.2,307.5,213.6,307,214.8z"/>
		</g>
	</g>
	<g>
		<g>
			<g>
				<g>
					<path class="st3" d="M464.6,188c0,0,6.7-10.6,20.5-5.4c13.8,5.2,7.5,38.7-13.1,43c0,0-7.4,1.6-13.2-3.5
						C458.7,222.1,463.8,197.4,464.6,188z"/>
				</g>
				<g>
					<path class="st0" d="M467.1,214.8c0,0.1,0,0.1,0,0.1c0.1,0.2,0.3,0.3,0.4,0.3c0.1,0,0.1,0,0.2,0c0.3-0.1,0.4-0.4,0.2-0.6
						c0,0-0.2-0.4-0.4-1c0,0,0,0,0,0c-1-3-3.4-11.7,3.3-16.1c2.8-1.9,5.7-2.6,8.4-2c3.7,0.8,6.2,3.7,7.1,5c0.2,0.3,0.4,0.5,0.4,0.5
						c0.1,0.2,0.4,0.3,0.7,0.2c0.2-0.1,0.3-0.4,0.2-0.7c0-0.1-0.4-0.6-1-1.3c0,0,0,0,0,0c-1.3-1.5-3.7-3.8-7.1-4.6
						c-3-0.6-6,0.1-9.1,2.1C462,202.2,466.6,213.6,467.1,214.8z"/>
				</g>
			</g>
			<g>
				<path class="st0" d="M479.5,205.7c0.1,0,0.3-0.1,0.4-0.2c0.2-0.2,0.1-0.5-0.1-0.7c-0.1-0.1-8.2-6-14.2,0c-0.2,0.2-0.2,0.5,0,0.7
					c0.2,0.2,0.5,0.2,0.7,0c5.4-5.4,12.9,0,13,0C479.3,205.7,479.4,205.7,479.5,205.7z"/>
			</g>
			<path class="st10" d="M467.1,214.8c0.4-0.1,0.6-0.3,0.6-0.3c0-0.4,0-0.7,0-1.1c0,0,0,0,0,0c-0.6-23.4,18.7-13,18.7-13
				s0-0.1,0-0.2c0-0.2,0.1-0.7,0.2-1.3c0,0,0,0,0,0c-1.3-1.5-3.7-3.8-7.1-4.6c-3-0.6-6,0.1-9.1,2.1
				C462,202.2,466.6,213.6,467.1,214.8z"/>
		</g>
	</g>
	<path class="st11" d="M358.4,219.8c-2.4,2.3-8.6,0.2-15.4,0c-6.8-0.6-13.4,1.5-15.3-0.7c-2.1-2,4.4-10.7,15.9-10.6
		C355.3,208.8,361,217.6,358.4,219.8z"/>
	<path class="st11" d="M411.3,219.1c2.4,2.3,8.6,0.2,15.4,0c6.8-0.6,13.4,1.5,15.3-0.7c2.1-2-4.4-10.7-15.9-10.6
		C414.5,208.1,408.8,217,411.3,219.1z"/>
	<path class="st10" d="M466.7,194.4l-1.7,2.3c-18.6-6.6-12.4-53.7-12.4-53.7c-12.5,0.7-20.6-12.4-25.5-25.3c-1.7,1-3.8,2.1-6.4,3.4
		c-15.2,7.6-39-12-49.7-22c-1.6,30.4-31.3,34.5-31.3,34.5c2.7,19.7-16.6,25.7-16.6,25.7c6.8,27.6-15.4,35.7-15.4,35.7
		c-1.6-2.5-2.8-5.3-3.7-8.4c0.2,0.4,0.4,0.7,0.7,1.1c0,0,21.8-8,15.1-35.1c0,0,19-5.9,16.4-25.3c0,0,28.2-3.9,30.7-32.3
		c-0.3-0.3-0.5-0.5-0.7-0.7c0.1-0.2,0.3-0.3,0.5-0.5c0.1-0.1,0.3-0.3,0.4-0.4c0.7-0.7,1.3-1.5,2-2.3c0,0,0.8,0.8,2.1,2.1v0l0.3,0.3
		c0.1,0.1,0.2,0.2,0.3,0.3c0.3,0.3,0.7,0.7,1.1,1.1c1.2,1.2,2.8,2.6,4.5,4.1c0.4,0.3,0.8,0.7,1.1,1c6.4,5.6,15.3,12.5,24.3,16.3
		c0.3,0.1,0.6,0.3,0.9,0.4c0.2,0.1,0.3,0.1,0.5,0.2c0.3,0.1,0.6,0.2,0.8,0.3c0.6,0.3,1.3,0.5,1.9,0.7c0.3,0.1,0.6,0.2,0.9,0.3
		c0.3,0.1,0.5,0.2,0.8,0.2c0.7,0.2,1.4,0.4,2.1,0.5c0.3,0.1,0.6,0.1,1,0.2c0.5,0.1,1,0.1,1.4,0.2c0.3,0,0.5,0,0.8,0.1
		c0.2,0,0.4,0,0.6,0c0.3,0,0.6,0,0.9,0c2.6,0,5.1-0.5,7.5-1.7c2.5-1.3,4.6-2.4,6.2-3.3c4.8,12.6,12.7,25.3,24.9,24.6
		C453.8,139.2,448.7,187.9,466.7,194.4z"/>
	<g>
		<path class="st1" d="M308,82.1c-3.6-2.4-7.4-5.2-7.4-5.2c-0.5-0.5-9.6-10-9.3-16.5c0.1-1.5,0.7-2.8,1.7-3.7c0.9-0.8,2-1.1,3.2-0.9
			c5,0.8,11.5,9.4,14.9,14.4c-3.2-9.7-3.5-18.1-0.7-23.1c1.5-2.6,3.7-4.2,6.6-4.7c1.6-0.3,3,0.1,4.2,1.2c6,5,6.1,23.8,6.1,24.6
			l-0.9,0c0-0.2-0.1-19.1-5.8-23.9c-1-0.9-2.2-1.2-3.5-1c-2.6,0.5-4.6,1.9-5.9,4.2c-3,5.4-2.2,15.1,2.1,26.1l-0.8,0.4
			c-0.1-0.2-10-16.3-16.4-17.3c-1-0.2-1.8,0.1-2.5,0.7c-0.9,0.8-1.4,1.8-1.4,3.1c-0.3,6.1,8.9,15.7,9,15.8l0,0c0,0,3.8,2.7,7.3,5.1
			L308,82.1z"/>
	</g>
	<g>
		<path class="st1" d="M442.4,65.1c-8.5-15.4-32.3-14.2-32.5-14.2l-0.3,0l-0.1-0.3c-1.7-4.7-4.6-7.8-8.5-9.1
			c-10.5-3.6-25.3,5.6-25.4,5.7l-0.5-0.8c0.6-0.4,15.4-9.5,26.2-5.8c4.2,1.4,7.2,4.6,9,9.4c3-0.1,24.8-0.2,33,14.7L442.4,65.1z"/>
	</g>
	<path class="st1" d="M481.8,124.7c0,0-1.4-0.2-0.5-10.4c0.1-0.8,0.2-1.7,0.3-2.6C482.8,99,453,76.5,453,76.5s-1,0.7,0.9,5.5
		c0.7,1.7,1.8,4,3.4,7c1.3,2.3,2.3,4.7,3.1,6.9L439.8,76l2.1,0.1l11.2,0.4c-3.1-25.5-35.8-23.6-35.8-23.6
		c-7.5-20.7-34.7-3.7-34.7-3.7c-7.8-27.5-42.8,4.4-55.8,17.6c-0.3,0.3-0.6,0.6-0.8,0.8c-1-5.3-4.8-22.2-12-19.8
		c-8.5,2.8-6.9,15.5,0.5,28.2c-0.8-0.9-15.2-17.7-19.9-12.3c-4.6,5.4,8.3,15.6,9.4,16.4c0,0,0.1,0,0.1,0s0.5,0.3,1.4,0.7
		c-23.9,13.2-12.3,31.2-12.3,31.2s-13.9,12.3-16.5,28c-2.6,15.7,10.9,23.8,10.9,23.8c-10.1,26.8,19.9,33,19.9,33s1.1-5.2,2.5-12.3
		c6-4.3,14.4-13.9,9.9-32.1c0,0,19-5.9,16.4-25.3c0,0,29.2-4.1,30.8-33.8c0.7-0.7,1.3-1.5,2-2.3c0,0,0.8,0.8,2.1,2.1v0
		c0.1,0.1,0.2,0.2,0.3,0.3c0.1,0.1,0.2,0.2,0.3,0.3c0.3,0.3,0.7,0.7,1.1,1.1c1.2,1.2,2.8,2.6,4.5,4.1c0.4,0.3,0.8,0.7,1.1,1
		c6.4,5.6,15.3,12.5,24.3,16.3c0.3,0.1,0.6,0.3,0.9,0.4c0.2,0.1,0.3,0.1,0.5,0.2c0.3,0.1,0.5,0.2,0.8,0.3c0.6,0.3,1.3,0.5,1.9,0.7
		c0.3,0.1,0.6,0.2,0.9,0.3c0.3,0.1,0.5,0.2,0.8,0.2c0.7,0.2,1.4,0.4,2.1,0.5c0.3,0.1,0.6,0.1,1,0.2c0.5,0.1,1,0.1,1.4,0.2
		c0.3,0,0.5,0,0.8,0.1c0.2,0,0.4,0,0.6,0c0.3,0,0.6,0,0.9,0c2.6,0,5.1-0.5,7.5-1.7c2.5-1.3,4.6-2.4,6.2-3.3
		c4.8,12.6,12.7,25.3,24.9,24.6c0,0-5.1,48.7,13,55.2c0,0,0,0,0,0l11.9-12.5l-0.2-3.3c3.4,1,6.7,1.6,7.9,1.3
		c2.7-0.8,0.8-16.8,0.8-16.8s2.7,0.3,4.1-9.5C492.6,144,481.8,124.7,481.8,124.7z M323.2,81.8l-2.6-0.8c1.4-2.9,3.1-6.4,4.3-8.9
		l8.8,0.3C329.8,75.4,326.3,78.7,323.2,81.8z"/>
	<g>
		<path class="st1" d="M481.8,176.7C481.7,176.7,481.7,176.7,481.8,176.7c-0.3,0-0.5-0.2-0.5-0.5c0.1-5.3,8.2-12.8,8.6-13.1
			c0.1-0.1,0.2-0.1,0.4-0.1c0,0,2.7-0.1,4.2-9.6c1.5-9.6-9.8-28.3-10.9-30.1c-0.8-0.5-1.7-3.3-0.5-14.1
			c1.5-12.9-37.2-29.1-37.6-29.2c-0.3-0.1-0.4-0.4-0.3-0.7c0.1-0.3,0.4-0.4,0.7-0.3c1.6,0.7,39.8,16.7,38.2,30.3
			c-1.3,11.3-0.1,13,0,13.2c0.1,0,0.2,0.1,0.2,0.2c0.5,0.8,12.7,20.5,11.1,30.9c-1.4,9.2-4.1,10.3-5,10.4c-1.1,1-8,7.8-8.1,12.3
			C482.3,176.5,482,176.7,481.8,176.7z M484,122.4C484,122.4,484,122.4,484,122.4C484,122.4,484,122.4,484,122.4z M484,122.4
			C484,122.4,484,122.4,484,122.4S484,122.4,484,122.4z M484,122.4C484,122.4,484,122.4,484,122.4C484,122.4,484,122.4,484,122.4z
			 M484,122.4C484,122.4,484,122.4,484,122.4C484,122.4,484,122.4,484,122.4z M484,122.4C484,122.4,484,122.4,484,122.4
			C484,122.4,484,122.4,484,122.4z"/>
	</g>
	<path class="st0" d="M420.2,250.2c0,0.3-0.1,0.5-0.4,0.8c-2.8,2.2-8,6.3-15.9,9.3c-4.8,1.8-10.6,3.1-17.4,3.2
		c-4.8,0.1-9-0.8-12.8-2c-8.1-2.8-13.8-7.8-17-10.2c-0.4-0.3-0.5-0.7-0.3-1c0.3-0.6,1.6-1.1,3.1-1c10.8,0.5,35.8,1.4,57.3-0.3
		C418.7,248.9,420.1,249.5,420.2,250.2z"/>
	<g>
		<path class="st7" d="M385,373.8c-0.3,0-0.7-0.2-0.8-0.5c-5.7-12.2-27.5-53-67.2-65.1c-0.5-0.1-0.7-0.6-0.6-1.1
			c0.1-0.5,0.6-0.7,1.1-0.6c40.3,12.3,62.4,53.6,68.3,66c0.2,0.4,0,1-0.4,1.2C385.3,373.8,385.2,373.8,385,373.8z"/>
	</g>
	<g>
		<path class="st7" d="M389,373.8c-0.1,0-0.3,0-0.4-0.1c-0.4-0.2-0.6-0.7-0.4-1.2c5.8-12.4,27.9-53.7,68.3-66c0.5-0.1,1,0.1,1.1,0.6
			c0.1,0.5-0.1,1-0.6,1.1c-39.6,12.1-61.4,52.9-67.2,65.1C389.7,373.6,389.3,373.8,389,373.8z"/>
	</g>
	<path class="st0" d="M251,473"/>
	<path class="st5" d="M524.5,476v73.8c-0.3,0.2-0.5,0.3-0.8,0.5c-20.8,13.2-41.9,25.2-62.9,35.6c-16.6,8.2-33.8,14.8-51.3,19.8
		c0,0,0,0,0,0c-53.4,15.4-110,16.1-163.6,1.8c0,0,0,0-0.1,0C245.8,607.5,512.5,608,524.5,476z"/>
	<path class="st5" d="M555,529.4c-9.1,6.4-18.4,12.6-27.7,18.6c-0.7,0.5-1.4,0.9-2.1,1.4l0.3-70.4
		C525.6,519.5,544.4,527.9,555,529.4z"/>
	<path class="st5" d="M620,479.6c-1.3,1.1-2.7,2.2-4,3.3c-12.2-28.9-52.1-108.7-124.5-141.4l3.8-4.4
		C563.1,371.4,600.4,432.8,620,479.6z"/>
	<path class="st5" d="M384.2,373.3c0.1,0.7-0.4,1.2-0.8,1.4c-0.3,0.2-0.7,0.3-0.7,0.3c-0.2-0.3-0.5-0.6-1-0.8
		c-6.9-4-43.8-8.2-47.5-9.2c-3.8-1-24.6-3.1-44.5-14.2c0,0,0,0,0,0c0,0,0,0-0.1,0c-4.5-3.6-7.8-8-9.3-13.7c0,0,0-0.6,0.1-1.8
		c0.4-3.9,2-13.5,8.6-22.4c-1.6,7.5-1.4,15.5,0.8,21.8C295.2,350.8,384,372,384.2,373.3z"/>
	<path class="st5" d="M390.8,373.8c-0.1,0.7,0.4,1.2,0.8,1.4c0.3,0.2,0.7,0.3,0.7,0.3c0.2-0.3,0.5-0.6,1-0.8
		c6.9-4,43.8-8.2,47.5-9.2c3.8-1,24.6-3.1,44.5-14.2c0,0,0,0,0,0c0,0,0,0,0.1,0c4.5-3.6,7.8-8,9.3-13.7c0,0,0-0.6-0.1-1.8
		c-0.4-3.9-2-13.5-8.6-22.4c1.6,7.5,1.4,15.5-0.8,21.8C479.8,351.3,391,372.5,390.8,373.8z"/>
	<g>
		<path class="st7" d="M377.5,373.8c-0.1,0-0.2,0-0.2,0c-9.8-2.7-21.4-4.4-32.5-6c-26.8-3.9-54.6-8-63.4-25.8c-0.2-0.4,0-1,0.4-1.2
			c0.4-0.2,1,0,1.2,0.4c8.4,16.9,35.7,20.9,62.1,24.8c11.2,1.6,22.8,3.4,32.8,6c0.5,0.1,0.8,0.6,0.6,1.1
			C378.2,373.5,377.8,373.8,377.5,373.8z"/>
	</g>
	<path class="st12" d="M359.6,434c-0.2,0-0.3,0-0.5-0.1c-0.9-0.3-1.4-1.3-1.1-2.2c3.5-11.3,1.1-16.5-3.8-26.7
		c-1.3-2.8-2.8-5.9-4.4-9.6c-7.8-18.1,9.7-35.9,10.5-36.6c0.7-0.7,1.8-0.7,2.5,0c0.7,0.7,0.7,1.8,0,2.5c-0.2,0.2-16.6,16.9-9.8,32.8
		c1.5,3.6,3,6.7,4.3,9.4c5,10.4,7.9,16.6,4,29.3C361,433.5,360.3,434,359.6,434z"/>
	<g>
		<path class="st7" d="M396.6,373.8c-0.4,0-0.8-0.3-0.9-0.7c-0.1-0.5,0.2-1,0.6-1.1c9.9-2.7,21.5-4.4,32.8-6
			c26.4-3.9,53.7-7.9,62.1-24.8c0.2-0.4,0.8-0.6,1.2-0.4c0.4,0.2,0.6,0.8,0.4,1.2c-8.8,17.8-36.6,21.8-63.4,25.8
			c-11.2,1.6-22.7,3.3-32.5,6C396.7,373.8,396.7,373.8,396.6,373.8z"/>
	</g>
	<path class="st12" d="M414.5,434c0.2,0,0.3,0,0.5-0.1c0.9-0.3,1.4-1.3,1.1-2.2c-3.5-11.3-1.1-16.5,3.8-26.7
		c1.3-2.8,2.8-5.9,4.4-9.6c7.8-18.1-9.7-35.9-10.5-36.6c-0.7-0.7-1.8-0.7-2.5,0c-0.7,0.7-0.7,1.8,0,2.5c0.2,0.2,16.6,16.9,9.8,32.8
		c-1.5,3.6-3,6.7-4.3,9.4c-5,10.4-7.9,16.6-4,29.3C413,433.5,413.7,434,414.5,434z"/>
	<path class="st5" d="M427.1,324.6C427.1,324.6,427.1,324.6,427.1,324.6c-1.1,0.7-2,1.3-3,1.9c-2.1,1.5-4.2,3-6.1,4.7
		c-0.2,0.1-0.2,0.2-0.4,0.4h0c-0.5,0.4-1.1,0.9-1.6,1.4c-0.7,0.6-1.4,1.2-2.1,1.9c-0.5,0.5-1,1-1.6,1.5c-0.6,0.5-1.1,1-1.6,1.6
		c-3.6,3.7-6.8,7.5-9.5,11.1c-0.3,0.4-0.5,0.7-0.8,1.1c-0.1,0.1-0.1,0.2-0.2,0.3c-0.4,0.6-0.8,1.1-1.2,1.7c-1.5,2.1-2.8,4.1-4,6.1
		c-0.3,0.5-0.6,0.9-0.8,1.4c-0.2,0.2-0.3,0.4-0.4,0.6c-0.2,0.4-0.4,0.7-0.6,1c-1.4,2.3-2.5,4.5-3.4,6.2c-0.1,0.3-0.3,0.6-0.4,0.9
		c-0.4,0.8-0.7,1.4-1,2c-0.6,1.3-1,2.1-1,2.3h-1.2c-0.1-0.2-0.4-1-1-2.3c-1-2-2.5-5.2-4.8-9.1c-0.2-0.3-0.4-0.7-0.6-1
		c-0.1-0.2-0.3-0.4-0.4-0.6c-0.3-0.5-0.6-0.9-0.8-1.4c-0.4-0.7-0.9-1.5-1.4-2.3c-0.4-0.6-0.8-1.3-1.3-1.9c-0.4-0.6-0.9-1.3-1.3-1.9
		c-0.4-0.6-0.8-1.1-1.2-1.7c-0.1-0.1-0.2-0.2-0.2-0.3c-0.3-0.4-0.5-0.7-0.8-1.1c-0.2-0.3-0.4-0.6-0.7-0.9c-2.6-3.4-5.5-6.8-8.8-10.2
		c-0.5-0.5-1-1.1-1.6-1.6c-1.3-1.3-2.6-2.5-3.9-3.6c-0.5-0.5-1-0.9-1.6-1.4c-0.8-0.7-1.7-1.4-2.5-2h0c-1.2-1-2.5-1.9-3.7-2.8
		c-0.9-0.6-1.9-1.3-2.9-1.9c-0.8-0.5-1.5-0.9-2.3-1.4v0l0.1-9l0.3-18.6l0.3-18.3c0.3,0.2,0.6,0.5,0.8,0.7c1.1,0.9,2.3,1.8,3.4,2.7
		c1.4,17.6,5.3,42.3,16.3,50C383,343,399.7,342,405,337.3c4.7-4.1,15.6-18.4,22-20.5L427.1,324.6z"/>
	<path class="st10" d="M290.3,165c6.3,19,17.1,32,17.1,32s-29.9-6.2-19.9-33c0,0-13.5-8.1-10.9-23.8c2.6-15.7,16.5-28,16.5-28
		s-11.5-18,12.3-31.2c-0.9-0.4-1.4-0.7-1.4-0.7s0,0-0.1,0c8,1.3,14.5,3.7,14.5,3.7C290,83,298,118.5,298,118.5
		C281.3,132,289.8,163.5,290.3,165z"/>
	<path class="st10" d="M447.3,258.9c-7.3,12.9-16.7,22.6-27.9,28.8c-9.3,5.1-19.8,7.9-31.5,8.3c-3.9,0.1-8.1-0.5-12.4-1.7
		c-8.7-2.4-18-7.3-26.4-13.6c-1.2-0.9-2.3-1.8-3.4-2.7c-0.3-0.2-0.6-0.5-0.8-0.7c-0.9-0.7-1.8-1.5-2.7-2.3c-3.2-2.8-6.1-5.8-8.9-8.9
		c0-0.4,0.1-0.5,0.1-0.5s20,25.7,50,25.3C409,290.7,434.5,279.7,447.3,258.9z"/>
	<path class="st10" d="M452.7,247.9L452.7,247.9c-0.2,0.6-0.5,1.1-0.7,1.6c0.2-0.6,0.5-1.2,0.7-1.8
		C452.7,247.7,452.7,247.7,452.7,247.9z"/>
	<g>
		<path class="st0" d="M399.8,229.1c-6,1.9-11.2,2.8-15.5,2.8c-7,0-11.8-2.4-14.1-7c-1.3-2.8-0.9-5,0.5-7.2c0.8-1.3,1.8-2.5,3-4
			c2.2-2.6,5-5.9,7.1-10.6c2.3-5.1,2.1-13.4,1.1-21c-1.2-9.3-3.5-17.5-3.5-17.6c-0.1-0.3,0.1-0.5,0.3-0.6c0.3-0.1,0.5,0.1,0.6,0.4
			c0.1,0.5,1.5,5.5,2.7,11.9c1.6,8.9,2.7,20.6-0.4,27.4c-2.2,4.9-5,8.2-7.3,10.9c-1.3,1.6-2.4,2.9-3.1,4.1c-1.1,1.9-1.4,3.6-0.3,5.9
			c3.4,7.1,13.5,8.4,28.4,3.7c0.3-0.1,0.5,0.1,0.6,0.3C400.2,228.8,400.1,229.1,399.8,229.1z"/>
	</g>
	<path class="st10" d="M399.9,228.1c-0.8,0.3-1.5,0.6-2.2,0.8c-9.4,3.2-23,5-28.6-5.4c-0.7,5.1,5.8,13.7,11.9,14.6
		c7,1,21-9.7,21-9.7C401.6,228.4,400.9,228.3,399.9,228.1z"/>
	<g>
		<path class="st0" d="M330.7,153.5c0,0,40.3,2.7,37.2,10.2S341.1,180.1,330.7,153.5z"/>
		<path class="st10" d="M331.3,155.3c0,0,44.1,3,40.8,11.1S342.7,184.4,331.3,155.3z"/>
		<g>
			<path class="st10" d="M358.6,202.3c-0.5-0.1-0.9-0.3-1.2-0.6l-0.2-0.2c-0.9-0.9-1.7-1.7-2.5-2.4l-0.1-0.1c-0.8-0.7-1.6-1.4-2.4-2
				c-0.2-0.1-0.4-0.3-0.6-0.5c-0.2-0.2-0.4-0.3-0.6-0.4c-0.3-0.2-0.5-0.4-0.8-0.6c-0.2-0.2-0.4-0.3-0.5-0.4l-0.1,0l-0.8-0.5
				c-0.2-0.2-0.3-0.2-0.4-0.2l-0.5-0.2c-0.3-0.2-0.6-0.3-1-0.4l-1.6-0.4c-0.2,0-0.2-0.1-0.3-0.1c-0.2,0-0.3,0-0.5-0.1
				c-0.2,0-0.5,0-0.7-0.1l-0.3-0.1c-0.6-0.1-1.2-0.1-1.9-0.1c-0.4,0-0.7,0-1.1,0c-0.7,0-1.5,0.1-2.3,0.2c-0.4,0-0.7,0.1-1.1,0.1
				c-1.2,0.3-2.4,0.6-3.7,0.8l-0.4,0.1l-0.5,0c-0.9-0.1-1.6-0.8-1.8-1.7c-0.2-1,0.3-2,1.2-2.4c1.2-0.6,2.4-1.1,3.6-1.7l0.1,0l0.1,0
				c0.4-0.1,0.7-0.2,1.1-0.4c0.9-0.3,1.8-0.6,2.8-0.9c3.1-0.7,5.9-0.8,8.5-0.4c0.2,0,0.3,0.1,0.5,0.1c0.5,0.1,0.9,0.2,1.3,0.3
				c0.3,0.1,0.6,0.1,0.8,0.2c0.6,0.1,1.2,0.3,1.7,0.5c0.2,0.1,0.4,0.2,0.6,0.2l0.1,0c1.6,0.7,3,1.7,4.2,3c1.1,1.2,2,2.6,2.7,4.2
				c0.7,1.8,1,3.4,0.9,5c0,0.6-0.3,1.1-0.7,1.5c-0.4,0.4-1,0.6-1.6,0.6l-0.1,0L358.6,202.3z"/>
			<path class="st0" d="M332.9,194c1.1-0.7,2.1-1.5,3.2-2.2c1.2-0.6,2.3-1.2,3.5-1.8c2.5-1,5.2-1.6,8-1.5c0.7,0,1.4,0.1,2.1,0.2
				c0.7,0,1.4,0.3,2.1,0.4c1.4,0.4,2.7,1,3.9,1.9c1.1,0.9,2.1,2,2.8,3.2c0.7,1.2,1.3,2.5,1.4,4c0,0.1-0.1,0.2-0.2,0.2
				c-0.1,0-0.1,0-0.1,0l0,0c-1.1-0.8-2.1-1.5-3.1-2.2c-1-0.6-2-1.3-3-1.8c-0.5-0.2-1-0.6-1.5-0.8c-0.5-0.2-1-0.6-1.5-0.7l-0.8-0.4
				c-0.3-0.1-0.5-0.2-0.8-0.3c-0.5-0.2-1.1-0.3-1.7-0.5l-1.7-0.2c-0.6-0.1-1.2,0-1.8,0c-1.2-0.1-2.4,0.3-3.6,0.4
				c-1.2,0.2-2.4,0.6-3.6,1c-1.2,0.5-2.3,0.9-3.6,1.4l0,0c-0.1,0-0.2,0-0.3-0.1C332.8,194.1,332.8,194,332.9,194z"/>
		</g>
	</g>
	<g>
		<path class="st0" d="M438.6,153.1c0,0-40.3,2.7-37.2,10.2C404.4,170.7,428.1,179.8,438.6,153.1z"/>
		<path class="st10" d="M438,154.9c0,0-44.1,3-40.8,11.1C400.6,174.2,426.6,184.1,438,154.9z"/>
		<g>
			<path class="st10" d="M410.7,202c0.5-0.1,0.9-0.3,1.2-0.6l0.2-0.2c0.9-0.9,1.7-1.7,2.5-2.4l0.1-0.1c0.8-0.7,1.6-1.4,2.4-2
				c0.2-0.1,0.4-0.3,0.6-0.5c0.2-0.2,0.4-0.3,0.6-0.4c0.3-0.2,0.5-0.4,0.8-0.6c0.2-0.2,0.4-0.3,0.5-0.4l0.1,0l0.8-0.5
				c0.2-0.2,0.3-0.2,0.4-0.2l0.5-0.2c0.3-0.2,0.6-0.3,1-0.4l1.6-0.4c0.2,0,0.2-0.1,0.3-0.1c0.2,0,0.3,0,0.5-0.1c0.2,0,0.5,0,0.7-0.1
				l0.3-0.1c0.6-0.1,1.2-0.1,1.9-0.1c0.4,0,0.7,0,1.1,0c0.7,0,1.5,0.1,2.3,0.2c0.4,0,0.7,0.1,1.1,0.1c1.2,0.3,2.4,0.6,3.7,0.8
				l0.4,0.1l0.5,0c0.9-0.1,1.6-0.8,1.8-1.7c0.2-1-0.3-2-1.2-2.4c-1.2-0.6-2.4-1.1-3.6-1.7l-0.1,0l-0.1,0c-0.4-0.1-0.7-0.2-1.1-0.4
				c-0.9-0.3-1.8-0.6-2.8-0.9c-3.1-0.7-5.9-0.8-8.5-0.4c-0.2,0-0.3,0.1-0.5,0.1c-0.5,0.1-0.9,0.2-1.3,0.3c-0.3,0.1-0.6,0.1-0.8,0.2
				c-0.6,0.1-1.2,0.3-1.7,0.5c-0.2,0.1-0.4,0.2-0.6,0.2l-0.1,0c-1.6,0.7-3,1.7-4.2,3c-1.1,1.2-2,2.6-2.7,4.2c-0.7,1.8-1,3.4-0.9,5
				c0,0.6,0.3,1.1,0.7,1.5c0.4,0.4,1,0.6,1.6,0.6l0.1,0L410.7,202z"/>
			<path class="st0" d="M436.4,193.7c-1.1-0.7-2.1-1.5-3.2-2.2c-1.2-0.6-2.3-1.2-3.5-1.8c-2.5-1-5.2-1.6-8-1.5
				c-0.7,0-1.4,0.1-2.1,0.2c-0.7,0-1.4,0.3-2.1,0.4c-1.4,0.4-2.7,1-3.9,1.9c-1.1,0.9-2.1,2-2.8,3.2c-0.7,1.2-1.3,2.5-1.4,4
				c0,0.1,0.1,0.2,0.2,0.2c0.1,0,0.1,0,0.1,0l0,0c1.1-0.8,2.1-1.5,3.1-2.2c1-0.6,2-1.3,3-1.8c0.5-0.2,1-0.6,1.5-0.8
				c0.5-0.2,1-0.6,1.5-0.7l0.8-0.4c0.3-0.1,0.5-0.2,0.8-0.3c0.5-0.2,1.1-0.3,1.7-0.5l1.7-0.2c0.6-0.1,1.2,0,1.8,0
				c1.2-0.1,2.4,0.3,3.6,0.4c1.2,0.2,2.4,0.6,3.6,1c1.2,0.5,2.3,0.9,3.6,1.4l0,0c0.1,0,0.2,0,0.3-0.1
				C436.5,193.8,436.5,193.7,436.4,193.7z"/>
		</g>
	</g>
	<path class="st10" d="M367.7,272.3c0,0,20-10.7,37.7-0.3C405.3,272,386.7,266.3,367.7,272.3z"/>
	<path class="st13" d="M420.2,250.2c-0.1,0.1-0.3,0.2-0.4,0.3c-5.2,3.5-52.1,1.5-56.8,1.7c-2.5,0.1-4.9-0.9-6.6-2
		c0.3-0.6,1.6-1.1,3.1-1c10.8,0.5,35.8,1.4,57.3-0.3C418.7,248.9,420.1,249.5,420.2,250.2z"/>
	<path class="st7" d="M403.9,260.3c-4.8,1.8-10.6,3.1-17.4,3.2c-4.8,0.1-9-0.8-12.8-2c3.2-1.4,8.5-3,16.5-2.7
		C397.4,259,401.5,259.5,403.9,260.3z"/>
	<path class="st10" d="M381.8,203.5c-2.2,4.9-5,8.2-7.3,10.9c-1.3,1.6-2.4,2.9-3.1,4.1c-0.3-0.2-0.5-0.5-0.7-0.8
		c-0.2-0.5-0.3-1-0.2-1.7c0.6-3.2,12-11.2,11.5-33.9c0-2,0.2-3.9,0.1-6C383.7,185,384.9,196.8,381.8,203.5z"/>
</g>
<g id="Capa_3">
</g>
</svg>
