<?xml version="1.0" encoding="utf-8"?>
<!-- Generator: Adobe Illustrator 21.0.0, SVG Export Plug-In . SVG Version: 6.00 Build 0)  -->
<svg version="1.1" id="Capa_1" xmlns="http://www.w3.org/2000/svg" xmlns:xlink="http://www.w3.org/1999/xlink" x="0px" y="0px"
	 viewBox="0 0 745.9 633.6" style="enable-background:new 0 0 745.9 633.6;" xml:space="preserve">
<style type="text/css">
	.st0{fill:#1A191A;}
	.st1{fill:#302E2F;}
	
		.st2{opacity:0.47;fill:none;stroke:#E99828;stroke-width:1.681;stroke-linecap:round;stroke-linejoin:round;stroke-miterlimit:10;stroke-dasharray:4.2025;}
</style>
<g>
	<path class="st0" d="M114.3,528.9c16.5,18.7,42.6,41.4,82.6,59.7c82.8,38,178.3,35.7,260-4.5c79.6-39.2,159.9-102.5,222-163.6
		c83.8-82.4,74.8-220.3-19.1-291C574.3,65.2,451.3,1,302.2,3c0,0-150.5-20.4-247,89.1c-23.2,26.3-28.1,64-12.2,95.3
		c10.5,20.6,24.8,39,35,48c21.4,19.1,72.8,69.9,41.6,134.1c-23.4,48.1-34.5,57.2-34,85.7C86,482.4,96.4,508.5,114.3,528.9z"/>
	<g>
		<g>
			<path class="st1" d="M128.6,426.2C128.8,426.3,129,426.4,128.6,426.2c0.3,0.1,0.5,0.3,0.7,0.4c0.2,0.1,0.3,0.2,0.5,0.4
				c0.1,0.1,0.6,0.6,0.2,0.1c0.3,0.3,0.6,0.6,0.8,0.9c0,0.1,0.5,0.8,0.3,0.4c-0.2-0.3,0.2,0.5,0.2,0.4c1.7-1.4,3.4-2.8,5.2-4.2
				c-1-0.6-1.9-1.2-2.9-1.9c-1.5-1-3.7-0.8-4.8,0.8c-1,1.5-0.9,3.8,0.8,4.8c1,0.6,1.9,1.2,2.9,1.9c1.2,0.8,3,0.9,4.2-0.1
				c1.1-1,1.7-2.7,1-4.1c-1.4-2.8-3.6-4.9-6.5-6.3c-1.6-0.8-3.9,0.3-4.5,1.9C126,423.6,126.9,425.3,128.6,426.2L128.6,426.2z"/>
		</g>
		<g>
			<path class="st1" d="M148.9,427.1c0.3,0.1,0.6,0.3,0.9,0.4c0,0,0.5,0.2,0.5,0.2c0-0.1-0.6-0.4,0,0c0.3,0.2,0.6,0.4,0.9,0.5
				c0.1,0.1,0.3,0.2,0.4,0.3c0.2,0.1,0.1,0.1-0.1-0.1c-0.6-0.5-0.8-1.2-0.7-2.1c0.2-0.5,0.4-1.1,0.6-1.6c0,0,0,0.1-0.1,0.1
				c0.5-0.4,0.9-0.7,1.4-1.1c1,0.1,2,0.2,2.9,0.3c0.4,0.5,0.7,0.9,1.1,1.4c0,0,0-0.1,0-0.1c0.1,0.6,0.2,1.2,0.3,1.8c0,0,0-0.1,0-0.1
				c-0.2,0.5-0.4,1.1-0.6,1.6c0,0,0,0,0.1-0.1c0.6-0.6,0.7-1.8,0.6-2.6c-0.1-0.8-0.7-1.8-1.4-2.2c-0.7-0.5-1.7-0.8-2.6-0.6
				c-1,0.2-1.6,0.7-2.2,1.4c-0.9,0.9-0.9,2.6-0.4,3.6c0.5,1.1,1.4,1.8,2.5,2c2.5,0.6,5.1-1.5,4.6-4.1c-0.5-2.8-3.8-4.4-6.2-5.4
				c-1.7-0.7-3.9,0.2-4.5,1.9C146.4,424.5,147.2,426.4,148.9,427.1L148.9,427.1z"/>
		</g>
		<g>
			<path class="st1" d="M132.2,444.3c0.2,0.1,0.5,0.2,0.7,0.3c0.1,0,0.6,0.3,0.3,0.1c-0.4-0.2,0.3,0.2,0.4,0.3
				c0.5,0.3-0.1-0.2,0.1,0.1c0.3,0.3,0.6,0.7,0.8,1c-0.2-0.3-0.2-0.3,0,0c0.1,0.3,0.2,0.5,0.3,0.8c0.1-1.1,0.2-2.3,0.4-3.4
				c-0.3,0.4,0.1-0.1,0.2-0.2c0.3-0.2,0.6-0.4,0.9-0.4c-0.5,0.1,0.2,0,0.3,0c-0.6,0,0.5,0.2,0.1,0.1c-0.2,0-0.5-0.1-0.1,0
				c0.2,0.1,0.3,0.1,0.1,0c-0.1-0.1-0.1-0.1,0.1,0.1c0.1,0.1,0.2,0.2,0.3,0.4c0.1,0.2,0.2,0.3,0.1,0.1c-0.1-0.2-0.1-0.1,0,0.2
				c0.1,0.2,0.1,0.5,0.1,0.8c0.1-1.8-1.1-3.7-3-3.8c-1.8-0.1-3.7,1.1-3.8,3c-0.1,2.4,1.1,4.4,3.3,5.5c1.8,0.9,4.2,0.7,5.9-0.6
				c4.5-3.6-1.2-9.5-4.9-10.7c-1.7-0.6-3.8,0.1-4.5,1.9C129.6,441.5,130.3,443.7,132.2,444.3L132.2,444.3z"/>
		</g>
		<g>
			<path class="st1" d="M158.2,443.3c-1.7-1.7-3.5-2.7-5.9-3.2c-1.7-0.4-3.7,1.3-3.8,3c-0.1,1.8,0.4,3.6,1.7,4.9
				c0.7,0.6,1.3,1.1,2.3,1.2c0.8,0.1,1.9-0.2,2.6-0.8c1.3-1.1,1.9-3.5,0.5-4.8c-0.1-0.1-0.2-0.2-0.3-0.3c-0.4-0.4,0.2,0.5,0.1,0.1
				c-0.2-0.4,0.1,0.7,0.1,0.3c0-0.3,0-0.8,0,0.2c-1.3,1-2.5,2-3.8,3c0.5,0.1-0.2,0-0.3-0.1c0.1,0.1,0.3,0.1,0.4,0.1
				c0.1,0,0.3,0.1,0.4,0.2c0.1,0,0.7,0.3,0.2,0.1c-0.5-0.3,0,0,0.1,0.1c0.1,0.1,0.2,0.2,0.3,0.2c0.1,0.1,0.2,0.2,0.3,0.3
				c0.3,0.2-0.6-0.6-0.1-0.1c1.2,1.3,3.4,1.8,4.8,0.5C159,447,159.6,444.7,158.2,443.3L158.2,443.3z"/>
		</g>
		<g>
			<path class="st1" d="M145,466.7c1.1-0.2,2.3-0.4,3.4-0.5c1.8-0.3,3.2-2.1,2.9-3.9c-0.4-1.8-2-3.2-3.9-2.9
				c-1.1,0.2-2.3,0.4-3.4,0.5c-1.8,0.3-3.2,2.1-2.9,3.9C141.4,465.6,143.1,467,145,466.7L145,466.7z"/>
		</g>
		<g>
			<path class="st1" d="M151.7,482.5c-1.2,0.1-2.4-0.5-2.9-1.6c0.2,0.4-0.2-0.9-0.1-0.5c0,0.3,0.1-1,0-0.5c0.2-1.3,1.1-2.1,2.3-2.4
				c-0.9,0.2-1.7,0.6-2.2,1.4c-0.5,0.7-0.8,1.7-0.6,2.6c0.3,1.7,2.1,3.3,3.9,2.9c1.3-0.3,2.3-0.9,2.9-2.1c0.5-0.9,0.7-1.9,0.5-2.9
				c-0.1-0.8-0.5-1.7-1.1-2.3c-1-1.1-2.2-1.5-3.7-1.4c-1.8,0.1-3.2,2.2-2.9,3.9C148.1,481.6,149.7,482.6,151.7,482.5L151.7,482.5z"
				/>
		</g>
		<g>
			<path class="st1" d="M164.4,496.6c0.8,1.4,1.6,3.1,1.9,4.4c1.8-1.1,3.6-2.2,5.4-3.3c-1.3-1-2.6-1.9-3.8-2.9
				c-1.5-1.1-3.7-0.7-4.8,0.8c-1.1,1.5-0.7,3.7,0.8,4.8c1.3,1,2.6,1.9,3.8,2.9c2.2,1.7,6.1-0.4,5.4-3.3c-0.5-2.2-1.3-4.2-2.4-6.1
				c-0.9-1.5-2.8-2.6-4.6-1.7C164.6,492.8,163.4,494.9,164.4,496.6L164.4,496.6z"/>
		</g>
		<g>
			<path class="st1" d="M168.9,476.8c-0.5,0-0.6,0-0.2,0c0.4,0.1,0.3,0-0.2-0.1C168.6,476.8,168.7,476.9,168.9,476.8
				C169.1,477,169.1,477,168.9,476.8c-0.3-0.1-0.3-0.1,0,0.1c0.3,0.2,0.2,0.2-0.1-0.2c0.1,0.1,0.2,0.2,0.3,0.3
				c-0.3-0.4-0.3-0.5-0.1-0.2c1.5-1.5,2.9-3.1,4.4-4.6c-0.4-0.1-0.7-0.3-1.1-0.4c-0.2-0.1-0.4-0.1-0.6-0.3c0.1,0.1,0.2,0.1,0.3,0.2
				c-0.1-0.1-0.2-0.1-0.3-0.2c-0.7-0.4-1.4-0.9-2-1.5c-1.3-1.2-3.9-0.7-4.8,0.8c-1.1,1.7-0.7,3.5,0.8,4.8c1.5,1.4,3.3,2.4,5.2,3.1
				c1.3,0.5,2.8,0.2,3.7-0.9c0.9-1,1.3-2.5,0.7-3.8c-1.4-2.9-4.2-4.3-7.4-4.1c-1.8,0.1-3.2,2.2-2.9,3.9
				C165.3,475.9,167,477,168.9,476.8L168.9,476.8z"/>
		</g>
		<g>
			<path class="st1" d="M185.9,503.8c0.3,0.2,0.6,0.4,0.8,0.6c-0.4-0.4,0.3,0.4,0.4,0.5c0.1,0.2,0.1,0.2,0-0.1
				c0.1,0.1,0.2,0.3,0.2,0.4c0.1,0.1,0.1,0.3,0.2,0.5c-0.1-0.4-0.1-0.3,0,0.1c1.6-1.2,3.1-2.5,4.7-3.7c-0.2-0.1-0.4-0.2-0.6-0.3
				c0.5,0.3-0.1-0.1-0.2-0.2c-0.2-0.1-0.4-0.3-0.5-0.4c-0.1-0.1-0.6-0.6-0.2-0.2c-0.3-0.3-0.6-0.7-0.8-1c-0.4-0.5,0,0.1-0.1-0.2
				c-0.1-0.2-0.2-0.5-0.4-0.7c-0.7-1.6-2.9-2.6-4.6-1.7c-1.7,0.8-2.5,2.8-1.7,4.6c1.3,3,3.7,5.2,6.6,6.5c2.3,1,5.2-1.2,4.7-3.7
				c-0.5-2.6-2-5-4.3-6.5c-1.5-1-3.7-0.9-4.8,0.8C184.2,500.5,184.3,502.8,185.9,503.8L185.9,503.8z"/>
		</g>
		<g>
			<path class="st1" d="M200.1,515.8c4.4-0.7,3.3-7.5-1.1-6.8C194.6,509.7,195.7,516.5,200.1,515.8L200.1,515.8z"/>
		</g>
		<g>
			<path class="st1" d="M204.9,500.1c1.3,1.2,2.7,2.4,4,3.6c1.4,1.2,3.8,0.7,4.8-0.8c1.1-1.7,0.7-3.5-0.8-4.8
				c-1.3-1.2-2.7-2.4-4-3.6c-1.4-1.2-3.8-0.7-4.8,0.8C203,497,203.5,498.8,204.9,500.1L204.9,500.1z"/>
		</g>
		<g>
			<path class="st1" d="M186.4,480.8c-0.2,2.4,0.5,4.7,1.9,6.6c1.1,1.4,3.5,1.7,4.8,0.5c1.4-1.3,1.7-3.3,0.5-4.8
				c-0.1-0.1-0.2-0.3-0.3-0.4c0.1,0.1,0.1,0.2,0.2,0.3c-0.1-0.1-0.4-1.1-0.3-0.6c0.2,0.5,0-0.4-0.1-0.5c0-0.3,0-0.2,0,0.3
				c0-0.2,0-0.4,0-0.5c0.1-1.8-1.1-3.7-3-3.8C188.4,477.7,186.6,478.9,186.4,480.8L186.4,480.8z"/>
		</g>
	</g>
	<path class="st2" d="M361.4,629.6c-44.4,5.6-88.3,1.6-130.6-11.7c-36.3-11.4-67.4-28.5-92.4-50.7c-22.1-19.6-36.5-46.1-40.5-74.8
		c-3.2-22.4,1.8-35.4,10.9-59c3.4-9,7.7-20.1,12.5-34.2c14.7-43.2-3.7-83-54.8-118.2c-10.5-7.2-28-23.5-42.9-45.5
		C13,220,7.5,201.7,7.5,182.8c0.1-18.8,5.7-37.1,16.3-52.7C50.9,90.4,87.9,59.4,134,38c38.8-18,76.1-25.5,100.5-28.5
		c16.1-2,26.9-2.2,29.7-2.2c2.1-0.3,4.2-0.6,6.4-0.8C337.7-2,406.8,3,475.7,21.2c55.1,14.5,110.2,37.5,163.9,68.3
		c50.7,29.1,86.1,78.7,97.2,136.2c11.1,57.5-3.3,116.8-39.6,162.7C661,434.1,586.6,520,495.3,580.1
		C455.1,606.5,408.8,623.7,361.4,629.6C361.4,629.6,361.4,629.6,361.4,629.6z"/>
</g>
</svg>
