<?xml version="1.0" encoding="utf-8"?>
<!-- Generator: Adobe Illustrator 21.0.0, SVG Export Plug-In . SVG Version: 6.00 Build 0)  -->
<svg version="1.0" id="Capa_1" xmlns="http://www.w3.org/2000/svg" xmlns:xlink="http://www.w3.org/1999/xlink" x="0px" y="0px"
	 viewBox="0 0 717 612" style="enable-background:new 0 0 717 612;" xml:space="preserve">
<style type="text/css">
	.st0{opacity:0.53;fill:#7F8080;}
</style>
<path class="st0" d="M90.5,524c16.3,18.5,42.2,40.9,81.7,59.1c81.9,37.6,176.4,35.4,257.2-4.4c78.8-38.8,158.2-101.4,219.7-161.9
	c82.9-81.6,74-217.9-18.9-287.9C545.6,65.1,423.9,1.6,276.3,3.6c0,0-148.9-20.2-244.3,88.2c-22.9,26-27.8,63.3-12.1,94.2
	c10.3,20.4,24.6,38.5,34.6,47.5c21.2,18.9,72.1,69.2,41.2,132.7c-23.2,47.6-34.1,56.6-33.7,84.8C62.4,477.9,72.7,503.7,90.5,524z"/>
</svg>
