<?xml version="1.0" encoding="utf-8"?>
<!-- Generator: Adobe Illustrator 21.0.0, SVG Export Plug-In . SVG Version: 6.00 Build 0)  -->
<svg version="1.0" id="Capa_1" xmlns="http://www.w3.org/2000/svg" xmlns:xlink="http://www.w3.org/1999/xlink" x="0px" y="0px"
	 viewBox="0 0 792 393" style="enable-background:new 0 0 792 393;" xml:space="preserve">
<style type="text/css">
	.st0{opacity:0.2;fill:#555454;}
	.st1{opacity:0.47;fill:#555454;}
</style>
<path class="st0" d="M791-10c0,0,0,0-3.2,10c-3.1,9.7-9.1,28.7-20.8,66c-24,76-74,108-244,136c-92.9,26.8-135,96.9-136,191H-3V-10
	H791z"/>
<path class="st1" d="M94.6,158.1c-50,13-47.8,65.2-45.6,78.2c2.2,13,47.8,78.2-43.5,110.8c-4.6,0.7-9.1,1.2-13.5,1.5V0h173.6
	c10.3,21.7,18.5,48.4,22.4,73.4C196.7,127.7,144.6,145.1,94.6,158.1z"/>
</svg>
