<?xml version="1.0" encoding="utf-8"?>
<!-- Generator: Adobe Illustrator 21.0.0, SVG Export Plug-In . SVG Version: 6.00 Build 0)  -->
<svg version="1.0" id="Capa_1" xmlns="http://www.w3.org/2000/svg" xmlns:xlink="http://www.w3.org/1999/xlink" x="0px" y="0px"
	 viewBox="0 0 337.4 323" style="enable-background:new 0 0 337.4 323;" xml:space="preserve">
<style type="text/css">
	.st0{opacity:0.2;}
	.st1{opacity:0.56;fill:#F8F7F7;}
	.st2{fill:#F8F7F7;}
</style>
<g>
	<g class="st0">
		<path class="st1" d="M0.9,261.5c20,5.3,46.6,18.9,50.5,53.8c0.2,1.8,0.3,3.7,0.4,5.6l-2.5,0.1c-0.1-2-0.2-3.9-0.4-5.7
			c-3.9-33.5-28.9-46.5-48-51.6V261.5z"/>
	</g>
	<g class="st0">
		<path class="st1" d="M0.9,126.3c34.1,27.5,80.7,64.6,101.4,78.7c12.7,8.7,36.4,21.9,61.4,35.9c48.7,27.3,103.6,58,114.7,74.4
			c0.4,0.5,0.7,1.1,0.9,1.6l-2.2,1c-0.4-0.8-1-1.7-1.7-2.6c-12.6-16.2-67.9-47.2-112.9-72.4c-25.1-14.1-48.8-27.3-61.6-36.1
			C80.4,193,34.9,156.8,0.9,129.4V126.3z"/>
	</g>
	<g class="st0">
		<path class="st2" d="M337.8,282.5v2.7c-28.7-14.7-88.7-47.7-180-108.4C43.1,100.4,11.1,34.4,2.6,8.7c0.4-1.1,1-2.1,1.6-3.1
			c7.2,23.4,37,90.6,155.1,169.2C249.2,234.7,308.8,267.5,337.8,282.5z"/>
	</g>
	<g class="st0">
		<g>
			<path class="st1" d="M103.7,29.7C99.5,21.8,95.6,13.5,92.4,5c-0.2-0.6-0.9-0.9-1.6-0.7c-0.6,0.2-1,0.9-0.7,1.5
				c3.3,8.6,7.2,17,11.5,25c0.2,0.4,0.7,0.6,1.1,0.6c0.2,0,0.4,0,0.6-0.1C103.8,31,104,30.3,103.7,29.7z M120.9,56.5
				c-3.6-10.2-7.2-9.9-10.4-15c-0.3-0.6-1.1-0.8-1.7-0.4c-0.6,0.3-0.8,1-0.4,1.6c3.3,5.2,6.8,10.3,10.5,15.2c0.2,0.3,0.6,0.5,1,0.5
				c0.2,0,0.5-0.1,0.7-0.2C121.2,57.8,121.2,57.1,120.9,56.5z M155.9,92.9c-7.2-5.9-13.9-12.3-20.1-18.9c-0.5-0.5-1.2-0.5-1.8-0.1
				c-0.5,0.4-0.5,1.2-0.1,1.7c6.3,6.7,13.1,13.1,20.4,19.1c0.2,0.2,0.5,0.3,0.8,0.3c0.3,0,0.7-0.1,0.9-0.4
				C156.4,94.1,156.4,93.3,155.9,92.9z M202.4,123.6l-3.2-1.7c-7.3-3.9-14.3-8.1-21-12.4c-0.5-0.4-1.3-0.3-1.7,0.3
				c-0.4,0.5-0.2,1.3,0.3,1.7c6.7,4.4,13.8,8.6,21.1,12.6l3.2,1.7c0.2,0.1,0.4,0.1,0.6,0.1c0.4,0,0.9-0.2,1.1-0.6
				C203.2,124.6,203,123.9,202.4,123.6z M231.5,138.7c-5.4-2.7-10.9-5.6-16.7-8.5c-0.6-0.3-1.3-0.1-1.7,0.5
				c-0.3,0.6-0.1,1.3,0.5,1.6c5.7,3,11.3,5.9,16.7,8.6c0.2,0.1,0.4,0.1,0.6,0.1c0.4,0,0.9-0.2,1.1-0.6
				C232.3,139.7,232.1,139,231.5,138.7z M278.1,160.7c-8.2-3.6-16.8-7.5-25.6-11.7c-0.6-0.3-1.4-0.1-1.7,0.5c-0.3,0.6,0,1.3,0.6,1.6
				c8.8,4.2,17.4,8.2,25.7,11.8c0.2,0.1,0.3,0.1,0.5,0.1c0.5,0,0.9-0.3,1.1-0.7C279,161.7,278.8,161,278.1,160.7z M330.8,180.9
				c-8.3-2.6-17.3-5.8-26.6-9.4c-0.6-0.3-1.4,0-1.6,0.6c-0.2,0.6,0.1,1.3,0.7,1.6c9.4,3.6,18.4,6.8,26.7,9.4c0.1,0,0.3,0.1,0.4,0.1
				c0.5,0,1-0.3,1.2-0.8C331.8,181.7,331.4,181.1,330.8,180.9z"/>
		</g>
	</g>
	<g class="st0">
		<path class="st1" d="M227.5-6c-0.7,13.9,3.1,27.4,14.4,40.4c22.1,25.5,61.1,35.8,96,39.5v2.4c-35.4-3.8-75.3-14.3-97.9-40.4
			c-11.7-13.5-15.8-27.5-15-41.9H227.5z"/>
	</g>
	<g class="st0">
		<path class="st1" d="M99,302.3l-1.2-2.1c-0.3-0.6-1.1-0.8-1.7-0.5c-0.6,0.3-0.8,1-0.5,1.6l1.2,2c2.5,4.4,4.7,8.3,6.8,11.9h2.9
			C104.2,311.4,101.8,307.1,99,302.3z M27.7,209.4c-8.1-4.7-17.2-8.6-26.8-11.7v2.5c9.2,3,17.8,6.8,25.5,11.3
			c0.2,0.1,0.4,0.2,0.6,0.2c0.4,0,0.8-0.2,1.1-0.6C28.5,210.4,28.3,209.7,27.7,209.4z M54.6,230.8c-4.4-4.8-9.2-9.2-14.5-13.2
			c-0.5-0.4-1.3-0.3-1.7,0.2c-0.4,0.5-0.3,1.3,0.2,1.7c5.1,3.9,9.9,8.3,14.2,13c0.2,0.3,0.6,0.4,0.9,0.4c0.3,0,0.6-0.1,0.8-0.3
			C55,232.1,55.1,231.3,54.6,230.8z M83.5,275.3c-4.9-8.3-9.7-16.4-14.7-24.8c-0.3-0.6-1.1-0.8-1.7-0.5c-0.6,0.3-0.8,1.1-0.4,1.6
			c5,8.3,9.8,16.4,14.7,24.7c0.2,0.4,0.6,0.6,1.1,0.6c0.2,0,0.4,0,0.6-0.2C83.6,276.6,83.8,275.8,83.5,275.3z"/>
	</g>
</g>
</svg>
