<?xml version="1.0" encoding="utf-8"?>
<!-- Generator: Adobe Illustrator 21.0.0, SVG Export Plug-In . SVG Version: 6.00 Build 0)  -->
<svg version="1.1" id="Capa_1" xmlns="http://www.w3.org/2000/svg" xmlns:xlink="http://www.w3.org/1999/xlink" x="0px" y="0px"
	 viewBox="0 0 471 515.3" style="enable-background:new 0 0 471 515.3;" xml:space="preserve">
<style type="text/css">
	.st0{fill:#202020;}
	.st1{opacity:0.2;}
	.st2{fill:#F7F7F7;}
</style>
<g>
	<path class="st0" d="M449.4,431.3c-0.2,0.3-0.3,0.7-0.5,1c-10.9,20.8-30,38-54.4,55.1c-15.9,11.2-34.7,16.8-54.5,18.5
		c-0.2,0-0.3,0-0.5,0c-2.7,0.2-5.5,0.4-8.2,0.4c-0.3,0-0.5,0-0.8,0c-40.9,1-84.5-13.6-113.6-29.9c-0.2-0.1-0.5-0.3-0.7-0.4
		c-1.8-1-3.6-2.1-5.3-3.1c-0.1-0.1-0.3-0.2-0.5-0.3c-6.8-4.2-12.5-8.4-17-12.4c-19.2-17.3-47.4-26.5-76.2-38.3
		c-0.2-0.1-0.5-0.2-0.7-0.3c-15.6-6.4-31.4-13.6-46-23.2c-0.2-0.1-0.4-0.3-0.7-0.4c-12.6-8.4-24.3-18.7-34.3-31.9
		c-0.2-0.2-0.3-0.4-0.5-0.7c-1.5-2.1-3-4.2-4.5-6.4C7,321.6,3.7,286,8.8,256.8c0-0.3,0.1-0.5,0.1-0.8c6.7-37.1,26.9-63.6,35.8-70.1
		c11-8,28.8-11.2,51.3-34.4c0.2-0.2,0.4-0.4,0.6-0.6c9.9-10.3,20.7-24.5,32.2-44.6c15.1-34.9,34.6-57.2,53.7-71.5
		c0.1-0.1,0.3-0.2,0.4-0.3c2.1-1.6,4.2-3,6.3-4.4c0.2-0.2,0.4-0.3,0.7-0.4c28.1-18.2,53.8-19.9,60.8-20c0.3,0,0.5,0,0.8,0
		c0.7,0,1.1,0,1.1,0c18.4,0.6,35,2.6,49.8,5.7c0.2,0,0.3,0.1,0.5,0.1c0,0,0.1,0,0.2,0c0.3,0,0.6,0.1,0.8,0.2
		c33,7.1,57.4,19.8,75.5,35.4c0.3,0.3,0.6,0.5,0.9,0.8c58.3,51.3,48.1,132.9,39.8,149.6c-12,24.3-9.7,50.4,4.9,88.3
		C462.3,355.5,466.4,398,449.4,431.3z"/>
	<g class="st1">
		<path class="st2" d="M449.4,431.3c-0.3-1.1-0.5-2.2-0.8-3.4l-0.7,0.2c0.4,1.5,0.7,2.9,1,4.2c0.1,0.2,0.1,0.4,0.2,0.6l0.7-0.2
			C449.6,432.3,449.5,431.8,449.4,431.3z M446,418.3l-0.7,0.2c0.5,1.7,0.9,3.3,1.3,4.8l0.7-0.2C446.9,421.5,446.5,419.9,446,418.3z
			 M443.4,408.6l-0.7,0.2c0.5,1.6,0.9,3.2,1.4,4.8l0.7-0.2C444.3,411.8,443.8,410.2,443.4,408.6z M440.5,399l-0.7,0.2
			c0.5,1.6,1,3.2,1.4,4.8l0.7-0.2C441.5,402.2,441,400.6,440.5,399z M437.5,389.5l-0.7,0.2c0.5,1.6,1,3.2,1.5,4.8l0.7-0.2
			C438.5,392.7,438,391.1,437.5,389.5z M434.3,380l-0.7,0.3c0.5,1.6,1.1,3.2,1.6,4.7l0.7-0.2C435.4,383.1,434.9,381.6,434.3,380z
			 M431,370.5l-0.7,0.3c0.6,1.6,1.1,3.2,1.7,4.7l0.7-0.3C432.1,373.7,431.6,372.1,431,370.5z M427.5,361.1l-0.7,0.3
			c0.6,1.6,1.2,3.1,1.8,4.7l0.7-0.3C428.7,364.3,428.1,362.7,427.5,361.1z M423.8,351.8l-0.7,0.3c0.6,1.6,1.3,3.1,1.8,4.7l0.7-0.3
			C425.1,354.9,424.5,353.4,423.8,351.8z M420,342.6l-0.7,0.3c0.7,1.5,1.3,3.1,1.9,4.6l0.7-0.3C421.3,345.7,420.7,344.1,420,342.6z
			 M416,333.4l-0.7,0.3c0.7,1.5,1.3,3,2,4.6l0.7-0.3C417.4,336.5,416.7,334.9,416,333.4z M411.8,324.3l-0.7,0.3
			c0.7,1.5,1.4,3,2.1,4.5l0.7-0.3C413.3,327.3,412.5,325.8,411.8,324.3z M407.8,315.2l-0.7,0.3c0.6,1.5,1.3,3.1,2,4.6l0.7-0.3
			C409.1,318.2,408.4,316.7,407.8,315.2z M404.2,305.9l-0.7,0.3c0.6,1.6,1.1,3.1,1.7,4.7l0.7-0.3C405.4,309,404.8,307.4,404.2,305.9
			z M401.1,296.4l-0.7,0.2c0.5,1.6,1,3.2,1.5,4.8l0.7-0.2C402.1,299.5,401.6,298,401.1,296.4z M398.5,286.7l-0.7,0.2
			c0.4,1.6,0.8,3.2,1.3,4.8l0.7-0.2C399.3,290,398.9,288.3,398.5,286.7z M396.3,277l-0.7,0.1c0.3,1.6,0.7,3.3,1,4.9l0.7-0.2
			C397,280.3,396.7,278.6,396.3,277z M394.7,267.2l-0.8,0.1c0.3,1.6,0.5,3.3,0.8,4.9l0.7-0.1C395.2,270.4,394.9,268.8,394.7,267.2z
			 M393.4,257.3l-0.7,0.1c0.2,1.6,0.4,3.3,0.6,5l0.7-0.1C393.8,260.5,393.6,258.9,393.4,257.3z M392.6,247.3l-0.8,0
			c0.1,1.7,0.2,3.3,0.4,5l0.8-0.1C392.8,250.6,392.7,249,392.6,247.3z M392.2,237.3l-0.8,0c0,1.7,0.1,3.3,0.2,5l0.8,0
			C392.3,240.6,392.2,239,392.2,237.3z M391.4,227.3c0,1.5,0,3,0,4.6v0.5h0.8v-0.5c0-1.5,0-3,0-4.5L391.4,227.3z M391.8,217.3
			c-0.1,1.6-0.2,3.3-0.2,5l0.8,0c0.1-1.7,0.1-3.4,0.2-5L391.8,217.3z M392.4,207.3c-0.1,1.6-0.3,3.3-0.4,5l0.8,0.1
			c0.1-1.7,0.2-3.4,0.4-5L392.4,207.3z M393.3,197.4c-0.2,1.6-0.3,3.3-0.5,5l0.8,0.1c0.1-1.7,0.3-3.4,0.5-5L393.3,197.4z
			 M394.4,187.4l-0.5,5l0.7,0.1l0.5-5L394.4,187.4z M395.4,177.5c-0.1,1.5-0.3,3.2-0.5,5l0.8,0.1c0.2-1.8,0.3-3.5,0.5-5L395.4,177.5
			z M395.9,167.5c-0.2,1.8-0.2,3.3-0.2,4.5v0.5l0.8,0l0-0.5c0-1.2,0.1-2.7,0.2-4.4L395.9,167.5z M397,157.5l-0.2,1.9
			c-0.1,1.1-0.3,2.1-0.4,3.1l0.7,0.1c0.1-1,0.2-2,0.4-3l0.2-1.9L397,157.5z M398.1,147.6c-0.2,1.7-0.3,3.4-0.5,5l0.7,0.1
			c0.2-1.6,0.3-3.3,0.5-5L398.1,147.6z M398.8,137.6c-0.1,1.7-0.2,3.4-0.3,5l0.7,0.1c0.1-1.6,0.2-3.3,0.3-5L398.8,137.6z M399,127.7
			v1.1c0,1.3,0,2.6,0,3.9l0.8,0c0-1.3,0-2.6,0-4v-1.1H399z M399.4,117.6l-0.8,0.1c0.1,1.6,0.2,3.3,0.3,5l0.8,0
			C399.6,121,399.5,119.3,399.4,117.6z M398.4,107.7l-0.7,0.1c0.2,1.7,0.4,3.3,0.6,5l0.7-0.1C398.8,111,398.7,109.3,398.4,107.7z
			 M396.8,97.8l-0.7,0.1c0.3,1.6,0.6,3.3,0.9,4.9l0.7-0.1C397.5,101.1,397.2,99.4,396.8,97.8z M394.6,88l-0.7,0.2
			c0.4,1.6,0.8,3.2,1.2,4.8l0.7-0.2C395.4,91.3,395,89.6,394.6,88z M391.8,78.4l-0.7,0.2c0.5,1.6,1,3.2,1.5,4.8l0.7-0.2
			C392.8,81.6,392.3,80,391.8,78.4z M388.3,69l-0.7,0.3c0.6,1.5,1.2,3.1,1.8,4.7l0.7-0.3C389.5,72.1,388.9,70.5,388.3,69z
			 M384.2,59.8l-0.7,0.3c0.7,1.5,1.4,3,2.1,4.5l0.7-0.3C385.7,62.9,385,61.3,384.2,59.8z M380.2,51.9c-0.2-0.3-0.4-0.7-0.5-1
			l-0.4,0.2l-0.3,0.2c0.8,1.5,1.6,2.9,2.4,4.4l0.7-0.3C381.4,54.2,380.8,53.1,380.2,51.9z"/>
	</g>
	<g class="st1">
		<path class="st2" d="M403.9,483.8c-0.3,1.7-0.7,3.3-1,4.9l0.7,0.2c0.4-1.6,0.7-3.2,1-4.9L403.9,483.8z M405.6,474
			c-0.2,1.6-0.5,3.3-0.8,4.9l0.7,0.1c0.3-1.6,0.5-3.3,0.8-5L405.6,474z M406.7,464.1c-0.1,1.6-0.3,3.3-0.5,5l0.7,0.1
			c0.2-1.7,0.4-3.3,0.5-5L406.7,464.1z M407.2,454.1c0,1.7-0.1,3.3-0.2,5l0.8,0.1c0.1-1.7,0.2-3.3,0.2-5L407.2,454.1z M408,444.1
			l-0.8,0c0,1.6,0.1,3.3,0.1,5l0.8,0C408.1,447.4,408,445.7,408,444.1z M407.4,434.1l-0.7,0.1c0.1,1.6,0.3,3.3,0.4,5l0.8,0
			C407.7,437.4,407.5,435.7,407.4,434.1z M406.2,424.1l-0.7,0.1c0.3,1.6,0.5,3.3,0.7,4.9l0.7-0.1
			C406.7,427.5,406.4,425.8,406.2,424.1z M404.3,414.3l-0.7,0.2c0.4,1.6,0.7,3.2,1,4.9l0.7-0.1C405,417.6,404.7,415.9,404.3,414.3z
			 M401.7,404.6l-0.7,0.2c0.5,1.6,1,3.2,1.4,4.8l0.7-0.2C402.6,407.8,402.2,406.2,401.7,404.6z M398.4,395.1l-0.7,0.3
			c0.6,1.5,1.2,3.1,1.8,4.7l0.7-0.3C399.6,398.3,399,396.7,398.4,395.1z"/>
	</g>
	<g class="st1">
		<path class="st2" d="M384.4,354l-0.7,0.3l0.9,2.3l0.7-0.3L384.4,354z M380.9,344.6l-0.7,0.3l1.8,4.7l0.7-0.3L380.9,344.6z
			 M377.3,335.3l-0.7,0.3c0.6,1.6,1.2,3.1,1.8,4.7l0.7-0.3C378.5,338.4,377.9,336.8,377.3,335.3z M373.8,325.9l-0.7,0.3
			c0.6,1.6,1.1,3.1,1.7,4.7l0.7-0.3C375,329,374.4,327.5,373.8,325.9z M370.5,316.5l-0.7,0.3c0.6,1.6,1.1,3.2,1.7,4.7l0.7-0.3
			C371.6,319.6,371,318.1,370.5,316.5z M367.3,307l-0.7,0.2c0.5,1.6,1,3.2,1.6,4.8l0.7-0.2C368.4,310.2,367.8,308.6,367.3,307z
			 M364.3,297.5l-0.7,0.2c0.5,1.6,1,3.2,1.5,4.8l0.7-0.2C365.3,300.7,364.8,299.1,364.3,297.5z M361.6,287.9l-0.7,0.2
			c0.4,1.6,0.9,3.2,1.3,4.8l0.7-0.2C362.5,291.1,362,289.5,361.6,287.9z M359.1,278.2l-0.7,0.2c0.4,1.6,0.8,3.3,1.2,4.9l0.7-0.2
			C359.9,281.5,359.5,279.8,359.1,278.2z M356.9,268.5l-0.7,0.2c0.4,1.6,0.7,3.3,1.1,4.9l0.7-0.2
			C357.6,271.7,357.3,270.1,356.9,268.5z M355,258.7l-0.7,0.1c0.3,1.7,0.6,3.3,0.9,4.9l0.7-0.1C355.6,261.9,355.3,260.3,355,258.7z
			 M353.5,248.8l-0.7,0.1c0.2,1.7,0.5,3.3,0.7,5l0.7-0.1C353.9,252.1,353.7,250.5,353.5,248.8z M352.2,238.9l-0.7,0.1
			c0.2,1.7,0.4,3.3,0.6,5l0.7-0.1C352.6,242.2,352.4,240.5,352.2,238.9z M351.4,228.9l-0.8,0c0.1,1.7,0.3,3.3,0.4,5l0.7-0.1
			C351.6,232.3,351.5,230.6,351.4,228.9z M350.8,219l-0.8,0c0.1,1.7,0.1,3.3,0.2,5l0.7,0C351,222.3,350.9,220.6,350.8,219z
			 M350.7,209.1V209h-0.8v0.2c0,1.6,0,3.2,0,4.8l0.8,0C350.7,212.4,350.7,210.8,350.7,209.1z M350.1,199c-0.1,1.7-0.1,3.4-0.1,5
			l0.8,0c0-1.7,0.1-3.3,0.1-5L350.1,199z M350.6,189c-0.1,1.7-0.2,3.4-0.3,5l0.8,0c0.1-1.7,0.2-3.3,0.3-5L350.6,189z"/>
	</g>
	<g class="st1">
		<path class="st2" d="M354.2,150.5l0,0.4l0.8,0l0-0.4L354.2,150.5z M354.6,140.6c0,1.6-0.1,3.3-0.2,5l0.8,0c0.1-1.7,0.1-3.3,0.2-5
			L354.6,140.6z M354.8,130.6c0,1.6,0,3.3,0,5l0.8,0c0-1.7,0-3.3,0-5H354.8z M355.4,120.6l-0.8,0c0,1.7,0.1,3.3,0.1,5h0.8
			C355.5,123.9,355.4,122.2,355.4,120.6z M355,110.6l-0.8,0c0.1,1.7,0.1,3.3,0.2,5l0.8,0C355.2,113.9,355.1,112.2,355,110.6z
			 M354.4,100.6l-0.8,0c0.1,1.6,0.3,3.3,0.3,5l0.8,0C354.6,103.9,354.5,102.2,354.4,100.6z M353.5,90.6l-0.8,0.1
			c0.2,1.6,0.3,3.3,0.5,5l0.8-0.1C353.8,93.9,353.7,92.2,353.5,90.6z M352.3,80.6l-0.7,0.1c0.2,1.6,0.4,3.3,0.6,5l0.8-0.1
			C352.8,83.9,352.6,82.3,352.3,80.6z M351,70.7l-0.7,0.1c0.3,1.6,0.5,3.3,0.7,4.9l0.8-0.1C351.5,74,351.2,72.4,351,70.7z
			 M349.3,60.9l-0.7,0.1c0.3,1.6,0.6,3.3,0.9,4.9l0.7-0.1C349.9,64.1,349.6,62.5,349.3,60.9z M347.4,51l-0.7,0.2
			c0.3,1.6,0.7,3.2,1,4.9l0.7-0.1C348,54.3,347.7,52.6,347.4,51z M345.2,41.3l-0.7,0.2c0.4,1.6,0.7,3.2,1.1,4.9l0.7-0.2
			C346,44.5,345.6,42.8,345.2,41.3z M342.8,31.5l-0.7,0.2c0.4,1.5,0.8,3.1,1.3,4.8l0.7-0.2C343.6,34.7,343.2,33.1,342.8,31.5z"/>
	</g>
	<g class="st1">
		<path class="st2" d="M35.6,366.3c-0.2-0.2-0.3-0.4-0.5-0.7c7.2-14.6,13.4-31.9,13-48.1c-0.8-29-21.6-48.8-38.9-60.4
			c-0.2-0.1-0.3-0.2-0.5-0.3c0-0.3,0.1-0.5,0.1-0.8c0.3,0.2,0.5,0.3,0.7,0.5c17.5,11.6,38.5,31.7,39.2,61
			C49.3,333.9,43,351.6,35.6,366.3z"/>
	</g>
	<g class="st1">
		<path class="st2" d="M73.9,383c-0.4,1.6-0.8,3.3-1.2,4.9l0.7,0.2c0.4-1.6,0.8-3.2,1.2-4.9L73.9,383z M77.3,368.4
			c-0.3,1.6-0.7,3.3-1.1,4.9l0.7,0.2c0.4-1.6,0.7-3.3,1.1-4.9L77.3,368.4z M80.1,353.7c-0.3,1.6-0.6,3.3-0.9,4.9l0.7,0.1
			c0.3-1.6,0.6-3.3,0.9-4.9L80.1,353.7z M82.3,338.8c-0.2,1.7-0.4,3.3-0.6,5l0.8,0.1c0.2-1.7,0.4-3.3,0.6-5L82.3,338.8z M83.6,323.9
			c-0.1,1.7-0.2,3.3-0.3,5L84,329c0.1-1.7,0.3-3.3,0.4-5L83.6,323.9z M84.8,309l-0.8,0c0,0.7,0,1.4,0,2.1c0,1,0,2,0,2.9l0.8,0
			c0-1,0-2,0-2.9C84.8,310.3,84.8,309.6,84.8,309z M84,293.9l-0.8,0.1c0.2,1.6,0.3,3.3,0.4,5l0.8,0C84.3,297.3,84.1,295.6,84,293.9z
			 M81.9,280.4l-0.3-1.3l-0.7,0.2l0.3,1.3c0.3,1.2,0.5,2.4,0.7,3.6l0.7-0.1C82.4,282.8,82.1,281.6,81.9,280.4z M77.8,264.6l-0.7,0.2
			c0.5,1.6,1,3.2,1.4,4.8l0.7-0.2C78.7,267.8,78.3,266.2,77.8,264.6z M72.9,250.4l-0.7,0.3c0.6,1.5,1.2,3.1,1.8,4.7l0.7-0.3
			C74.1,253.5,73.5,251.9,72.9,250.4z M66.9,236.6l-0.7,0.3c0.7,1.5,1.4,3,2.1,4.5l0.7-0.3C68.3,239.6,67.6,238.1,66.9,236.6z
			 M59.9,223.3l-0.7,0.4c0.8,1.4,1.6,2.9,2.4,4.4l0.7-0.4C61.5,226.2,60.7,224.7,59.9,223.3z M52,210.5l-0.6,0.4
			c0.9,1.4,1.8,2.8,2.7,4.2l0.6-0.4C53.8,213.3,52.9,211.9,52,210.5z M43.1,198.3l-0.6,0.5c1,1.3,2,2.6,3,4l0.6-0.5
			C45.1,201,44.1,199.6,43.1,198.3z"/>
	</g>
	<g class="st1">
		<path class="st2" d="M117.2,422.1c-0.2-0.1-0.5-0.2-0.7-0.3c7.1-32.3,15.2-80,14.6-128.3c-0.6-53.3-20.3-108.2-35.1-142
			c0.2-0.2,0.4-0.4,0.6-0.6c14.8,33.8,34.6,89,35.3,142.5C132.4,341.9,124.3,389.7,117.2,422.1z"/>
	</g>
	<g class="st1">
		<path class="st2" d="M158.7,426.6c-0.3,1.7-0.6,3.3-0.9,4.9l0.7,0.1c0.3-1.6,0.6-3.2,0.9-4.9L158.7,426.6z M161.2,411.9
			c-0.3,1.7-0.5,3.3-0.8,4.9l0.7,0.1c0.3-1.6,0.5-3.3,0.8-4.9L161.2,411.9z M163.3,397c-0.2,1.7-0.5,3.3-0.7,4.9l0.7,0.1
			c0.2-1.6,0.5-3.3,0.7-4.9L163.3,397z M165.3,382.2c-0.2,1.7-0.4,3.3-0.6,5l0.7,0.1c0.2-1.6,0.4-3.3,0.6-5L165.3,382.2z M167,367.3
			c-0.2,1.7-0.4,3.3-0.6,5l0.7,0.1c0.2-1.6,0.4-3.3,0.6-5L167,367.3z M168.5,352.4c-0.2,1.7-0.3,3.3-0.5,5l0.8,0.1
			c0.2-1.6,0.3-3.3,0.5-5L168.5,352.4z M169.9,337.5c-0.1,1.7-0.3,3.3-0.5,5l0.8,0.1c0.2-1.7,0.3-3.3,0.5-5L169.9,337.5z"/>
	</g>
	<g class="st1">
		<path class="st2" d="M173.7,287.7l-0.1,1.8l0.8,0l0.1-1.8L173.7,287.7z M174.2,272.7c0,1.7-0.1,3.3-0.1,5l0.8,0
			c0-1.7,0.1-3.3,0.1-5L174.2,272.7z M175.1,257.7l-0.8,0c0,1.1,0,2.1,0,3.2l0,1.8l0.8,0l0-1.8C175.1,259.8,175.1,258.8,175.1,257.7
			z M174.8,242.7l-0.8,0c0.1,1.7,0.1,3.3,0.2,5l0.8,0C174.9,246,174.8,244.3,174.8,242.7z M173.9,227.7l-0.7,0.1
			c0.1,1.6,0.2,3.3,0.3,5l0.8,0C174.2,231,174,229.4,173.9,227.7z M172.6,212.8l-0.7,0.1c0.2,1.6,0.3,3.3,0.5,5l0.7-0.1
			C172.9,216.1,172.8,214.4,172.6,212.8z M170.7,197.9l-0.7,0.1c0.2,1.6,0.5,3.3,0.7,5l0.7-0.1C171.1,201.1,170.9,199.5,170.7,197.9
			z M168.2,183.1l-0.7,0.1c0.3,1.6,0.6,3.3,0.9,4.9l0.7-0.1C168.8,186.3,168.5,184.7,168.2,183.1z M165,168.4l-0.7,0.2
			c0.4,1.6,0.8,3.2,1.1,4.9l0.7-0.2C165.8,171.6,165.4,170,165,168.4z"/>
	</g>
	<g class="st1">
		<path class="st2" d="M155.3,135.8l-0.7,0.3c0.6,1.5,1.1,3.1,1.7,4.7l0.7-0.2C156.4,138.9,155.9,137.3,155.3,135.8z M149.7,121.8
			l-0.7,0.3c0.6,1.5,1.3,3,1.9,4.6l0.7-0.3C151,124.8,150.4,123.3,149.7,121.8z M143.3,108.2l-0.7,0.3c0.7,1.4,1.5,2.9,2.2,4.5
			l0.7-0.3C144.8,111.2,144.1,109.7,143.3,108.2z M136,95.1l-0.6,0.4c0.8,1.4,1.7,2.8,2.5,4.3l0.6-0.4C137.7,98,136.8,96.5,136,95.1
			z"/>
	</g>
	<g class="st1">
		<path class="st2" d="M278.7,492.5c-0.1,1.7-0.2,3.4-0.3,5l0.8,0.1c0.1-1.6,0.2-3.3,0.3-5L278.7,492.5z M279.4,482.5
			c-0.1,1.7-0.2,3.4-0.3,5l0.8,0c0.1-1.6,0.2-3.3,0.3-5L279.4,482.5z M279.9,472.6c-0.1,1.7-0.2,3.4-0.3,5l0.8,0
			c0.1-1.6,0.2-3.3,0.3-5L279.9,472.6z M280.5,462.6l-0.3,5l0.8,0l0.3-5L280.5,462.6z M281,452.6c-0.1,1.7-0.2,3.4-0.3,5l0.8,0
			c0.1-1.6,0.2-3.3,0.3-5L281,452.6z M281.4,442.6c-0.1,1.7-0.2,3.4-0.2,5l0.8,0c0.1-1.7,0.2-3.3,0.2-5L281.4,442.6z M281.8,432.6
			c-0.1,1.7-0.1,3.4-0.2,5l0.7,0c0.1-1.7,0.1-3.3,0.2-5L281.8,432.6z M282.2,422.6l-0.2,5l0.8,0l0.2-5L282.2,422.6z M282.5,412.6
			l-0.2,5l0.8,0l0.2-5L282.5,412.6z M282.9,402.6c-0.1,1.7-0.1,3.4-0.1,5l0.8,0c0-1.7,0.1-3.3,0.1-5L282.9,402.6z M283.1,392.6
			c0,1.7-0.1,3.3-0.1,5l0.8,0c0-1.7,0.1-3.3,0.1-5L283.1,392.6z M283.3,382.6l-0.1,5l0.8,0l0.1-5L283.3,382.6z M283.5,372.6
			c0,1.7-0.1,3.3-0.1,5l0.8,0c0-1.7,0.1-3.3,0.1-5L283.5,372.6z M283.7,362.6c0,1.7,0,3.3-0.1,5l0.8,0c0-1.7,0-3.3,0.1-5
			L283.7,362.6z M283.7,352.6c0,1.7,0,3.3,0,5l0.8,0c0-1.7,0-3.3,0-5H283.7z M283.8,342.6c0,1.7,0,3.3,0,5h0.8c0-1.7,0-3.3,0-5
			H283.8z M283.8,332.6v5h0.8v-5H283.8z M284.5,322.6l-0.8,0c0,1.7,0,3.3,0,5h0.8C284.5,326,284.5,324.3,284.5,322.6z M284.5,312.6
			l-0.8,0c0,1.7,0,3.3,0,5l0.8,0C284.5,315.9,284.5,314.3,284.5,312.6z M284.3,302.6l-0.8,0c0,1.7,0,3.3,0.1,5l0.8,0
			C284.4,305.9,284.4,304.3,284.3,302.6z M284.2,292.6l-0.8,0c0,1.7,0.1,3.3,0.1,5l0.8,0C284.2,295.9,284.2,294.3,284.2,292.6z
			 M284,282.6l-0.8,0c0,1.7,0.1,3.3,0.1,5l0.8,0C284,285.9,284,284.3,284,282.6z M283.7,272.6l-0.8,0c0,1.7,0.1,3.3,0.1,5l0.8,0
			C283.8,275.9,283.7,274.3,283.7,272.6z M283.4,262.6l-0.8,0c0.1,1.7,0.1,3.3,0.2,5l0.8,0C283.5,265.9,283.4,264.3,283.4,262.6z
			 M283,252.6l-0.8,0c0.1,1.7,0.1,3.3,0.2,5l0.8,0C283.2,255.9,283.1,254.3,283,252.6z M282.6,242.6l-0.8,0c0.1,1.7,0.1,3.3,0.2,5
			l0.8,0C282.8,245.9,282.7,244.3,282.6,242.6z M282.1,232.6l-0.8,0c0.1,1.7,0.2,3.3,0.2,5l0.8,0C282.3,236,282.2,234.3,282.1,232.6
			z M281.6,222.7l-0.8,0c0.1,1.7,0.2,3.3,0.3,5l0.8,0C281.8,226,281.7,224.3,281.6,222.7z M281,212.7l-0.8,0.1
			c0.1,1.7,0.2,3.3,0.3,5l0.8,0C281.2,216,281.1,214.4,281,212.7z M280.4,202.7l-0.8,0c0.1,1.7,0.2,3.3,0.3,5l0.7,0
			C280.6,206.1,280.5,204.4,280.4,202.7z M279.7,192.8l-0.8,0.1c0.1,1.7,0.3,3.3,0.4,5l0.8,0C279.9,196.1,279.8,194.4,279.7,192.8z
			 M278.9,182.8l-0.7,0.1c0.1,1.7,0.3,3.3,0.4,5l0.8-0.1C279.2,186.1,279,184.5,278.9,182.8z M278.1,172.8l-0.8,0.1
			c0.2,1.7,0.3,3.3,0.4,5l0.7-0.1C278.4,176.1,278.2,174.5,278.1,172.8z M277.2,162.8l-0.7,0.1c0.2,1.7,0.3,3.3,0.5,5l0.7-0.1
			C277.5,166.2,277.3,164.5,277.2,162.8z M276.2,152.9l-0.7,0.1c0.2,1.7,0.3,3.3,0.5,5l0.7-0.1C276.5,156.2,276.4,154.5,276.2,152.9
			z M275.1,142.9l-0.7,0.1c0.2,1.7,0.4,3.3,0.5,5l0.8-0.1C275.5,146.2,275.3,144.5,275.1,142.9z M274,132.9l-0.8,0.1
			c0.2,1.7,0.4,3.3,0.6,5l0.7-0.1C274.4,136.2,274.2,134.6,274,132.9z M272.8,123L272,123c0.2,1.7,0.4,3.3,0.6,5l0.7-0.1
			C273.2,126.3,273,124.6,272.8,123z M271.5,113l-0.7,0.1c0.2,1.6,0.4,3.3,0.7,5l0.8-0.1C271.9,116.3,271.7,114.7,271.5,113z
			 M270.1,103.1l-0.7,0.1c0.2,1.6,0.5,3.3,0.7,5l0.8-0.1C270.6,106.4,270.4,104.8,270.1,103.1z M268.6,93.2l-0.8,0.1
			c0.3,1.6,0.5,3.3,0.8,4.9l0.8-0.1C269.1,96.5,268.9,94.9,268.6,93.2z M267.1,83.3l-0.7,0.1c0.3,1.6,0.5,3.3,0.8,4.9l0.7-0.1
			C267.6,86.6,267.3,85,267.1,83.3z M265.4,73.5l-0.7,0.1c0.3,1.6,0.6,3.3,0.8,4.9l0.7-0.1C266,76.8,265.7,75.1,265.4,73.5z
			 M263.6,63.6l-0.7,0.1c0.3,1.6,0.6,3.3,0.9,4.9l0.7-0.1C264.2,66.9,263.9,65.3,263.6,63.6z M261.7,53.8L261,54
			c0.3,1.6,0.7,3.3,1,4.9l0.7-0.2C262.3,57.1,262,55.5,261.7,53.8z M259.7,44l-0.7,0.2c0.3,1.6,0.7,3.3,1,4.9l0.7-0.2
			C260.4,47.3,260,45.6,259.7,44z M257.5,34.3l-0.7,0.2c0.4,1.6,0.7,3.3,1.1,4.9l0.7-0.2C258.2,37.5,257.9,35.9,257.5,34.3z
			 M255.2,24.5l-0.7,0.2c0.4,1.6,0.8,3.2,1.2,4.9l0.7-0.2C256,27.8,255.6,26.1,255.2,24.5z M252.8,14.8L252,15
			c0.4,1.6,0.8,3.2,1.2,4.8l0.7-0.2C253.6,18,253.2,16.4,252.8,14.8z"/>
	</g>
	<g class="st1">
		<path class="st2" d="M233.8,282.5c-4.1,97.5-14.3,156.6-22.9,190.5c-0.1-0.1-0.3-0.2-0.5-0.3c8.6-33.9,18.8-93,22.9-190.3
			c3.9-91.1-13.5-158.8-28.7-199.6c-7.8-20.7-15.7-36.8-22.1-48c0.1-0.1,0.3-0.2,0.4-0.3c6.3,11.2,14.4,27.3,22.1,48.1
			c9.7,26,17.1,54.1,22,83.5C233.2,203.1,235.5,242.2,233.8,282.5z"/>
	</g>
	<g class="st1">
		<path class="st2" d="M340,506c-0.2,0-0.3,0-0.5,0c6.4-53-3.5-130.4-13.3-205.9c-5.6-43.3-10.8-84.2-12.9-119.7
			c-4.5-75.5-8.6-133.4-10.9-165c0.2,0,0.3,0.1,0.5,0.1c2.4,31.7,6.5,89.5,10.9,164.9c2.1,35.5,7.4,76.3,12.9,119.7
			C336.4,375.6,346.4,453,340,506z"/>
	</g>
</g>
</svg>
