<?xml version="1.0" encoding="utf-8"?>
<!-- Generator: Adobe Illustrator 21.0.0, SVG Export Plug-In . SVG Version: 6.00 Build 0)  -->
<svg version="1.1" id="Capa_1" xmlns="http://www.w3.org/2000/svg" xmlns:xlink="http://www.w3.org/1999/xlink" x="0px" y="0px"
	 viewBox="0 0 471 515.3" style="enable-background:new 0 0 471 515.3;" xml:space="preserve">
<style type="text/css">
	.st0{fill:#D9840B;}
	
		.st1{fill:none;stroke:#202020;stroke-width:1.9138;stroke-linecap:round;stroke-linejoin:round;stroke-miterlimit:10;stroke-dasharray:4.7844;}
	.st2{fill:#302E2F;}
</style>
<path class="st0" d="M453.5,433.7c-0.2,0.3-0.3,0.7-0.5,1c-11.1,21.1-30.5,38.6-55.3,56c-16.2,11.4-35.3,17.1-55.4,18.8
	c-0.2,0-0.3,0-0.5,0c-2.7,0.2-5.6,0.4-8.3,0.4c-0.3,0-0.5,0-0.8,0c-41.6,1-85.9-13.8-115.4-30.4c-0.2-0.1-0.5-0.3-0.7-0.4
	c-1.8-1-3.7-2.1-5.4-3.1c-0.1-0.1-0.3-0.2-0.5-0.3c-6.9-4.3-12.7-8.5-17.3-12.6c-19.5-17.6-48.2-26.9-77.4-38.9
	c-0.2-0.1-0.5-0.2-0.7-0.3c-15.9-6.5-31.9-13.8-46.7-23.6c-0.2-0.1-0.4-0.3-0.7-0.4c-12.8-8.5-24.7-19-34.9-32.4
	c-0.2-0.2-0.3-0.4-0.5-0.7c-1.5-2.1-3-4.3-4.6-6.5c-23.9-38-27.2-74.2-22-103.8c0-0.3,0.1-0.5,0.1-0.8c6.8-37.7,27.3-64.6,36.4-71.2
	c11.2-8.1,29.3-11.4,52.1-35c0.2-0.2,0.4-0.4,0.6-0.6c10.1-10.5,21-24.9,32.7-45.3c15.3-35.5,35.2-58.1,54.6-72.7
	c0.1-0.1,0.3-0.2,0.4-0.3c2.1-1.6,4.3-3,6.4-4.5c0.2-0.2,0.4-0.3,0.7-0.4c28.6-18.5,54.7-20.2,61.8-20.3c0.3,0,0.5,0,0.8,0
	c0.7,0,1.1,0,1.1,0c18.7,0.6,35.6,2.6,50.6,5.8c0.2,0,0.3,0.1,0.5,0.1c0,0,0.1,0,0.2,0c0.3,0,0.6,0.1,0.8,0.2
	c33.5,7.2,58.3,20.1,76.7,36c0.3,0.3,0.6,0.5,0.9,0.8c59.2,52.1,48.9,135,40.4,152c-12.2,24.7-9.9,51.2,5,89.7
	C466.6,356.7,470.8,399.9,453.5,433.7z"/>
<path class="st1" d="M466.9,334.8c-6.5-23-20.1-48.4-41.7-77.5c-17.2-32.5-21.3-54.3-14-75c4.2-11.8,4.8-37.8-2.1-64.9
	c-6.3-24.8-21.2-59.3-56.5-83.6c-0.3-0.2-0.6-0.4-0.8-0.6l-0.1-0.1l-0.3-0.2c-21.8-14.6-48.6-23.5-79.6-26.4
	c-0.7-0.1-1.6-0.2-2.5-0.2c0,0-0.1,0-0.1,0c-15.3-1.3-31.9-1.1-49.2,0.4l-0.2,0l-2.1,0.3c-7.4,1-33.4,6-59.6,27.7
	c-0.6,0.4-1.2,0.9-1.7,1.4c-1.8,1.5-3.6,3.1-5.5,5c-0.1,0.1-0.3,0.3-0.5,0.5c-20.3,19.5-35.4,45.7-44.9,77.7
	c-7.4,17.5-15.5,32.2-24,43.5l-0.5,0.7c-11.8,15.6-22.7,22.7-31.4,28.4c-4.4,2.9-8.6,5.7-12.3,9C26.6,211,10.5,241.6,8.4,278.2
	l0,0.9l0,0.2c0,0.1,0,0.1,0,0.2c-1.7,35.9,10.3,70.6,34.6,100.6l0.1,0.1l0.1,0.1c1.7,1.9,3.3,3.7,5,5.5c0.2,0.3,0.6,0.7,1.2,1.2
	C60.4,398.4,73,407.5,88,415l1.2,0.6l0.2,0c16.3,8,33.1,13.1,47.3,17c0.1,0,0.3,0.1,0.4,0.1l0.1,0l0.4,0.1c4.9,1.3,9.8,2.6,14.5,3.8
	c22.6,5.9,43.9,11.5,59.4,22.3c5.2,3.6,11.5,7.1,18.5,10.4l0.1,0l2.6,1.1c1.3,0.6,2.7,1.2,4.1,1.8l0.1,0c0.2,0.1,0.4,0.2,0.6,0.3
	c35.4,14.5,77.4,20.6,112.3,16.3c1.3-0.2,2.6-0.3,3.9-0.5l0.6-0.1c2.9-0.3,5.7-0.9,8.1-1.4l0.5-0.1l0.4-0.1
	c21.7-4.6,39.9-13.4,54-26.2c25.3-22.8,40-42,47.7-62.1c0.2-0.5,0.3-0.9,0.4-1.2l0.1-0.2C472.9,377.7,473.3,357.3,466.9,334.8z"/>
<g>
	<path class="st2" d="M273,57c3.1-1.7,5.4-4.2,6.8-7.5c0.8-1.8-0.5-4.4-2.4-5c-1.8-0.5-3.5,0.3-4.5,1.9c-1.1,0.1-2.2,0.6-2.8,1.6
		c-0.7,1.1-1.3,2.2-2,3.3c-0.8,1.4-0.9,3.4,0.3,4.7C269.5,57.3,271.4,57.9,273,57z"/>
	<path class="st2" d="M273.8,79.7c3.1-0.7,4.7-4.5,5.8-7.2c0.7-1.9-0.4-4.4-2.4-5c-2-0.7-4.1,0.3-4.9,2.3c-0.1,0.3-0.3,0.8-0.4,1.1
		l-0.3,0.5c0,0,0,0.1-0.1,0.1c-0.2,0-0.3,0.1-0.4,0.2c-1.2,0.6-1.9,1.6-2.2,2.9C268.4,77.5,270.8,80.3,273.8,79.7z M270.8,73
		C270.8,73,270.8,73,270.8,73L270.8,73z"/>
	<path class="st2" d="M259.8,54.3c0.6-2-0.3-4.3-2.4-5c-1.2-0.4-2.6-0.2-3.6,0.6c-0.2,0-0.4-0.1-0.6-0.1c-2.7,0-4.9,1.4-6,3.9
		c-0.9,2.1-0.7,4.8,0.8,6.6C252.2,65.2,258.5,58.6,259.8,54.3z M254.2,56.8C254.2,56.8,254.2,56.8,254.2,56.8
		C254.2,56.8,254.2,56.8,254.2,56.8C254.2,56.8,254.2,56.8,254.2,56.8C254.2,56.8,254.2,56.8,254.2,56.8z M252.5,57.6
		c0.3,0,0.5,0,0.7-0.1C253,57.6,252.8,57.6,252.5,57.6z"/>
	<path class="st2" d="M249.1,80.4c1.4,1.6,3.9,2.1,5.5,0.6c1.9-1.9,3-4.1,3.4-6.8c0.3-1.9-1.6-4.2-3.5-4.2c-1.9,0-4,0.6-5.4,2.1
		c-0.7,0.8-1.2,1.6-1.3,2.6c0,0.8,0.1,1.6,0.6,2.3C247.9,78.2,248.1,79.4,249.1,80.4z"/>
	<path class="st2" d="M235.4,65.5c-0.4-1.9-2.5-3.6-4.5-3.1c-2,0.5-3.5,2.4-3.1,4.5c0.2,1.3,0.5,2.5,0.7,3.8
		c0.4,1.9,2.5,3.6,4.5,3.1c2-0.5,3.5-2.4,3.1-4.5C235.9,68,235.7,66.8,235.4,65.5z"/>
	<path class="st2" d="M210.7,78.9c1,0.5,2.1,0.7,3.3,0.5c0.9-0.2,1.9-0.7,2.5-1.3c1.2-1.2,1.6-2.6,1.4-4.2c-0.2-2-2.6-3.5-4.5-3.1
		c-0.4,0.1-0.8,0.2-1.1,0.4c-0.3,0-0.6,0-0.9,0c-1.9,0.5-3.7,2.5-3.1,4.5C208.7,77.1,209.4,78.2,210.7,78.9z M210.3,74.6
		c0,0.2,0,0.3,0,0.5C210.3,74.9,210.3,74.7,210.3,74.6z M215.7,73.6c0.1,0.2,0.1,0.3,0.2,0.5C215.8,73.9,215.8,73.7,215.7,73.6z"/>
	<path class="st2" d="M197.2,89.5c-0.3-0.5-0.7-0.9-1.2-1.2c-1.8-1.2-4.1-0.6-5.4,1c-1,1.5-2.1,2.9-3.1,4.4
		c-1.8,2.6,0.6,6.8,3.9,5.9c2.5-0.7,4.7-1.6,6.8-2.9c1.7-1.1,2.8-3.2,1.7-5.2C199.5,90.6,198.4,89.7,197.2,89.5z"/>
	<path class="st2" d="M223.9,89.4c-1.9-1.2-3.9-0.6-5.4,1c-1.5,1.7-2.7,3.9-3.3,6c-0.5,1.5-0.1,3.1,1.1,4.2c1.1,1,2.9,1.3,4.2,0.6
		c2.5-1.4,4-3.8,4.3-6.4c0,0,0,0,0.1-0.1C226.3,93.3,225.5,90.5,223.9,89.4z M217.4,93.9C217.4,93.9,217.4,93.9,217.4,93.9
		C217.4,93.9,217.4,93.9,217.4,93.9C217.4,93.9,217.4,93.9,217.4,93.9C217.4,93.9,217.4,93.9,217.4,93.9z M217.1,94.3
		C217.1,94.3,217.1,94.3,217.1,94.3C217.1,94.4,217.1,94.4,217.1,94.3z"/>
	<path class="st2" d="M194,118.9c0.4-0.7,0.6-1.5,0.6-2.3c0.7-1.1,0.8-2.6,0.2-3.7c-1-1.9-3.2-2.7-5.2-1.7c-3.3,1.6-5.7,4.3-7,7.7
		c-1,2.7,1.6,5.7,4.3,5.1C189.8,123.2,192.4,121.5,194,118.9z"/>
	<path class="st2" d="M174.8,130.7c0.9,4.9,8.5,3.5,7.6-1.5C181.4,124.3,173.9,125.7,174.8,130.7z"/>
	<path class="st2" d="M198.1,134.5c-2-1.3-4-0.7-5.4,1c-1.3,1.6-2.5,3.1-3.8,4.6c-1.3,1.6-0.6,4.3,1,5.4c1.9,1.2,4,0.7,5.4-1
		c1.3-1.6,2.5-3.1,3.8-4.6C200.4,138.3,199.7,135.6,198.1,134.5z"/>
	<path class="st2" d="M213.6,114c-2.7-0.1-5.3,0.7-7.3,2.5c-1.5,1.3-1.8,3.9-0.3,5.4c1.5,1.6,3.8,1.8,5.4,0.3c0.1,0,0.1-0.1,0.2-0.1
		c0-0.1,0.3-0.2,0.5-0.3c0.2,0,0.6-0.2,0.6-0.2c0,0,0,0,0.1,0c0.1,0,0.1,0,0.2,0c2,0.1,4.1-1.4,4.2-3.5
		C217.2,116,215.7,114.1,213.6,114z"/>
	<path class="st2" d="M256.3,377.4c1.2-1.1,1.9-3,1-4.6c-1.6-3.2-4.1-5.6-7.3-7.1c-1.8-0.8-4.3,0.3-5,2.2c-0.6,2.1,0.2,3.9,1.8,4.9
		c0.1,1.1,0.6,2.1,1.5,2.7c1,0.7,2.2,1.4,3.2,2.1C253,378.4,255,378.5,256.3,377.4z"/>
	<path class="st2" d="M271.6,374.8c0,0.1,0.1,0.2,0.1,0.3c0.6,1.2,1.6,2,2.8,2.3c2.8,0.7,5.7-1.6,5.2-4.6c-0.6-3.2-4.3-4.9-7-6
		c-1.9-0.8-4.3,0.3-5,2.2c-0.5,2.2,0.4,4.3,2.4,5.2c0.4,0.2,0.7,0.3,1,0.5C271.2,374.6,271.5,374.7,271.6,374.8
		C271.4,374.7,271,374.5,271.6,374.8z"/>
	<path class="st2" d="M254.2,386.1c-1.9-0.7-4.3,0.2-5,2.2c-0.4,1.2-0.3,2.6,0.4,3.7c-0.1,0.2-0.1,0.4-0.1,0.6
		c-0.2,2.7,1.2,5,3.7,6.1c2.1,1,4.7,0.8,6.6-0.7C264.7,394.1,258.4,387.4,254.2,386.1z M256.4,391.8
		C256.3,391.8,256.3,391.8,256.4,391.8L256.4,391.8z M257.1,393.4c0-0.2,0-0.4,0-0.6C257.1,393,257.2,393.2,257.1,393.4z"/>
	<path class="st2" d="M274,388.7c-2-0.4-4.2,1.4-4.2,3.4c-0.1,2,0.4,4.1,1.9,5.5c0.8,0.8,1.5,1.2,2.5,1.4c0.8,0.1,1.8-0.1,2.6-0.6
		c1.2,0.4,2.5,0.3,3.6-0.6c1.2-1.3,1.8-4,0.3-5.5C278.7,390.4,276.6,389.2,274,388.7z M273.1,396.2c0,0-0.1,0-0.1,0
		C273,396.2,273,396.2,273.1,396.2z"/>
	<path class="st2" d="M272.8,413.4c-0.4-2.1-2.3-3.6-4.4-3.2c-1.2,0.2-2.5,0.4-3.8,0.6c-2,0.3-3.6,2.4-3.2,4.4
		c0.4,2.1,2.3,3.6,4.4,3.2c1.2-0.2,2.5-0.4,3.8-0.6C271.5,417.6,273.1,415.5,272.8,413.4z"/>
	<path class="st2" d="M276.3,430.1c-1.1-1.2-2.5-1.6-4.2-1.5c-2,0.1-3.6,2.5-3.2,4.4c0.1,0.3,0.2,0.6,0.3,0.9c0,0.4-0.1,0.7,0,1
		c0.4,1.9,2.4,3.8,4.4,3.2c1.4-0.4,2.5-1,3.3-2.3c0.6-1,0.8-2.1,0.6-3.3C277.3,431.7,276.9,430.7,276.3,430.1z M272.3,436.2
		c0,0-0.1,0-0.1,0C272.2,436.2,272.3,436.2,272.3,436.2z M272.5,436.3c0.2,0,0.5,0,0.7,0C273,436.3,272.8,436.3,272.5,436.3z"/>
	<path class="st2" d="M294.7,448.9c-1-1.7-3.1-2.9-5.1-1.9c-1.1,0.5-2,1.5-2.3,2.7c-0.5,0.3-0.9,0.6-1.2,1.1
		c-1.2,1.7-0.8,4.2,0.8,5.4c1.4,1.1,2.8,2.2,4.3,3.3c2.5,1.9,6.9-0.4,6.1-3.7C296.8,453.4,296,451.1,294.7,448.9z"/>
	<path class="st2" d="M293.3,422.3C293.3,422.3,293.3,422.3,293.3,422.3c-1.5-1.4-4.4-0.8-5.4,0.8c-1.2,1.9-0.8,4,0.8,5.4
		c1.7,1.5,3.8,2.7,5.9,3.5c1.5,0.5,3.1,0.2,4.2-0.9c1-1,1.4-2.8,0.8-4.2C298.2,424.3,295.9,422.8,293.3,422.3z"/>
	<path class="st2" d="M316.3,453.8c-0.7-0.5-1.5-0.7-2.3-0.7c-1.1-0.7-2.5-0.8-3.6-0.2c-1.9,0.9-2.8,3.1-1.9,5.1
		c1.5,3.3,4.2,5.9,7.5,7.3c2.6,1.1,5.8-1.3,5.2-4.2C320.5,458.2,318.8,455.4,316.3,453.8z"/>
	<path class="st2" d="M326.4,466c-4.9,0.8-3.7,8.4,1.2,7.6C332.5,472.9,331.3,465.3,326.4,466z"/>
	<path class="st2" d="M342,453.7c-1.5-1.3-3-2.6-4.5-4c-1.5-1.3-4.3-0.8-5.4,0.8c-1.2,1.9-0.8,4,0.8,5.4c1.5,1.3,3,2.6,4.5,4
		c1.5,1.3,4.3,0.8,5.4-0.8C344.1,457.2,343.6,455.2,342,453.7z"/>
	<path class="st2" d="M320.2,436.5c0,0-0.1-0.1-0.1-0.1c0,0,0,0,0,0C320.1,436.5,320.1,436.5,320.2,436.5z"/>
	<path class="st2" d="M320.2,436.5c0,0.1,0.1,0.1,0.1,0.2c0,0-0.1-0.2-0.2-0.3c0,0,0,0,0,0c0,0,0,0,0,0c0-0.1,0-0.1-0.1-0.2
		c0.1,0.1-0.1-0.6-0.2-0.7c0-0.1,0-0.1,0-0.1c0,0,0-0.1,0-0.1c0.2-2-1.3-4.2-3.4-4.2c-2-0.1-4.1,1.2-4.2,3.4
		c-0.2,2.7,0.6,5.3,2.2,7.4c1.2,1.6,3.9,1.9,5.5,0.6c1.6-1.4,1.9-3.8,0.6-5.5C320.4,436.7,320.3,436.6,320.2,436.5z"/>
</g>
</svg>
